<?xml version="1.0" encoding="utf-8"?>
<!-- Generator: Adobe Illustrator 26.3.1, SVG Export Plug-In . SVG Version: 6.00 Build 0)  -->
<svg version="1.1" id="Outline" xmlns="http://www.w3.org/2000/svg" xmlns:xlink="http://www.w3.org/1999/xlink" x="0px" y="0px"
	 viewBox="0 0 864.3 729.3" style="enable-background:new 0 0 864.3 729.3;" xml:space="preserve">
<style type="text/css">
	.st0{fill:#FFFFFF;}
	.st1{fill:#30419B;}
	.st2{fill:#FFFFFF;stroke:#FFFFFF;stroke-width:0.75;stroke-miterlimit:10;}
	.st3{fill:#A6B2E7;}
	.st4{fill:#FAFAFA;}
	.st5{fill:#3F3F44;}
	.st6{fill:none;stroke:#A6B2E7;stroke-miterlimit:10;}
	.st7{fill:#F4F4F4;}
	.st8{fill:#29292E;}
	.st9{fill:#6C6D6D;}
	.st10{fill:#454749;}
	.st11{fill-rule:evenodd;clip-rule:evenodd;fill:#454749;}
	.st12{fill:#E6EEFF;}
	.st13{fill:#3165C8;}
	.st14{fill:none;stroke:#777777;stroke-width:0.5;stroke-miterlimit:10;}
	.st15{fill:#42DB71;}
	.st16{fill:#E9E9E9;}
	.st17{fill:#BFBFBF;}
	.st18{fill:#F9F9F9;}
	.st19{fill:#C878DB;}
	.st20{fill:#7E8DCA;}
</style>
<rect x="1.1" y="-0.2" class="st0" width="863.2" height="729.5"/>
<rect x="1.1" y="-0.2" class="st1" width="266.1" height="729.5"/>
<g>
	<g>
		<path class="st2" d="M47.6,173.4c-0.5-1.7-3.9-3.4-10-3.4s-9.5,1.7-10,3.4c0,0.1-0.1,0.1-0.1,0.2v0.2v4.6v0.2v0.2v4.4v0.2v0.2v4.8
			c0,0.1,0,0.1,0,0.2c0.5,2,4.7,3.4,10,3.4c5.2,0,9.5-1.5,10-3.4c0-0.1,0.1-0.1,0.1-0.2v-4.8v-0.2v-0.2v-4.4v-0.2v-0.2v-4.6v-0.2
			C47.7,173.5,47.7,173.5,47.6,173.4z M46.9,183.6c0,0,0,0.1,0,0.1c0,0,0,0.1-0.1,0.1c0,0-0.1,0.1-0.1,0.1c0,0-0.1,0.1-0.1,0.1
			c0,0.1-0.1,0.1-0.1,0.2c0,0-0.1,0.1-0.1,0.1c-0.1,0.1-0.1,0.1-0.2,0.2c0,0-0.1,0-0.1,0.1c-0.1,0.1-0.2,0.1-0.3,0.2
			c0,0-0.1,0-0.1,0c-0.1,0.1-0.2,0.1-0.4,0.2c0,0,0,0-0.1,0c-0.2,0.1-0.3,0.1-0.5,0.2c0,0,0,0,0,0c-0.9,0.4-2.1,0.7-3.4,0.9
			c0,0,0,0,0,0c-0.3,0-0.5,0.1-0.8,0.1c0,0-0.1,0-0.1,0c-0.2,0-0.5,0-0.7,0.1c-0.1,0-0.2,0-0.4,0c-0.2,0-0.4,0-0.6,0
			c-0.3,0-0.6,0-1,0c-0.3,0-0.7,0-1,0c-0.2,0-0.4,0-0.6,0c-0.1,0-0.2,0-0.4,0c-0.3,0-0.5,0-0.7-0.1c0,0-0.1,0-0.1,0
			c-0.3,0-0.5-0.1-0.8-0.1c0,0,0,0,0,0c-1.4-0.2-2.5-0.5-3.4-0.9c0,0,0,0,0,0c-0.2-0.1-0.3-0.1-0.5-0.2c0,0,0,0-0.1,0
			c-0.1-0.1-0.3-0.1-0.4-0.2c0,0-0.1,0-0.1,0c-0.1-0.1-0.2-0.1-0.3-0.2c0,0-0.1,0-0.1-0.1c-0.1-0.1-0.1-0.1-0.2-0.2
			c0,0-0.1-0.1-0.1-0.1c-0.1-0.1-0.1-0.1-0.1-0.2c0,0-0.1-0.1-0.1-0.1c0,0-0.1-0.1-0.1-0.1c0,0,0-0.1-0.1-0.1c0,0,0-0.1,0-0.1
			c0-0.1,0-0.1,0-0.2c0,0,0-0.1,0-0.1c0-0.1,0-0.1,0-0.2v-3c0,0,0,0,0,0c0.1,0.1,0.2,0.2,0.3,0.2c1.5,1.1,4.5,2,8.9,2
			c4.4,0,7.4-0.9,8.9-2c0.1-0.1,0.2-0.2,0.3-0.3l0,0v3c0,0.1,0,0.1,0,0.2c0,0,0,0.1,0,0.1C46.9,183.5,46.9,183.5,46.9,183.6z
			 M46.9,175.3v3c0,0.1,0,0.1,0,0.2c0,0,0,0.1,0,0.1c0,0.1,0,0.1,0,0.2c0,0,0,0.1,0,0.1c0,0,0,0.1-0.1,0.1c0,0-0.1,0.1-0.1,0.1
			c0,0-0.1,0.1-0.1,0.1c0,0.1-0.1,0.1-0.1,0.2c0,0-0.1,0.1-0.1,0.1c-0.1,0.1-0.1,0.1-0.2,0.2c0,0-0.1,0-0.1,0.1
			c-0.1,0.1-0.2,0.1-0.3,0.2c0,0-0.1,0-0.1,0c-0.1,0.1-0.2,0.1-0.4,0.2c0,0,0,0-0.1,0c-0.2,0.1-0.3,0.1-0.5,0.2c0,0,0,0,0,0
			c-0.9,0.4-2.1,0.7-3.4,0.9c0,0,0,0,0,0c-0.3,0-0.5,0.1-0.8,0.1c0,0-0.1,0-0.1,0c-0.2,0-0.5,0-0.7,0.1c-0.1,0-0.2,0-0.4,0
			c-0.2,0-0.4,0-0.6,0c-0.3,0-0.6,0-1,0c-0.3,0-0.7,0-1,0c-0.2,0-0.4,0-0.6,0c-0.1,0-0.2,0-0.4,0c-0.3,0-0.5,0-0.7-0.1
			c0,0-0.1,0-0.1,0c-0.3,0-0.5-0.1-0.8-0.1c0,0,0,0,0,0c-1.4-0.2-2.5-0.5-3.4-0.9c0,0,0,0,0,0c-0.2-0.1-0.3-0.1-0.5-0.2
			c0,0,0,0-0.1,0c-0.1-0.1-0.3-0.1-0.4-0.2c0,0-0.1,0-0.1,0c-0.1-0.1-0.2-0.1-0.3-0.2c0,0-0.1,0-0.1-0.1c-0.1-0.1-0.1-0.1-0.2-0.2
			c0,0-0.1-0.1-0.1-0.1c-0.1-0.1-0.1-0.1-0.1-0.2c0,0-0.1-0.1-0.1-0.1c0,0-0.1-0.1-0.1-0.1c0,0,0-0.1-0.1-0.1c0,0,0-0.1,0-0.1
			c0-0.1,0-0.1,0-0.2c0,0,0-0.1,0-0.1c0-0.1,0-0.1,0-0.2v-3c0,0,0.1,0.1,0.2,0.1c0,0,0.1,0,0.1,0.1c0.1,0.1,0.2,0.2,0.4,0.3
			c0,0,0.1,0,0.1,0.1c0.1,0.1,0.2,0.1,0.4,0.2c0,0,0.1,0.1,0.1,0.1c0.1,0.1,0.3,0.1,0.5,0.2c0,0,0.1,0,0.1,0
			c0.2,0.1,0.4,0.2,0.6,0.2c0.1,0,0.1,0,0.2,0.1c0.2,0.1,0.3,0.1,0.5,0.2c0.1,0,0.1,0,0.2,0.1c0.2,0.1,0.5,0.1,0.7,0.2
			c0,0,0.1,0,0.1,0c0.2,0,0.5,0.1,0.7,0.1c0.1,0,0.2,0,0.2,0c0.2,0,0.5,0.1,0.7,0.1c0.1,0,0.1,0,0.2,0c0.3,0,0.6,0.1,0.9,0.1
			c0.1,0,0.2,0,0.2,0c0.3,0,0.5,0,0.8,0c0.1,0,0.2,0,0.3,0c0.3,0,0.7,0,1.1,0s0.7,0,1.1,0c0.1,0,0.2,0,0.3,0c0.3,0,0.5,0,0.8,0
			c0.1,0,0.2,0,0.2,0c0.3,0,0.6-0.1,0.9-0.1c0.1,0,0.1,0,0.2,0c0.2,0,0.5-0.1,0.7-0.1c0.1,0,0.2,0,0.2,0c0.2,0,0.5-0.1,0.7-0.1
			c0,0,0.1,0,0.1,0c0.3-0.1,0.5-0.1,0.7-0.2c0.1,0,0.1,0,0.2-0.1c0.2-0.1,0.3-0.1,0.5-0.2c0.1,0,0.1,0,0.2-0.1
			c0.2-0.1,0.4-0.1,0.6-0.2c0,0,0.1,0,0.1,0c0.2-0.1,0.3-0.1,0.5-0.2c0.1,0,0.1-0.1,0.1-0.1c0.1-0.1,0.3-0.1,0.4-0.2
			c0,0,0.1,0,0.1-0.1c0.1-0.1,0.3-0.2,0.4-0.3c0,0,0.1,0,0.1-0.1C46.8,175.4,46.9,175.4,46.9,175.3z M37.7,170.8
			c5.4,0,9.2,1.6,9.2,3c0,1.4-3.8,3-9.2,3s-9.2-1.6-9.2-3C28.5,172.4,32.3,170.8,37.7,170.8z M46.9,188.3
			C46.9,188.3,46.9,188.3,46.9,188.3c-0.2,1.4-4,2.9-9.2,2.9s-9-1.5-9.2-2.9c0,0,0,0,0-0.1v-3.4c0,0,0,0,0,0
			c0.1,0.1,0.2,0.2,0.3,0.2c1.5,1.1,4.5,2,8.9,2c4.4,0,7.4-0.9,8.9-2c0.1-0.1,0.2-0.2,0.3-0.3l0,0V188.3z"/>
	</g>
</g>
<path class="st3" d="M46.8,132.1l-6.2-6.2c-1.6-1.6-4.2-1.6-5.8,0l-6.2,6.2c-0.5,0.5-0.7,1.1-0.7,1.7v8c0,1.4,1.1,2.4,2.4,2.4h14.7
	c1.4,0,2.4-1.1,2.4-2.4v-8C47.5,133.2,47.3,132.6,46.8,132.1z M40.2,142.7h-4.9v-3.2c0-1.4,1.1-2.4,2.4-2.4c1.4,0,2.4,1.1,2.4,2.4
	V142.7z M45.9,141.9c0,0.5-0.4,0.8-0.8,0.8h-3.3v-3.2c0-2.3-1.8-4.1-4.1-4.1c-2.3,0-4.1,1.8-4.1,4.1v3.2h-3.3
	c-0.5,0-0.8-0.4-0.8-0.8v-8c0-0.2,0.1-0.4,0.2-0.6l6.2-6.2c1-1,2.5-1,3.5,0l6.2,6.2c0.2,0.2,0.2,0.4,0.2,0.6V141.9z"/>
<g>
	<path class="st3" d="M51.3,690.8l-2.3-2.3c-0.2-0.2-0.6-0.2-0.8,0c-0.2,0.2-0.2,0.6,0,0.8l2.3,2.3c0.1,0.1,0.1,0.1,0.2,0.2
		c0,0,0,0,0,0l0,0l-9.2,0c-0.3,0-0.6,0.3-0.6,0.6s0.3,0.6,0.6,0.6l0,0l9.2,0c0,0,0,0,0,0c-0.1,0.1-0.1,0.2-0.2,0.3l-2.3,2.3
		c-0.2,0.2-0.2,0.6,0,0.8c0.2,0.2,0.6,0.2,0.8,0c0,0,0,0,0,0l2.3-2.3C52.2,693.2,52.2,691.7,51.3,690.8L51.3,690.8z"/>
	<path class="st3" d="M42,698.3h-1.2c-1,0-1.8-0.8-1.8-1.8v-8.2c0-1,0.8-1.8,1.8-1.8H42c0.3,0,0.6-0.3,0.6-0.6s-0.3-0.6-0.6-0.6
		h-1.2c-1.6,0-2.9,1.3-2.9,2.9v8.2c0,1.6,1.3,2.9,2.9,2.9H42c0.3,0,0.6-0.3,0.6-0.6S42.4,698.3,42,698.3z"/>
</g>
<g>
	<path class="st3" d="M67.9,696.5l0.5-1.2c0.8,0.7,2.1,1.2,3.4,1.2c1.8,0,2.6-0.7,2.6-1.6c0-2.5-6.3-0.9-6.3-4.8c0-1.6,1.2-3,4-3
		c1.2,0,2.5,0.3,3.3,0.9l-0.5,1.2c-0.9-0.6-1.9-0.8-2.9-0.8c-1.8,0-2.5,0.7-2.5,1.6c0,2.5,6.3,1,6.3,4.8c0,1.6-1.3,3-4,3
		C70.3,697.8,68.8,697.3,67.9,696.5z"/>
	<path class="st3" d="M84.2,692.9v4.8h-1.4v-1c-0.5,0.7-1.4,1.1-2.6,1.1c-1.8,0-2.9-1-2.9-2.3c0-1.3,0.8-2.3,3.2-2.3h2.3v-0.3
		c0-1.2-0.7-1.9-2.1-1.9c-0.9,0-1.9,0.3-2.5,0.8l-0.6-1.1c0.8-0.7,2-1,3.3-1C82.9,689.7,84.2,690.8,84.2,692.9z M82.7,695.3v-1.1
		h-2.2c-1.4,0-1.8,0.5-1.8,1.2c0,0.8,0.7,1.3,1.7,1.3C81.5,696.7,82.4,696.2,82.7,695.3z"/>
	<path class="st3" d="M86.5,687.4c0-0.5,0.4-0.9,1-0.9s1,0.4,1,0.9c0,0.5-0.4,1-1,1C87,688.3,86.5,687.9,86.5,687.4z M86.8,689.8
		h1.4v7.9h-1.4V689.8z"/>
	<path class="st3" d="M95.2,689.7v1.4c-0.1,0-0.2,0-0.3,0c-1.5,0-2.5,0.9-2.5,2.7v3.9h-1.4v-7.9h1.4v1.3
		C92.8,690.2,93.8,689.7,95.2,689.7z"/>
</g>
<g>
	<path class="st3" d="M64,135.9c0-3,2.3-5.3,5.5-5.3c3.2,0,5.5,2.3,5.5,5.3s-2.3,5.3-5.5,5.3C66.3,141.2,64,139,64,135.9z
		 M73.6,135.9c0-2.3-1.7-4-4-4c-2.3,0-4.1,1.7-4.1,4s1.7,4,4.1,4C71.8,139.9,73.6,138.2,73.6,135.9z"/>
	<path class="st3" d="M84.1,133.2l-3.4,7.9h-1.5l-3.4-7.9h1.5l2.7,6.3l2.8-6.3H84.1z"/>
	<path class="st3" d="M92.3,137.6h-6.4c0.2,1.4,1.3,2.3,2.9,2.3c0.9,0,1.7-0.3,2.3-1l0.8,0.9c-0.7,0.8-1.8,1.3-3.1,1.3
		c-2.5,0-4.2-1.7-4.2-4c0-2.3,1.7-4,4-4s3.9,1.6,3.9,4.1C92.3,137.3,92.3,137.5,92.3,137.6z M85.9,136.6H91
		c-0.1-1.3-1.1-2.3-2.5-2.3C87.1,134.4,86,135.3,85.9,136.6z"/>
	<path class="st3" d="M98.5,133.2v1.4c-0.1,0-0.2,0-0.3,0c-1.5,0-2.5,0.9-2.5,2.7v3.9h-1.4v-7.9h1.4v1.3
		C96.2,133.6,97.1,133.2,98.5,133.2z"/>
	<path class="st3" d="M107.6,133.2l-3.4,7.9h-1.5l-3.4-7.9h1.5l2.7,6.3l2.8-6.3H107.6z"/>
	<path class="st3" d="M108.7,130.8c0-0.5,0.4-0.9,1-0.9s1,0.4,1,0.9c0,0.5-0.4,1-1,1C109.1,131.7,108.7,131.3,108.7,130.8z
		 M108.9,133.2h1.4v7.9h-1.4V133.2z"/>
	<path class="st3" d="M120.2,137.6h-6.4c0.2,1.4,1.3,2.3,2.9,2.3c0.9,0,1.7-0.3,2.3-1l0.8,0.9c-0.7,0.8-1.8,1.3-3.1,1.3
		c-2.5,0-4.2-1.7-4.2-4c0-2.3,1.7-4,4-4s3.9,1.6,3.9,4.1C120.2,137.3,120.2,137.5,120.2,137.6z M113.8,136.6h5.1
		c-0.1-1.3-1.1-2.3-2.5-2.3C114.9,134.4,113.9,135.3,113.8,136.6z"/>
	<path class="st3" d="M133.9,133.2l-2.9,7.9h-1.4l-2.3-6l-2.3,6h-1.4l-2.9-7.9h1.4l2.3,6.3l2.4-6.3h1.2l2.3,6.3l2.3-6.3H133.9z"/>
</g>
<rect x="507" y="51.1" class="st4" width="357.3" height="219.5"/>
<g>
	<g>
		<path class="st5" d="M551.1,297.8c-0.5,0.6-1.1,0.9-1.9,0.9c-1,0-1.7-0.4-2.8-1.5c-2.2-0.1-3.7-1.7-3.7-3.9c0-2.2,1.7-3.9,4-3.9
			c2.3,0,4,1.6,4,3.9c0,1.9-1.2,3.3-3,3.7c0.5,0.5,1,0.8,1.4,0.8c0.5,0,1-0.2,1.4-0.6L551.1,297.8z M546.7,296.3
			c1.7,0,2.9-1.2,2.9-2.9c0-1.7-1.3-2.9-2.9-2.9c-1.7,0-2.9,1.2-2.9,2.9C543.8,295,545,296.3,546.7,296.3z"/>
		<path class="st5" d="M557.6,291.4v5.7h-1v-0.9c-0.4,0.6-1.1,0.9-1.9,0.9c-1.5,0-2.5-0.8-2.5-2.5v-3.3h1v3.2c0,1.1,0.6,1.7,1.5,1.7
			c1.1,0,1.8-0.7,1.8-1.9v-3H557.6z"/>
		<path class="st5" d="M564.7,294.6h-4.6c0.1,1,0.9,1.7,2.1,1.7c0.7,0,1.2-0.2,1.7-0.7l0.6,0.7c-0.5,0.6-1.3,0.9-2.3,0.9
			c-1.8,0-3.1-1.2-3.1-2.9c0-1.7,1.2-2.9,2.9-2.9c1.7,0,2.8,1.2,2.8,2.9C564.7,294.4,564.7,294.5,564.7,294.6z M560.1,293.9h3.7
			c-0.1-1-0.8-1.6-1.8-1.6C560.9,292.2,560.2,292.9,560.1,293.9z"/>
		<path class="st5" d="M569.3,291.4v1c-0.1,0-0.2,0-0.2,0c-1.1,0-1.8,0.7-1.8,1.9v2.9h-1v-5.7h1v1
			C567.5,291.7,568.3,291.4,569.3,291.4z"/>
		<path class="st5" d="M575.8,291.4l-2.8,6.3c-0.5,1.2-1.2,1.6-2,1.6c-0.6,0-1.1-0.2-1.5-0.5l0.4-0.8c0.3,0.3,0.6,0.4,1,0.4
			c0.5,0,0.8-0.2,1.1-0.9l0.2-0.4l-2.5-5.7h1.1l2,4.6l2-4.6H575.8z"/>
		<path class="st5" d="M582.8,291.4v1c-0.1,0-0.2,0-0.2,0c-1.1,0-1.8,0.7-1.8,1.9v2.9h-1v-5.7h1v1
			C581.1,291.7,581.8,291.4,582.8,291.4z"/>
		<path class="st5" d="M589.2,294.6h-4.6c0.1,1,0.9,1.7,2.1,1.7c0.7,0,1.2-0.2,1.7-0.7l0.6,0.7c-0.5,0.6-1.3,0.9-2.3,0.9
			c-1.8,0-3.1-1.2-3.1-2.9c0-1.7,1.2-2.9,2.9-2.9c1.7,0,2.8,1.2,2.8,2.9C589.2,294.4,589.2,294.5,589.2,294.6z M584.5,293.9h3.7
			c-0.1-1-0.8-1.6-1.8-1.6C585.4,292.2,584.6,292.9,584.5,293.9z"/>
		<path class="st5" d="M589.9,296.5l0.4-0.8c0.5,0.3,1.3,0.6,2,0.6c1,0,1.4-0.3,1.4-0.8c0-1.3-3.6-0.2-3.6-2.5c0-1,0.9-1.7,2.4-1.7
			c0.7,0,1.6,0.2,2.1,0.5l-0.4,0.8c-0.5-0.3-1.1-0.5-1.7-0.5c-0.9,0-1.3,0.3-1.3,0.8c0,1.4,3.6,0.2,3.6,2.5c0,1-1,1.7-2.5,1.7
			C591.3,297.2,590.4,296.9,589.9,296.5z"/>
		<path class="st5" d="M601.4,291.4v5.7h-1v-0.9c-0.4,0.6-1.1,0.9-1.9,0.9c-1.5,0-2.5-0.8-2.5-2.5v-3.3h1v3.2c0,1.1,0.6,1.7,1.5,1.7
			c1.1,0,1.8-0.7,1.8-1.9v-3H601.4z"/>
		<path class="st5" d="M603.4,289.1h1v8h-1V289.1z"/>
		<path class="st5" d="M609.7,296.8c-0.3,0.3-0.8,0.4-1.3,0.4c-1.2,0-1.8-0.6-1.8-1.8v-3.1h-1v-0.9h1v-1.3h1v1.3h1.6v0.9h-1.6v3.1
			c0,0.6,0.3,1,0.9,1c0.3,0,0.6-0.1,0.8-0.3L609.7,296.8z"/>
	</g>
</g>
<g>
	<path class="st0" d="M75.2,186.4l0-7.6l-3.8,6.3h-0.7l-3.8-6.3v7.5h-1.4V176h1.2l4.3,7.3l4.3-7.3h1.2l0,10.4H75.2z"/>
	<path class="st0" d="M78.8,182.4c0-2.3,1.7-4,4.1-4c2.4,0,4.1,1.7,4.1,4s-1.7,4-4.1,4C80.5,186.5,78.8,184.8,78.8,182.4z
		 M85.5,182.4c0-1.7-1.1-2.8-2.6-2.8s-2.7,1.1-2.7,2.8c0,1.7,1.1,2.8,2.7,2.8S85.5,184.1,85.5,182.4z"/>
	<path class="st0" d="M96.4,175.3v11H95v-1.2c-0.6,0.9-1.6,1.3-2.8,1.3c-2.3,0-4-1.6-4-4s1.7-4,4-4c1.1,0,2.1,0.4,2.7,1.3v-4.3H96.4
		z M95,182.4c0-1.7-1.1-2.8-2.6-2.8c-1.5,0-2.7,1.1-2.7,2.8c0,1.7,1.1,2.8,2.7,2.8C93.8,185.2,95,184.1,95,182.4z"/>
	<path class="st0" d="M106.2,182.9h-6.4c0.2,1.4,1.3,2.3,2.9,2.3c0.9,0,1.7-0.3,2.3-1l0.8,0.9c-0.7,0.8-1.8,1.3-3.1,1.3
		c-2.5,0-4.2-1.7-4.2-4c0-2.3,1.7-4,4-4s3.9,1.6,3.9,4.1C106.2,182.6,106.2,182.8,106.2,182.9z M99.8,181.9h5.1
		c-0.1-1.3-1.1-2.3-2.5-2.3C100.9,179.6,99.9,180.5,99.8,181.9z"/>
	<path class="st0" d="M108.2,175.3h1.4v11h-1.4V175.3z"/>
	<path class="st0" d="M118.6,181.6v4.8h-1.4v-1c-0.5,0.7-1.4,1.1-2.6,1.1c-1.8,0-2.9-1-2.9-2.3c0-1.3,0.8-2.3,3.2-2.3h2.3v-0.3
		c0-1.2-0.7-1.9-2.1-1.9c-0.9,0-1.9,0.3-2.5,0.8l-0.6-1.1c0.8-0.7,2-1,3.3-1C117.3,178.4,118.6,179.5,118.6,181.6z M117.1,184v-1.1
		h-2.2c-1.4,0-1.8,0.5-1.8,1.2c0,0.8,0.7,1.3,1.7,1.3C115.9,185.4,116.8,184.9,117.1,184z"/>
	<path class="st0" d="M128.8,178.5v6.8c0,2.8-1.4,4-4.1,4c-1.4,0-2.9-0.4-3.8-1.2l0.7-1.1c0.7,0.6,1.9,1,3,1c1.9,0,2.7-0.9,2.7-2.6
		v-0.6c-0.7,0.8-1.7,1.2-2.8,1.2c-2.3,0-4-1.5-4-3.8s1.7-3.8,4-3.8c1.2,0,2.2,0.4,2.9,1.3v-1.2H128.8z M127.4,182.2
		c0-1.5-1.1-2.6-2.7-2.6c-1.6,0-2.7,1-2.7,2.6c0,1.5,1.1,2.6,2.7,2.6C126.3,184.8,127.4,183.7,127.4,182.2z"/>
	<path class="st0" d="M138.6,182.9h-6.4c0.2,1.4,1.3,2.3,2.9,2.3c0.9,0,1.7-0.3,2.3-1l0.8,0.9c-0.7,0.8-1.8,1.3-3.1,1.3
		c-2.5,0-4.2-1.7-4.2-4c0-2.3,1.7-4,4-4s3.9,1.6,3.9,4.1C138.6,182.6,138.6,182.8,138.6,182.9z M132.2,181.9h5.1
		c-0.1-1.3-1.1-2.3-2.5-2.3C133.4,179.6,132.3,180.5,132.2,181.9z"/>
	<path class="st0" d="M153.7,181.8v4.5h-1.4V182c0-1.5-0.7-2.3-2-2.3c-1.4,0-2.4,0.9-2.4,2.6v4.1h-1.4V182c0-1.5-0.7-2.3-2-2.3
		c-1.4,0-2.4,0.9-2.4,2.6v4.1h-1.4v-7.9h1.4v1.2c0.6-0.8,1.5-1.2,2.7-1.2c1.2,0,2.2,0.5,2.7,1.5c0.6-0.9,1.7-1.5,3-1.5
		C152.4,178.4,153.7,179.5,153.7,181.8z"/>
</g>
<g>
	<path class="st3" d="M72.1,231h-5.5l-1.1,2.6h-1.5l4.7-10.4h1.5l4.7,10.4h-1.6L72.1,231z M71.6,229.9l-2.2-5.1l-2.2,5.1H71.6z"/>
	<path class="st3" d="M73.5,236.1l0.5-1.1c0.3,0.2,0.7,0.4,1.2,0.4c0.8,0,1.2-0.5,1.2-1.4v-8.3h1.4v8.2c0,1.6-0.9,2.6-2.5,2.6
		C74.5,236.6,73.9,236.5,73.5,236.1z M76,223.3c0-0.5,0.4-0.9,1-0.9s1,0.4,1,0.9c0,0.5-0.4,1-1,1C76.4,224.3,76,223.9,76,223.3z"/>
	<path class="st3" d="M87.8,225.8v7.9h-1.4v-1.2c-0.6,0.8-1.6,1.3-2.7,1.3c-2,0-3.4-1.1-3.4-3.4v-4.5h1.4v4.4c0,1.5,0.8,2.3,2.1,2.3
		c1.5,0,2.4-0.9,2.4-2.6v-4.1H87.8z"/>
	<path class="st3" d="M89.5,232.8l0.6-1.1c0.7,0.5,1.7,0.8,2.8,0.8c1.3,0,1.9-0.4,1.9-1.1c0-1.8-5-0.2-5-3.4c0-1.4,1.3-2.4,3.3-2.4
		c1,0,2.2,0.3,2.9,0.7l-0.6,1.1c-0.7-0.5-1.5-0.6-2.3-0.6c-1.2,0-1.9,0.5-1.9,1.1c0,1.9,5,0.3,5,3.4c0,1.4-1.3,2.3-3.4,2.3
		C91.4,233.7,90.1,233.3,89.5,232.8z"/>
	<path class="st3" d="M102.3,233.2c-0.4,0.4-1.1,0.6-1.7,0.6c-1.6,0-2.5-0.9-2.5-2.5v-4.3h-1.3v-1.2h1.3V224h1.4v1.7h2.3v1.2h-2.3
		v4.3c0,0.8,0.4,1.3,1.2,1.3c0.4,0,0.8-0.1,1.1-0.4L102.3,233.2z"/>
	<path class="st3" d="M110.9,230.2h-6.4c0.2,1.4,1.3,2.3,2.9,2.3c0.9,0,1.7-0.3,2.3-1l0.8,0.9c-0.7,0.8-1.8,1.3-3.1,1.3
		c-2.5,0-4.2-1.7-4.2-4c0-2.3,1.7-4,4-4s3.9,1.6,3.9,4.1C110.9,229.9,110.9,230,110.9,230.2z M104.5,229.2h5.1
		c-0.1-1.3-1.1-2.3-2.5-2.3C105.7,226.9,104.6,227.8,104.5,229.2z"/>
	<path class="st3" d="M111.9,232.8l0.6-1.1c0.7,0.5,1.7,0.8,2.8,0.8c1.3,0,1.9-0.4,1.9-1.1c0-1.8-5-0.2-5-3.4c0-1.4,1.3-2.4,3.3-2.4
		c1,0,2.2,0.3,2.9,0.7l-0.6,1.1c-0.7-0.5-1.5-0.6-2.3-0.6c-1.2,0-1.9,0.5-1.9,1.1c0,1.9,5,0.3,5,3.4c0,1.4-1.3,2.3-3.4,2.3
		C113.8,233.7,112.6,233.3,111.9,232.8z"/>
</g>
<g>
	<path class="st3" d="M66.9,273.2h4.4c3.3,0,5.6,2.1,5.6,5.2s-2.3,5.2-5.6,5.2h-4.4V273.2z M71.2,282.3c2.6,0,4.2-1.6,4.2-3.9
		s-1.6-3.9-4.2-3.9h-2.8v7.8H71.2z"/>
	<path class="st3" d="M78.2,279.7c0-2.3,1.7-4,4.1-4c2.4,0,4.1,1.7,4.1,4s-1.7,4-4.1,4C79.9,283.7,78.2,282,78.2,279.7z M85,279.7
		c0-1.7-1.1-2.8-2.6-2.8s-2.7,1.1-2.7,2.8c0,1.7,1.1,2.8,2.7,2.8S85,281.4,85,279.7z"/>
	<path class="st3" d="M87.6,279.7c0-2.3,1.7-4,4.2-4c1.4,0,2.6,0.6,3.2,1.7l-1.1,0.7c-0.5-0.8-1.3-1.1-2.1-1.1
		c-1.5,0-2.7,1.1-2.7,2.8c0,1.7,1.2,2.8,2.7,2.8c0.9,0,1.6-0.4,2.1-1.1L95,282c-0.6,1.1-1.8,1.7-3.2,1.7
		C89.4,283.7,87.6,282,87.6,279.7z"/>
	<path class="st3" d="M104.2,275.8v7.9h-1.4v-1.2c-0.6,0.8-1.6,1.3-2.7,1.3c-2,0-3.4-1.1-3.4-3.4v-4.5h1.4v4.4
		c0,1.5,0.8,2.3,2.1,2.3c1.5,0,2.4-0.9,2.4-2.6v-4.1H104.2z"/>
	<path class="st3" d="M120,279.1v4.5h-1.4v-4.4c0-1.5-0.7-2.3-2-2.3c-1.4,0-2.4,0.9-2.4,2.6v4.1h-1.4v-4.4c0-1.5-0.7-2.3-2-2.3
		c-1.4,0-2.4,0.9-2.4,2.6v4.1h-1.4v-7.9h1.4v1.2c0.6-0.8,1.5-1.2,2.7-1.2c1.2,0,2.2,0.5,2.7,1.5c0.6-0.9,1.7-1.5,3-1.5
		C118.7,275.7,120,276.8,120,279.1z"/>
	<path class="st3" d="M129.8,280.2h-6.4c0.2,1.4,1.3,2.3,2.9,2.3c0.9,0,1.7-0.3,2.3-1l0.8,0.9c-0.7,0.8-1.8,1.3-3.1,1.3
		c-2.5,0-4.2-1.7-4.2-4c0-2.3,1.7-4,4-4c2.3,0,3.9,1.6,3.9,4.1C129.8,279.9,129.8,280,129.8,280.2z M123.4,279.1h5.1
		c-0.1-1.3-1.1-2.3-2.5-2.3C124.5,276.9,123.5,277.8,123.4,279.1z"/>
	<path class="st3" d="M139.2,279.1v4.5h-1.4v-4.4c0-1.5-0.8-2.3-2.1-2.3c-1.5,0-2.5,0.9-2.5,2.6v4.1h-1.4v-7.9h1.4v1.2
		c0.6-0.8,1.6-1.3,2.8-1.3C137.9,275.7,139.2,276.8,139.2,279.1z"/>
	<path class="st3" d="M146.3,283.2c-0.4,0.4-1.1,0.6-1.7,0.6c-1.6,0-2.5-0.9-2.5-2.5v-4.3h-1.3v-1.2h1.3V274h1.4v1.7h2.3v1.2h-2.3
		v4.3c0,0.8,0.4,1.3,1.2,1.3c0.4,0,0.8-0.1,1.1-0.4L146.3,283.2z"/>
	<path class="st3" d="M154.3,278.9v4.8h-1.4v-1c-0.5,0.7-1.4,1.1-2.6,1.1c-1.8,0-2.9-1-2.9-2.3c0-1.3,0.8-2.3,3.2-2.3h2.3v-0.3
		c0-1.2-0.7-1.9-2.1-1.9c-0.9,0-1.9,0.3-2.5,0.8l-0.6-1.1c0.8-0.7,2-1,3.3-1C153.1,275.7,154.3,276.7,154.3,278.9z M152.9,281.2
		v-1.1h-2.2c-1.4,0-1.8,0.5-1.8,1.2c0,0.8,0.7,1.3,1.7,1.3C151.6,282.6,152.5,282.1,152.9,281.2z"/>
	<path class="st3" d="M162.5,281.3l1.1,0.7c-0.6,1.1-1.8,1.7-3.2,1.7l-0.2,0.7c0.9,0.1,1.3,0.6,1.3,1.2c0,0.8-0.7,1.4-1.8,1.4
		c-0.5,0-1-0.1-1.3-0.3l0.3-0.7c0.3,0.2,0.6,0.3,1,0.3c0.6,0,0.8-0.2,0.8-0.6c0-0.3-0.3-0.6-0.8-0.6h-0.4l0.3-1.3
		c-2-0.3-3.4-1.9-3.4-4c0-2.3,1.7-4,4.2-4c1.4,0,2.6,0.6,3.2,1.7l-1.1,0.7c-0.5-0.8-1.3-1.1-2.1-1.1c-1.5,0-2.7,1.1-2.7,2.8
		c0,1.7,1.2,2.8,2.7,2.8C161.2,282.5,162,282.1,162.5,281.3z"/>
	<path class="st3" d="M171.7,278.9v4.8h-1.4v-1c-0.5,0.7-1.4,1.1-2.6,1.1c-1.8,0-2.9-1-2.9-2.3c0-1.3,0.8-2.3,3.2-2.3h2.3v-0.3
		c0-1.2-0.7-1.9-2.1-1.9c-0.9,0-1.9,0.3-2.5,0.8l-0.6-1.1c0.8-0.7,2-1,3.3-1C170.5,275.7,171.7,276.7,171.7,278.9z M166.7,274.5
		h-0.8c0-1.1,0.6-1.8,1.5-1.8c1,0,1.4,1,2,1c0.4,0,0.7-0.3,0.8-0.9h0.8c0,1.1-0.6,1.8-1.5,1.8c-1,0-1.4-1-2-1
		C167.1,273.6,166.8,273.9,166.7,274.5z M170.3,281.2v-1.1h-2.2c-1.4,0-1.8,0.5-1.8,1.2c0,0.8,0.7,1.3,1.7,1.3
		C169.1,282.6,169.9,282.1,170.3,281.2z"/>
	<path class="st3" d="M173.7,279.7c0-2.3,1.7-4,4.1-4c2.4,0,4.1,1.7,4.1,4s-1.7,4-4.1,4C175.4,283.7,173.7,282,173.7,279.7z
		 M180.4,279.7c0-1.7-1.1-2.8-2.6-2.8s-2.7,1.1-2.7,2.8c0,1.7,1.1,2.8,2.7,2.8S180.4,281.4,180.4,279.7z"/>
</g>
<path class="st6" d="M234.2,65H34.1c-4.2,0-7.7,3.4-7.7,7.7v21.1c0,4.2,3.4,7.7,7.7,7.7h200.1c4.2,0,7.7-3.4,7.7-7.7V72.7
	C241.9,68.4,238.5,65,234.2,65z"/>
<g>
	<path class="st3" d="M63.9,82.9c0-2.2,1.7-3.9,4-3.9c1.2,0,2.2,0.4,2.9,1.2l-0.7,0.7C69.5,80.3,68.8,80,68,80c-1.7,0-3,1.2-3,2.9
		c0,1.7,1.3,2.9,3,2.9c0.8,0,1.5-0.3,2.1-0.9l0.7,0.7c-0.7,0.8-1.7,1.2-2.9,1.2C65.7,86.8,63.9,85.2,63.9,82.9z"/>
	<path class="st3" d="M71.5,83.8c0-1.7,1.3-2.9,3-2.9s3,1.2,3,2.9s-1.3,2.9-3,2.9S71.5,85.5,71.5,83.8z M76.4,83.8
		c0-1.2-0.8-2-1.9-2c-1.1,0-1.9,0.8-1.9,2s0.8,2,1.9,2C75.5,85.9,76.4,85.1,76.4,83.8z"/>
	<path class="st3" d="M84.3,83.4v3.3h-1v-3.2c0-1.1-0.6-1.7-1.5-1.7c-1.1,0-1.8,0.7-1.8,1.9v2.9h-1V81h1v0.9
		c0.4-0.6,1.2-0.9,2.1-0.9C83.3,80.9,84.3,81.7,84.3,83.4z"/>
	<path class="st3" d="M91.4,84.2h-4.6c0.1,1,0.9,1.7,2.1,1.7c0.7,0,1.2-0.2,1.7-0.7l0.6,0.7c-0.5,0.6-1.3,0.9-2.3,0.9
		c-1.8,0-3.1-1.2-3.1-2.9c0-1.7,1.2-2.9,2.9-2.9c1.7,0,2.8,1.2,2.8,2.9C91.4,84,91.4,84.1,91.4,84.2z M86.8,83.4h3.7
		c-0.1-1-0.8-1.6-1.8-1.6C87.6,81.8,86.9,82.5,86.8,83.4z"/>
	<path class="st3" d="M92.3,83.8c0-1.7,1.3-2.9,3-2.9c1,0,1.9,0.4,2.3,1.2l-0.8,0.5c-0.4-0.6-0.9-0.8-1.6-0.8c-1.1,0-2,0.8-2,2
		c0,1.2,0.8,2,2,2c0.6,0,1.2-0.3,1.6-0.8l0.8,0.5c-0.5,0.8-1.3,1.2-2.3,1.2C93.6,86.8,92.3,85.5,92.3,83.8z"/>
	<path class="st3" d="M102.3,86.4c-0.3,0.3-0.8,0.4-1.3,0.4c-1.2,0-1.8-0.6-1.8-1.8v-3.1h-1V81h1v-1.3h1V81h1.6v0.9h-1.6v3.1
		c0,0.6,0.3,1,0.9,1c0.3,0,0.6-0.1,0.8-0.3L102.3,86.4z"/>
	<path class="st3" d="M108.1,83.2v3.5h-1v-0.8c-0.3,0.5-1,0.8-1.9,0.8c-1.3,0-2.1-0.7-2.1-1.7c0-0.9,0.6-1.7,2.3-1.7h1.6v-0.2
		c0-0.9-0.5-1.4-1.5-1.4c-0.7,0-1.4,0.2-1.8,0.6l-0.4-0.8c0.6-0.5,1.4-0.7,2.4-0.7C107.2,80.9,108.1,81.7,108.1,83.2z M107.1,85
		v-0.8h-1.6c-1,0-1.3,0.4-1.3,0.9c0,0.6,0.5,0.9,1.3,0.9C106.2,86,106.8,85.6,107.1,85z"/>
	<path class="st3" d="M113.1,80.9v1c-0.1,0-0.2,0-0.2,0c-1.1,0-1.8,0.7-1.8,1.9v2.9h-1V81h1v1C111.4,81.3,112.1,80.9,113.1,80.9z"/>
	<path class="st3" d="M124,84.7c0,1.3-1,2-2.9,2h-3.6v-7.6h3.4c1.7,0,2.7,0.7,2.7,2c0,0.8-0.4,1.4-1,1.7C123.5,83,124,83.7,124,84.7
		z M118.6,80v2.4h2.2c1.1,0,1.7-0.4,1.7-1.2c0-0.8-0.6-1.2-1.7-1.2H118.6z M122.9,84.6c0-0.9-0.6-1.3-1.8-1.3h-2.5v2.5h2.5
		C122.3,85.8,122.9,85.5,122.9,84.6z"/>
	<path class="st3" d="M130.1,83.2v3.5h-1v-0.8c-0.3,0.5-1,0.8-1.9,0.8c-1.3,0-2.1-0.7-2.1-1.7c0-0.9,0.6-1.7,2.3-1.7h1.6v-0.2
		c0-0.9-0.5-1.4-1.5-1.4c-0.7,0-1.4,0.2-1.8,0.6l-0.4-0.8c0.6-0.5,1.4-0.7,2.4-0.7C129.2,80.9,130.1,81.7,130.1,83.2z M129.1,85
		v-0.8h-1.6c-1,0-1.3,0.4-1.3,0.9c0,0.6,0.5,0.9,1.3,0.9C128.2,86,128.8,85.6,129.1,85z"/>
	<path class="st3" d="M137.5,83.4v3.3h-1v-3.2c0-1.1-0.6-1.7-1.5-1.7c-1.1,0-1.8,0.7-1.8,1.9v2.9h-1V81h1v0.9
		c0.4-0.6,1.2-0.9,2.1-0.9C136.5,80.9,137.5,81.7,137.5,83.4z"/>
	<path class="st3" d="M138.9,83.8c0-1.7,1.3-2.9,3-2.9c1,0,1.9,0.4,2.3,1.2l-0.8,0.5c-0.4-0.6-0.9-0.8-1.6-0.8c-1.1,0-2,0.8-2,2
		c0,1.2,0.8,2,2,2c0.6,0,1.2-0.3,1.6-0.8l0.8,0.5c-0.5,0.8-1.3,1.2-2.3,1.2C140.1,86.8,138.9,85.5,138.9,83.8z"/>
	<path class="st3" d="M145,83.8c0-1.7,1.3-2.9,3-2.9s3,1.2,3,2.9s-1.3,2.9-3,2.9S145,85.5,145,83.8z M149.9,83.8c0-1.2-0.8-2-1.9-2
		c-1.1,0-1.9,0.8-1.9,2s0.8,2,1.9,2C149.1,85.9,149.9,85.1,149.9,83.8z"/>
	<path class="st3" d="M160.7,78.7v8h-1v-0.9c-0.5,0.6-1.2,1-2,1c-1.7,0-2.9-1.2-2.9-2.9s1.2-2.9,2.9-2.9c0.8,0,1.5,0.3,2,0.9v-3.2
		H160.7z M159.6,83.8c0-1.2-0.8-2-1.9-2c-1.1,0-1.9,0.8-1.9,2s0.8,2,1.9,2C158.8,85.9,159.6,85.1,159.6,83.8z"/>
	<path class="st3" d="M167.8,84.2h-4.6c0.1,1,0.9,1.7,2.1,1.7c0.7,0,1.2-0.2,1.7-0.7l0.6,0.7c-0.5,0.6-1.3,0.9-2.3,0.9
		c-1.8,0-3.1-1.2-3.1-2.9c0-1.7,1.2-2.9,2.9-2.9c1.7,0,2.8,1.2,2.8,2.9C167.8,84,167.8,84.1,167.8,84.2z M163.1,83.4h3.7
		c-0.1-1-0.8-1.6-1.8-1.6C164,81.8,163.3,82.5,163.1,83.4z"/>
	<path class="st3" d="M177.6,78.7v8h-1v-0.9c-0.5,0.6-1.2,1-2,1c-1.7,0-2.9-1.2-2.9-2.9s1.2-2.9,2.9-2.9c0.8,0,1.5,0.3,2,0.9v-3.2
		H177.6z M176.5,83.8c0-1.2-0.8-2-1.9-2c-1.1,0-1.9,0.8-1.9,2s0.8,2,1.9,2C175.7,85.9,176.5,85.1,176.5,83.8z"/>
	<path class="st3" d="M184.1,83.2v3.5h-1v-0.8c-0.3,0.5-1,0.8-1.9,0.8c-1.3,0-2.1-0.7-2.1-1.7c0-0.9,0.6-1.7,2.3-1.7h1.6v-0.2
		c0-0.9-0.5-1.4-1.5-1.4c-0.7,0-1.4,0.2-1.8,0.6l-0.4-0.8c0.6-0.5,1.4-0.7,2.4-0.7C183.2,80.9,184.1,81.7,184.1,83.2z M183,85v-0.8
		h-1.6c-1,0-1.3,0.4-1.3,0.9c0,0.6,0.5,0.9,1.3,0.9C182.2,86,182.8,85.6,183,85z"/>
	<path class="st3" d="M191.4,78.7v8h-1v-0.9c-0.5,0.6-1.2,1-2,1c-1.7,0-2.9-1.2-2.9-2.9s1.2-2.9,2.9-2.9c0.8,0,1.5,0.3,2,0.9v-3.2
		H191.4z M190.4,83.8c0-1.2-0.8-2-1.9-2c-1.1,0-1.9,0.8-1.9,2s0.8,2,1.9,2C189.6,85.9,190.4,85.1,190.4,83.8z"/>
	<path class="st3" d="M192.9,83.8c0-1.7,1.3-2.9,3-2.9s3,1.2,3,2.9s-1.3,2.9-3,2.9S192.9,85.5,192.9,83.8z M197.8,83.8
		c0-1.2-0.8-2-1.9-2s-1.9,0.8-1.9,2s0.8,2,1.9,2S197.8,85.1,197.8,83.8z"/>
	<path class="st3" d="M199.5,86.1l0.4-0.8c0.5,0.3,1.3,0.6,2,0.6c1,0,1.4-0.3,1.4-0.8c0-1.3-3.6-0.2-3.6-2.5c0-1,0.9-1.7,2.4-1.7
		c0.7,0,1.6,0.2,2.1,0.5l-0.4,0.8c-0.5-0.3-1.1-0.5-1.7-0.5c-0.9,0-1.4,0.3-1.4,0.8c0,1.4,3.6,0.2,3.6,2.5c0,1-1,1.7-2.5,1.7
		C201,86.8,200,86.5,199.5,86.1z"/>
</g>
<path class="st6" d="M102.5,674.2H34.1c-4.2,0-7.7,3.4-7.7,7.7V703c0,4.2,3.4,7.7,7.7,7.7h68.4c4.2,0,7.7-3.4,7.7-7.7v-21.1
	C110.2,677.7,106.7,674.2,102.5,674.2z"/>
<g>
	<path class="st3" d="M41.6,239.1h-7.2c-1,0-2.1-0.6-2.5-1.5l-3.6-6.3c-0.5-0.8-0.5-2.1,0-2.9l3.6-6.3c0.5-0.8,1.6-1.5,2.5-1.5h7.2
		c1,0,2.1,0.6,2.5,1.5l3.6,6.3c0.5,0.8,0.5,2.1,0,2.9l-3.6,6.3C43.7,238.4,42.5,239.1,41.6,239.1z M34.3,222c-0.5,0-1.2,0.4-1.4,0.8
		l-3.6,6.3c-0.2,0.4-0.2,1.2,0,1.6l3.6,6.3c0.2,0.4,0.9,0.8,1.4,0.8h7.2c0.5,0,1.2-0.4,1.4-0.8l3.6-6.3c0.2-0.4,0.2-1.2,0-1.6
		l-3.6-6.3c-0.2-0.4-0.9-0.8-1.4-0.8H34.3z M38,233.8c-2.1,0-3.9-1.7-3.9-3.9c0-2.1,1.7-3.9,3.9-3.9s3.9,1.7,3.9,3.9
		C41.9,232,40.1,233.8,38,233.8z M38,227.3c-1.4,0-2.6,1.2-2.6,2.6s1.2,2.6,2.6,2.6s2.6-1.2,2.6-2.6S39.4,227.3,38,227.3L38,227.3z"
		/>
</g>
<path class="st3" d="M33.5,277.6h8.1v1.6h-8.1V277.6z M33.5,282.5h5.7v-1.6h-5.7V282.5z M45.6,274.1v13.3H29.5v-17
	c0-1.3,1.1-2.4,2.4-2.4h7.6L45.6,274.1z M40,273.6h2.9l-2.9-2.9V273.6z M44,285.7v-10.5h-5.7v-5.7h-6.5c-0.4,0-0.8,0.4-0.8,0.8v15.4
	H44z"/>
<rect x="267.2" y="51.1" class="st7" width="239.8" height="678.2"/>
<g>
	<path class="st8" d="M285.2,70.1h3.9c2.8,0,4.7,1.7,4.7,4.3s-1.9,4.3-4.7,4.3h-3.9V70.1z M288.9,77c1.7,0,2.8-1,2.8-2.6
		c0-1.6-1.1-2.6-2.8-2.6h-1.8V77H288.9z"/>
	<path class="st8" d="M300.9,74.9v3.7h-1.8v-0.8c-0.4,0.6-1,0.9-2,0.9c-1.5,0-2.4-0.9-2.4-2c0-1.2,0.8-2,2.8-2h1.5
		c0-0.8-0.5-1.3-1.5-1.3c-0.7,0-1.4,0.2-1.9,0.6l-0.7-1.3c0.7-0.5,1.8-0.8,2.8-0.8C299.7,72,300.9,72.9,300.9,74.9z M299,76.5v-0.7
		h-1.3c-0.9,0-1.2,0.3-1.2,0.8c0,0.5,0.4,0.8,1.1,0.8C298.2,77.4,298.8,77.1,299,76.5z"/>
	<path class="st8" d="M309.3,69.6v9h-1.8v-0.8c-0.5,0.6-1.2,0.9-2,0.9c-1.8,0-3.3-1.3-3.3-3.4s1.4-3.4,3.3-3.4c0.8,0,1.5,0.3,2,0.8
		v-3.2H309.3z M307.5,75.3c0-1.1-0.7-1.8-1.7-1.8c-0.9,0-1.7,0.7-1.7,1.8s0.7,1.8,1.7,1.8C306.7,77.2,307.5,76.5,307.5,75.3z"/>
	<path class="st8" d="M310.6,75.3c0-2,1.5-3.4,3.6-3.4s3.6,1.4,3.6,3.4s-1.5,3.4-3.6,3.4S310.6,77.3,310.6,75.3z M315.9,75.3
		c0-1.1-0.7-1.8-1.7-1.8c-0.9,0-1.7,0.7-1.7,1.8s0.7,1.8,1.7,1.8C315.1,77.2,315.9,76.5,315.9,75.3z"/>
	<path class="st8" d="M318.4,78l0.6-1.4c0.6,0.4,1.5,0.6,2.3,0.6c0.9,0,1.2-0.2,1.2-0.6c0-1.1-4,0-4-2.6c0-1.2,1.1-2.1,3-2.1
		c0.9,0,1.9,0.2,2.5,0.6l-0.6,1.3c-0.6-0.4-1.3-0.5-1.9-0.5c-0.9,0-1.2,0.3-1.2,0.6c0,1.1,4,0,4,2.6c0,1.2-1.1,2.1-3.1,2.1
		C320.1,78.7,319,78.4,318.4,78z"/>
</g>
<g>
	<path class="st9" d="M525.2,98.1v7.6h-1.1V99h-1.7v-0.9H525.2z"/>
</g>
<g>
	<path class="st9" d="M526.5,121.1v0.9h-5.4v-0.7l3.1-3c0.8-0.8,1-1.3,1-1.7c0-0.8-0.6-1.3-1.6-1.3c-0.8,0-1.5,0.3-1.9,0.8l-0.7-0.6
		c0.6-0.7,1.6-1.1,2.8-1.1c1.6,0,2.6,0.8,2.6,2.1c0,0.7-0.2,1.4-1.2,2.4l-2.3,2.2H526.5z"/>
</g>
<g>
	<path class="st9" d="M527.2,152.9h-1.4v1.9h-1v-1.9h-4.2v-0.8l3.9-4.9h1.2l-3.7,4.8h2.9v-1.6h1v1.6h1.4V152.9z"/>
</g>
<g>
	<path class="st9" d="M527.2,168.9c0,1.3-0.9,2.4-2.9,2.4c-1.1,0-2.1-0.3-2.8-0.9l0.5-0.9c0.5,0.5,1.4,0.8,2.3,0.8
		c1.1,0,1.8-0.5,1.8-1.4c0-0.9-0.5-1.4-2.3-1.4h-1.7l0.4-4h4.3v0.9h-3.4l-0.2,2.1h0.8C526.3,166.6,527.2,167.5,527.2,168.9z"/>
</g>
<g>
	<path class="st9" d="M527.2,136.1c0,1.3-0.9,2.3-2.9,2.3c-1.1,0-2.1-0.3-2.8-0.9l0.5-0.9c0.5,0.5,1.4,0.8,2.3,0.8
		c1.1,0,1.8-0.5,1.8-1.3c0-0.8-0.6-1.3-1.9-1.3h-0.6v-0.8l1.9-2.3h-3.6v-0.9h5v0.7l-2,2.4C526.4,134.1,527.2,135,527.2,136.1z"/>
</g>
<g>
	<path class="st9" d="M527.4,187.8c0,1.5-1.2,2.4-2.7,2.4c-2,0-3.2-1.4-3.2-3.8c0-2.6,1.5-4,3.6-4c0.7,0,1.4,0.1,1.9,0.4l-0.4,0.8
		c-0.4-0.3-0.9-0.4-1.4-0.4c-1.5,0-2.5,1-2.5,2.9c0,0.1,0,0.2,0,0.3c0.4-0.6,1.2-1,2.2-1C526.3,185.5,527.4,186.4,527.4,187.8z
		 M526.3,187.8c0-0.9-0.7-1.5-1.7-1.5c-1,0-1.7,0.6-1.7,1.5c0,0.8,0.6,1.5,1.8,1.5C525.6,189.3,526.3,188.7,526.3,187.8z"/>
</g>
<g>
	<path class="st9" d="M527.1,198.9v0.7l-3.1,6.8h-1.1l3-6.6h-3.5v1.4h-1v-2.3H527.1z"/>
</g>
<g>
	<path class="st9" d="M526.1,235.4c0,2.6-1.5,4-3.6,4c-0.7,0-1.4-0.1-1.9-0.4l0.4-0.8c0.4,0.3,0.9,0.4,1.5,0.4c1.5,0,2.5-1,2.5-2.9
		v-0.3c-0.4,0.7-1.2,1-2.2,1c-1.5,0-2.6-0.9-2.6-2.3c0-1.5,1.2-2.4,2.7-2.4C525,231.6,526.1,232.9,526.1,235.4z M524.8,233.9
		c0-0.8-0.6-1.5-1.8-1.5c-1,0-1.7,0.6-1.7,1.5c0,0.9,0.7,1.5,1.7,1.5C524.1,235.4,524.8,234.8,524.8,233.9z"/>
</g>
<g>
	<path class="st9" d="M518.6,248v7.6h-1.1V249h-1.7V248H518.6z"/>
	<path class="st9" d="M520.2,251.8c0-2.5,1.3-3.9,3.1-3.9c1.8,0,3.1,1.4,3.1,3.9c0,2.5-1.3,3.9-3.1,3.9
		C521.5,255.7,520.2,254.3,520.2,251.8z M525.3,251.8c0-1.9-0.8-2.9-2-2.9c-1.2,0-2,1-2,2.9c0,1.9,0.8,2.9,2,2.9
		C524.5,254.7,525.3,253.7,525.3,251.8z"/>
</g>
<g>
	<path class="st9" d="M526.5,220.7c0,1.4-1.2,2.2-3,2.2c-1.8,0-3-0.9-3-2.2c0-0.9,0.5-1.5,1.3-1.8c-0.7-0.3-1.1-0.9-1.1-1.6
		c0-1.3,1.1-2.1,2.7-2.1c1.6,0,2.7,0.8,2.7,2.1c0,0.7-0.4,1.3-1.1,1.6C526.1,219.2,526.5,219.8,526.5,220.7z M525.5,220.6
		c0-0.8-0.7-1.4-1.9-1.4s-1.9,0.5-1.9,1.4c0,0.9,0.7,1.4,1.9,1.4S525.5,221.5,525.5,220.6z M521.9,217.2c0,0.7,0.6,1.2,1.7,1.2
		c1,0,1.7-0.5,1.7-1.2c0-0.8-0.7-1.2-1.7-1.2S521.9,216.5,521.9,217.2z"/>
</g>
<g>
	<path class="st8" d="M294.4,233.5c-0.6,0.7-1.4,1-2.3,1c-1.3,0-2.2-0.5-3.5-1.8c-2.3-0.3-4-2.1-4-4.4c0-2.5,2-4.4,4.7-4.4
		c2.7,0,4.7,1.9,4.7,4.4c0,2-1.2,3.6-3,4.2c0.4,0.4,0.8,0.6,1.2,0.6c0.5,0,1-0.2,1.4-0.6L294.4,233.5z M289.3,231.1
		c1.5,0,2.7-1.1,2.7-2.7c0-1.6-1.1-2.7-2.7-2.7c-1.5,0-2.7,1.1-2.7,2.7C286.6,230,287.8,231.1,289.3,231.1z"/>
	<path class="st8" d="M301.9,226.1v6.5h-1.8v-0.8c-0.5,0.6-1.2,0.9-2,0.9c-1.6,0-2.8-0.9-2.8-2.9v-3.7h1.9v3.4
		c0,1.1,0.5,1.6,1.3,1.6c0.9,0,1.5-0.6,1.5-1.8v-3.2H301.9z"/>
	<path class="st8" d="M310,229.9h-4.9c0.2,0.8,0.9,1.3,1.9,1.3c0.7,0,1.2-0.2,1.6-0.6l1,1.1c-0.6,0.7-1.5,1.1-2.7,1.1
		c-2.3,0-3.7-1.4-3.7-3.4c0-2,1.5-3.4,3.5-3.4c1.9,0,3.4,1.3,3.4,3.4C310.1,229.5,310,229.7,310,229.9z M305.1,228.8h3.2
		c-0.1-0.8-0.8-1.4-1.6-1.4C305.8,227.4,305.2,227.9,305.1,228.8z"/>
	<path class="st8" d="M315.4,226v1.8c-0.2,0-0.3,0-0.4,0c-1,0-1.7,0.6-1.7,1.8v3.1h-1.9v-6.5h1.8v0.9
		C313.6,226.3,314.4,226,315.4,226z"/>
	<path class="st8" d="M316.3,224.1c0-0.6,0.5-1.1,1.2-1.1c0.7,0,1.2,0.4,1.2,1c0,0.6-0.5,1.1-1.2,1.1
		C316.8,225.2,316.3,224.7,316.3,224.1z M316.5,226.1h1.9v6.5h-1.9V226.1z"/>
	<path class="st8" d="M326.6,229.9h-4.9c0.2,0.8,0.9,1.3,1.9,1.3c0.7,0,1.2-0.2,1.6-0.6l1,1.1c-0.6,0.7-1.5,1.1-2.7,1.1
		c-2.3,0-3.7-1.4-3.7-3.4c0-2,1.5-3.4,3.5-3.4c1.9,0,3.4,1.3,3.4,3.4C326.6,229.5,326.6,229.7,326.6,229.9z M321.6,228.8h3.2
		c-0.1-0.8-0.8-1.4-1.6-1.4C322.3,227.4,321.7,227.9,321.6,228.8z"/>
	<path class="st8" d="M327.2,232l0.6-1.4c0.6,0.4,1.5,0.6,2.3,0.6c0.9,0,1.2-0.2,1.2-0.6c0-1.1-4,0-4-2.6c0-1.2,1.1-2.1,3-2.1
		c0.9,0,1.9,0.2,2.5,0.6l-0.6,1.3c-0.6-0.4-1.3-0.5-1.9-0.5c-0.9,0-1.2,0.3-1.2,0.6c0,1.1,4,0,4,2.6c0,1.2-1.1,2.1-3.1,2.1
		C328.9,232.7,327.8,232.4,327.2,232z"/>
</g>
<g>
	<path class="st8" d="M293.2,296.1c0,1.9-1.4,3.1-3.7,3.1h-1.7v2.3h-2V293h3.7C291.8,293,293.2,294.2,293.2,296.1z M291.2,296.1
		c0-0.9-0.6-1.5-1.8-1.5h-1.6v3h1.6C290.6,297.6,291.2,297,291.2,296.1z"/>
	<path class="st8" d="M298.6,294.9v1.8c-0.2,0-0.3,0-0.4,0c-1,0-1.7,0.6-1.7,1.8v3.1h-1.9V295h1.8v0.9
		C296.8,295.2,297.5,294.9,298.6,294.9z"/>
	<path class="st8" d="M299.1,298.2c0-2,1.5-3.4,3.6-3.4s3.6,1.4,3.6,3.4s-1.5,3.4-3.6,3.4S299.1,300.2,299.1,298.2z M304.4,298.2
		c0-1.1-0.7-1.8-1.7-1.8c-0.9,0-1.7,0.7-1.7,1.8s0.7,1.8,1.7,1.8C303.7,300.1,304.4,299.4,304.4,298.2z"/>
	<path class="st8" d="M307.1,298.2c0-2,1.5-3.4,3.6-3.4c1.4,0,2.5,0.6,2.9,1.7l-1.5,0.8c-0.4-0.6-0.9-0.9-1.5-0.9
		c-1,0-1.7,0.7-1.7,1.8s0.8,1.8,1.7,1.8c0.6,0,1.1-0.3,1.5-0.9l1.5,0.8c-0.5,1-1.6,1.7-2.9,1.7C308.6,301.6,307.1,300.2,307.1,298.2
		z"/>
	<path class="st8" d="M321.1,298.8h-4.9c0.2,0.8,0.9,1.3,1.9,1.3c0.7,0,1.2-0.2,1.6-0.6l1,1.1c-0.6,0.7-1.5,1.1-2.7,1.1
		c-2.3,0-3.7-1.4-3.7-3.4c0-2,1.5-3.4,3.5-3.4c1.9,0,3.4,1.3,3.4,3.4C321.1,298.4,321.1,298.6,321.1,298.8z M316.1,297.7h3.2
		c-0.1-0.8-0.8-1.4-1.6-1.4C316.8,296.3,316.2,296.8,316.1,297.7z"/>
	<path class="st8" d="M329,292.5v9h-1.8v-0.8c-0.5,0.6-1.2,0.9-2,0.9c-1.8,0-3.3-1.3-3.3-3.4s1.4-3.4,3.3-3.4c0.8,0,1.5,0.3,2,0.8
		v-3.2H329z M327.2,298.2c0-1.1-0.7-1.8-1.7-1.8c-0.9,0-1.7,0.7-1.7,1.8s0.7,1.8,1.7,1.8C326.4,300.1,327.2,299.4,327.2,298.2z"/>
	<path class="st8" d="M337.4,295v6.5h-1.8v-0.8c-0.5,0.6-1.2,0.9-2,0.9c-1.6,0-2.8-0.9-2.8-2.9V295h1.9v3.4c0,1.1,0.5,1.6,1.3,1.6
		c0.9,0,1.5-0.6,1.5-1.8V295H337.4z"/>
	<path class="st8" d="M343.2,294.9v1.8c-0.2,0-0.3,0-0.4,0c-1,0-1.7,0.6-1.7,1.8v3.1h-1.9V295h1.8v0.9
		C341.4,295.2,342.2,294.9,343.2,294.9z"/>
	<path class="st8" d="M350.6,298.8h-4.9c0.2,0.8,0.9,1.3,1.9,1.3c0.7,0,1.2-0.2,1.6-0.6l1,1.1c-0.6,0.7-1.5,1.1-2.7,1.1
		c-2.3,0-3.7-1.4-3.7-3.4c0-2,1.5-3.4,3.5-3.4c1.9,0,3.4,1.3,3.4,3.4C350.7,298.4,350.6,298.6,350.6,298.8z M345.7,297.7h3.2
		c-0.1-0.8-0.8-1.4-1.6-1.4C346.4,296.3,345.8,296.8,345.7,297.7z"/>
	<path class="st8" d="M351.3,300.9l0.6-1.4c0.6,0.4,1.5,0.6,2.3,0.6c0.9,0,1.2-0.2,1.2-0.6c0-1.1-4,0-4-2.6c0-1.2,1.1-2.1,3-2.1
		c0.9,0,1.9,0.2,2.5,0.6l-0.6,1.3c-0.6-0.4-1.3-0.5-1.9-0.5c-0.9,0-1.2,0.3-1.2,0.6c0,1.1,4,0,4,2.6c0,1.2-1.1,2.1-3.1,2.1
		C353,301.6,351.9,301.3,351.3,300.9z"/>
</g>
<path class="st10" d="M292,97.9h-5c-1.4,0-2.5,1.1-2.5,2.5v7.4c0,1.1,0.9,2,2,2h5.5c1.4,0,2.5-1.1,2.5-2.5v-6.9
	C294.5,99,293.4,97.9,292,97.9z M293.5,100.4v5.5h-6v-6.9h4.5C292.9,98.9,293.5,99.6,293.5,100.4z M286.6,99v6.9
	c-0.3,0-0.7,0.1-1,0.3v-5.7C285.6,99.8,286,99.2,286.6,99z M292,108.8h-5.5c-0.5,0-1-0.4-1-1s0.4-1,1-1h6.9v0.5
	C293.5,108.2,292.9,108.8,292,108.8z"/>
<g id="_01_align_center_00000165946320106152299710000008408462918026059442_">
	<g>
		<path class="st10" d="M301,122.3h-5.5v-4c0-0.8,0.7-1.5,1.5-1.5h4V122.3z M296.5,121.3h3.5v-3.5h-3c-0.3,0-0.5,0.2-0.5,0.5V121.3z
			"/>
		<path class="st10" d="M307.5,122.3H302v-5.5h4c0.8,0,1.5,0.7,1.5,1.5V122.3z M303,121.3h3.5v-3c0-0.3-0.2-0.5-0.5-0.5h-3V121.3z"
			/>
		<path class="st10" d="M301,128.8h-4c-0.8,0-1.5-0.7-1.5-1.5v-4h5.5V128.8z M296.5,124.3v3c0,0.3,0.2,0.5,0.5,0.5h3v-3.5H296.5z"/>
		<path class="st10" d="M306,128.8h-4v-5.5h5.5v4C307.5,128.1,306.8,128.8,306,128.8z M303,127.8h3c0.3,0,0.5-0.2,0.5-0.5v-3H303
			V127.8z"/>
	</g>
</g>
<g id="_01_align_center_00000024687665883375403580000010213913715852285106_">
	<g>
		<path class="st10" d="M301,178.4h-5.5v-4c0-0.8,0.7-1.5,1.5-1.5h4V178.4z M296.5,177.4h3.5v-3.5h-3c-0.3,0-0.5,0.2-0.5,0.5V177.4z
			"/>
		<path class="st10" d="M307.5,178.4H302v-5.5h4c0.8,0,1.5,0.7,1.5,1.5V178.4z M303,177.4h3.5v-3c0-0.3-0.2-0.5-0.5-0.5h-3V177.4z"
			/>
		<path class="st10" d="M301,184.9h-4c-0.8,0-1.5-0.7-1.5-1.5v-4h5.5V184.9z M296.5,180.4v3c0,0.3,0.2,0.5,0.5,0.5h3v-3.5H296.5z"/>
		<path class="st10" d="M306,184.9h-4v-5.5h5.5v4C307.5,184.2,306.8,184.9,306,184.9z M303,183.9h3c0.3,0,0.5-0.2,0.5-0.5v-3H303
			V183.9z"/>
	</g>
</g>
<g id="_01_align_center_00000134952938132875738040000007482590631939038127_">
	<g>
		<path class="st10" d="M301,197.3h-5.5v-4c0-0.8,0.7-1.5,1.5-1.5h4V197.3z M296.5,196.3h3.5v-3.5h-3c-0.3,0-0.5,0.2-0.5,0.5V196.3z
			"/>
		<path class="st10" d="M307.5,197.3H302v-5.5h4c0.8,0,1.5,0.7,1.5,1.5V197.3z M303,196.3h3.5v-3c0-0.3-0.2-0.5-0.5-0.5h-3V196.3z"
			/>
		<path class="st10" d="M301,203.8h-4c-0.8,0-1.5-0.7-1.5-1.5v-4h5.5V203.8z M296.5,199.3v3c0,0.3,0.2,0.5,0.5,0.5h3v-3.5H296.5z"/>
		<path class="st10" d="M306,203.8h-4v-5.5h5.5v4C307.5,203.1,306.8,203.8,306,203.8z M303,202.8h3c0.3,0,0.5-0.2,0.5-0.5v-3H303
			V202.8z"/>
	</g>
</g>
<g>
	<g>
		<g>
			<path class="st11" d="M308.4,138c0-0.6,0.5-1.2,1.2-1.2h8.5c0.6,0,1.2,0.5,1.2,1.2v8.5c0,0.6-0.5,1.2-1.2,1.2h-8.5
				c-0.6,0-1.2-0.5-1.2-1.2V138z M309.6,137.7c-0.2,0-0.3,0.1-0.3,0.3v8.5c0,0.2,0.1,0.3,0.3,0.3h8.5c0.2,0,0.3-0.1,0.3-0.3V138
				c0-0.2-0.1-0.3-0.3-0.3H309.6z"/>
			<path class="st11" d="M313.8,136.9c0.2,0,0.4,0.2,0.4,0.4v10c0,0.2-0.2,0.4-0.4,0.4c-0.2,0-0.4-0.2-0.4-0.4v-10
				C313.4,137.1,313.6,136.9,313.8,136.9z"/>
		</g>
	</g>
</g>
<g>
	<g>
		<g>
			<path class="st11" d="M308.4,155.6c0-0.6,0.5-1.2,1.2-1.2h8.5c0.6,0,1.2,0.5,1.2,1.2v8.5c0,0.6-0.5,1.2-1.2,1.2h-8.5
				c-0.6,0-1.2-0.5-1.2-1.2V155.6z M309.6,155.3c-0.2,0-0.3,0.1-0.3,0.3v8.5c0,0.2,0.1,0.3,0.3,0.3h8.5c0.2,0,0.3-0.1,0.3-0.3v-8.5
				c0-0.2-0.1-0.3-0.3-0.3H309.6z"/>
			<path class="st11" d="M313.8,154.4c0.2,0,0.4,0.2,0.4,0.4v10c0,0.2-0.2,0.4-0.4,0.4c-0.2,0-0.4-0.2-0.4-0.4v-10
				C313.4,154.6,313.6,154.4,313.8,154.4z"/>
		</g>
	</g>
</g>
<g>
	<g>
		<path class="st0" d="M65,37.4c-1.2,0-2.3-0.2-3.2-0.6s-1.8-1-2.5-1.7c-0.7-0.7-1.3-1.6-1.6-2.6c-0.4-1-0.6-2.1-0.6-3.3
			c0-1.2,0.2-2.3,0.6-3.2c0.4-1,0.9-1.8,1.6-2.5c0.7-0.7,1.5-1.3,2.5-1.7c1-0.4,2.1-0.6,3.2-0.6c1.2,0,2.3,0.2,3.2,0.6
			c1,0.4,1.8,1,2.5,1.7c0.7,0.7,1.3,1.6,1.7,2.5c0.4,1,0.6,2.1,0.6,3.2c0,1.2-0.2,2.3-0.6,3.3c-0.4,1-0.9,1.8-1.7,2.6
			s-1.6,1.3-2.5,1.7C67.3,37.2,66.2,37.4,65,37.4z M65,35.5c0.9,0,1.7-0.2,2.4-0.5c0.7-0.3,1.4-0.8,1.9-1.3c0.5-0.6,0.9-1.2,1.2-2
			c0.3-0.8,0.4-1.6,0.4-2.4c0-0.9-0.1-1.7-0.4-2.4c-0.3-0.8-0.7-1.4-1.2-2c-0.5-0.6-1.2-1-1.9-1.3c-0.7-0.3-1.5-0.5-2.4-0.5
			c-0.9,0-1.7,0.2-2.4,0.5c-0.7,0.3-1.4,0.7-1.9,1.3c-0.5,0.6-0.9,1.2-1.2,2c-0.3,0.8-0.4,1.6-0.4,2.4c0,0.9,0.1,1.7,0.4,2.4
			c0.3,0.8,0.7,1.4,1.2,2c0.5,0.6,1.2,1,1.9,1.3C63.3,35.3,64.1,35.5,65,35.5z"/>
		<path class="st0" d="M78.7,37.2c-0.6,0-1.1-0.2-1.6-0.5c-0.5-0.3-0.8-0.8-1.1-1.3c-0.3-0.6-0.4-1.2-0.4-1.9v-11
			c0-0.3,0.1-0.5,0.3-0.7c0.2-0.2,0.4-0.3,0.7-0.3c0.3,0,0.5,0.1,0.7,0.3c0.2,0.2,0.3,0.4,0.3,0.7v11c0,0.5,0.1,0.9,0.3,1.2
			c0.2,0.3,0.4,0.5,0.7,0.5h0.5c0.3,0,0.5,0.1,0.7,0.3c0.2,0.2,0.3,0.4,0.3,0.7c0,0.3-0.1,0.5-0.4,0.7
			C79.5,37.1,79.1,37.2,78.7,37.2L78.7,37.2z"/>
		<path class="st0" d="M83.3,24.4c-0.4,0-0.7-0.1-0.9-0.4S82,23.4,82,23.1s0.1-0.7,0.4-0.9s0.6-0.4,0.9-0.4s0.7,0.1,0.9,0.4
			s0.4,0.6,0.4,0.9s-0.1,0.7-0.4,0.9S83.7,24.4,83.3,24.4z M83.3,37.2c-0.3,0-0.5-0.1-0.7-0.3c-0.2-0.2-0.3-0.4-0.3-0.7v-9
			c0-0.3,0.1-0.6,0.3-0.7c0.2-0.2,0.4-0.3,0.7-0.3c0.3,0,0.6,0.1,0.7,0.3s0.3,0.4,0.3,0.7v9c0,0.3-0.1,0.5-0.3,0.7
			C83.9,37.1,83.7,37.2,83.3,37.2z"/>
		<path class="st0" d="M91.9,37.2c-0.4,0-0.7-0.2-1-0.7l-4.3-9c-0.1-0.2-0.1-0.5,0-0.7c0.1-0.2,0.3-0.4,0.5-0.5
			c0.2-0.1,0.5-0.1,0.7-0.1c0.2,0.1,0.4,0.2,0.5,0.5l4,8.6h-1l3.9-8.6c0.1-0.2,0.3-0.4,0.6-0.5c0.2-0.1,0.5-0.1,0.8,0.1
			c0.2,0.1,0.4,0.3,0.5,0.5s0.1,0.5,0,0.7l-4.3,9C92.6,36.9,92.3,37.2,91.9,37.2z"/>
		<path class="st0" d="M100.5,24.4c-0.4,0-0.7-0.1-0.9-0.4s-0.4-0.6-0.4-0.9s0.1-0.7,0.4-0.9s0.6-0.4,0.9-0.4s0.7,0.1,0.9,0.4
			s0.4,0.6,0.4,0.9s-0.1,0.7-0.4,0.9S100.8,24.4,100.5,24.4z M100.5,37.2c-0.3,0-0.5-0.1-0.7-0.3c-0.2-0.2-0.3-0.4-0.3-0.7v-9
			c0-0.3,0.1-0.6,0.3-0.7c0.2-0.2,0.4-0.3,0.7-0.3c0.3,0,0.6,0.1,0.7,0.3s0.3,0.4,0.3,0.7v9c0,0.3-0.1,0.5-0.3,0.7
			C101,37.1,100.8,37.2,100.5,37.2z"/>
		<path class="st0" d="M109.9,37.3c-1,0-1.9-0.2-2.6-0.7c-0.8-0.5-1.4-1.2-1.8-2c-0.4-0.8-0.7-1.8-0.7-2.8s0.2-2,0.7-2.9
			c0.5-0.8,1.2-1.5,2-2c0.8-0.5,1.8-0.7,2.8-0.7c1,0,2,0.2,2.8,0.7c0.8,0.5,1.5,1.2,2,2c0.5,0.8,0.7,1.8,0.7,2.9H115
			c0,1.1-0.2,2-0.7,2.8c-0.4,0.8-1.1,1.5-1.8,2C111.8,37,110.9,37.3,109.9,37.3z M110.3,35.5c0.7,0,1.3-0.2,1.8-0.5s1-0.8,1.3-1.3
			s0.5-1.2,0.5-1.9c0-0.7-0.2-1.4-0.5-1.9s-0.7-1-1.3-1.3s-1.1-0.5-1.8-0.5c-0.7,0-1.3,0.2-1.8,0.5s-1,0.8-1.3,1.3
			c-0.3,0.6-0.5,1.2-0.5,1.9c0,0.7,0.2,1.4,0.5,1.9c0.3,0.6,0.7,1,1.3,1.3S109.6,35.5,110.3,35.5z M114.8,37.2
			c-0.3,0-0.5-0.1-0.7-0.3c-0.2-0.2-0.3-0.4-0.3-0.7v-3.1l0.4-2.1l1.7,0.7v4.5c0,0.3-0.1,0.5-0.3,0.7
			C115.3,37.1,115.1,37.2,114.8,37.2z"/>
	</g>
	<g>
		<g>
			<path class="st0" d="M31,24.6L31,24.6l6.4-3.7v-5c0,0,0,0,0,0v0c0,0-0.1,0-0.1,0l-3.1,1.8l0,0l-4.5,2.6l0,0l-2.9,1.7
				c0,0,0,0-0.1,0L31,24.6L31,24.6z"/>
			<path class="st0" d="M44.8,24.5l4.1-2.4c0,0,0,0-0.1-0.1l-1.6-0.9l0,0l-3.4-2l0,0L38.3,16c0,0-0.1,0-0.1,0v0c0,0,0,0,0,0v5
				l6.4,3.7L44.8,24.5z"/>
			<path class="st0" d="M30.6,32.7v-7.4l-4.3-2.5c0,0,0,0,0,0l0,0c0,0,0,0.1,0,0.1v12.2c0,0,0,0.1,0,0.1l0,0c0,0,0,0,0,0L30.6,32.7z
				"/>
			<path class="st0" d="M49.4,23C49.4,22.9,49.4,22.9,49.4,23L49.4,23C49.4,22.9,49.4,22.9,49.4,23l-3,1.6L45,25.4v0l0,0v7.4
				l2.5,1.4l1.8,1.1c0,0,0,0,0,0l0,0c0,0,0-0.1,0-0.1v0c0,0,0,0,0,0V23z"/>
			<path class="st0" d="M31,33.5L31,33.5L26.7,36c0,0,0,0,0.1,0.1l10.5,6.1c0,0,0.1,0,0.1,0v0c0,0,0,0,0,0v-5L31,33.5L31,33.5z"/>
			<path class="st0" d="M44.6,33.5l-3,1.7l-3.4,2v5c0,0,0,0,0,0v0c0,0,0,0,0,0c0,0,0,0,0,0c0,0,0,0,0,0c0,0,0,0,0,0l5.5-3.2l0,0
				l3.4-2l0,0l1.6-0.9c0,0,0,0,0.1-0.1l-2.4-1.4L44.6,33.5z"/>
			<polygon class="st0" points="44.2,32.7 44.2,25.4 37.8,21.7 37.8,21.7 37.8,21.7 31.4,25.4 31.4,32.7 37.8,36.4 37.8,36.4 
				37.8,36.4 			"/>
		</g>
	</g>
</g>
<path class="st12" d="M305.7,256.5h-17.5c-1.9,0-3.4-1.5-3.4-3.4v-4.7c0-1.9,1.5-3.4,3.4-3.4h17.5c1.9,0,3.4,1.5,3.4,3.4v4.7
	C309.1,254.9,307.6,256.5,305.7,256.5z"/>
<g>
	<g>
		<path class="st13" d="M290.2,252.9l0.3-0.7c0.4,0.3,1,0.5,1.6,0.5c0.7,0,1-0.3,1-0.6c0-1-2.8-0.4-2.8-2.1c0-0.8,0.6-1.4,1.9-1.4
			c0.6,0,1.2,0.1,1.6,0.4l-0.3,0.7c-0.4-0.2-0.9-0.4-1.3-0.4c-0.7,0-1,0.3-1,0.6c0,1,2.8,0.4,2.8,2.1c0,0.8-0.6,1.4-1.9,1.4
			C291.3,253.5,290.6,253.3,290.2,252.9z"/>
		<path class="st13" d="M299.8,253.9c-0.3,0.4-0.7,0.6-1.2,0.6c-0.6,0-1.1-0.2-1.8-1c-1.3-0.1-2.3-1.1-2.3-2.4
			c0-1.4,1.1-2.4,2.5-2.4s2.5,1,2.5,2.4c0,1.1-0.7,2-1.8,2.3c0.3,0.3,0.5,0.4,0.8,0.4c0.3,0,0.6-0.1,0.8-0.4L299.8,253.9z
			 M297,252.7c1,0,1.7-0.7,1.7-1.7c0-1-0.7-1.7-1.7-1.7s-1.7,0.7-1.7,1.7C295.4,252,296.1,252.7,297,252.7z"/>
		<path class="st13" d="M300.5,248.7h0.9v4h2.5v0.7h-3.4V248.7z"/>
	</g>
</g>
<path class="st12" d="M305.7,272.7h-17.5c-1.9,0-3.4-1.5-3.4-3.4v-4.7c0-1.9,1.5-3.4,3.4-3.4h17.5c1.9,0,3.4,1.5,3.4,3.4v4.7
	C309.1,271.1,307.6,272.7,305.7,272.7z"/>
<g>
	<g>
		<path class="st13" d="M290.2,269.1l0.3-0.7c0.4,0.3,1,0.5,1.6,0.5c0.7,0,1-0.3,1-0.6c0-1-2.8-0.4-2.8-2.1c0-0.8,0.6-1.4,1.9-1.4
			c0.6,0,1.2,0.1,1.6,0.4l-0.3,0.7c-0.4-0.2-0.9-0.4-1.3-0.4c-0.7,0-1,0.3-1,0.6c0,1,2.8,0.4,2.8,2.1c0,0.8-0.6,1.4-1.9,1.4
			C291.3,269.7,290.6,269.5,290.2,269.1z"/>
		<path class="st13" d="M299.8,270.1c-0.3,0.4-0.7,0.6-1.2,0.6c-0.6,0-1.1-0.2-1.8-1c-1.3-0.1-2.3-1.1-2.3-2.4
			c0-1.4,1.1-2.4,2.5-2.4s2.5,1,2.5,2.4c0,1.1-0.7,2-1.8,2.3c0.3,0.3,0.5,0.4,0.8,0.4c0.3,0,0.6-0.1,0.8-0.4L299.8,270.1z
			 M297,268.9c1,0,1.7-0.7,1.7-1.7c0-1-0.7-1.7-1.7-1.7s-1.7,0.7-1.7,1.7C295.4,268.2,296.1,268.9,297,268.9z"/>
		<path class="st13" d="M300.5,264.9h0.9v4h2.5v0.7h-3.4V264.9z"/>
	</g>
</g>
<g>
	<g>
		<path class="st10" d="M295.9,321.7l-5.3,3.2l-5.3-3.2c-0.2-0.1-0.5-0.1-0.7,0.2c-0.1,0.2-0.1,0.5,0.2,0.7l0,0l5.6,3.3
			c0.2,0.1,0.4,0.1,0.5,0l5.6-3.3c0.2-0.1,0.3-0.5,0.2-0.7C296.4,321.7,296.1,321.6,295.9,321.7L295.9,321.7z"/>
		<path class="st10" d="M295.9,324l-5.3,3.2l-5.3-3.2c-0.2-0.1-0.5-0.1-0.7,0.2c-0.1,0.2-0.1,0.5,0.2,0.7l5.6,3.3
			c0.2,0.1,0.4,0.1,0.5,0l5.6-3.3c0.2-0.1,0.3-0.5,0.2-0.7C296.4,324,296.1,323.9,295.9,324L295.9,324z"/>
		<path class="st10" d="M290.6,323.7c-0.3,0-0.5-0.1-0.8-0.2l-5-3c-0.2-0.1-0.3-0.5-0.2-0.7c0-0.1,0.1-0.1,0.2-0.2l5-3
			c0.5-0.3,1.1-0.3,1.5,0l5,3c0.2,0.1,0.3,0.5,0.2,0.7c0,0.1-0.1,0.1-0.2,0.2l-5,3C291.1,323.6,290.8,323.7,290.6,323.7z M286,320
			l4.3,2.6c0.2,0.1,0.3,0.1,0.5,0l4.3-2.6l-4.3-2.6c-0.2-0.1-0.3-0.1-0.5,0l0,0L286,320z"/>
	</g>
</g>
<g>
	<g>
		<path class="st10" d="M295.9,340.7l-5.3,3.2l-5.3-3.2c-0.2-0.1-0.5-0.1-0.7,0.2c-0.1,0.2-0.1,0.5,0.2,0.7l0,0l5.6,3.3
			c0.2,0.1,0.4,0.1,0.5,0l5.6-3.3c0.2-0.1,0.3-0.5,0.2-0.7C296.4,340.6,296.1,340.5,295.9,340.7L295.9,340.7z"/>
		<path class="st10" d="M295.9,343l-5.3,3.2l-5.3-3.2c-0.2-0.1-0.5-0.1-0.7,0.2c-0.1,0.2-0.1,0.5,0.2,0.7l5.6,3.3
			c0.2,0.1,0.4,0.1,0.5,0l5.6-3.3c0.2-0.1,0.3-0.5,0.2-0.7C296.4,342.9,296.1,342.8,295.9,343L295.9,343z"/>
		<path class="st10" d="M290.6,342.6c-0.3,0-0.5-0.1-0.8-0.2l-5-3c-0.2-0.1-0.3-0.5-0.2-0.7c0-0.1,0.1-0.1,0.2-0.2l5-3
			c0.5-0.3,1.1-0.3,1.5,0l5,3c0.2,0.1,0.3,0.5,0.2,0.7c0,0.1-0.1,0.1-0.2,0.2l-5,3C291.1,342.5,290.8,342.6,290.6,342.6z M286,338.9
			l4.3,2.6c0.2,0.1,0.3,0.1,0.5,0l4.3-2.6l-4.3-2.6c-0.2-0.1-0.3-0.1-0.5,0l0,0L286,338.9z"/>
	</g>
</g>
<line class="st14" x1="864.3" y1="87.5" x2="507" y2="87.4"/>
<line class="st14" x1="864.3" y1="271.7" x2="507" y2="271.6"/>
<line class="st14" x1="864.3" y1="312.9" x2="507" y2="312.8"/>
<path class="st10" d="M529.4,289.3c0.4,0,0.7,0.3,0.7,0.7c0,0.4-0.3,0.7-0.7,0.7h-5.3c-0.4,0-0.7-0.3-0.7-0.7c0-0.4,0.3-0.7,0.7-0.7
	H529.4z M534.5,301.1c-0.3,0.3-0.7,0.3-0.9,0l-1.6-1.6c-0.5,0.3-1,0.5-1.6,0.5c-1.7,0-3-1.3-3-3c0-1.7,1.3-3,3-3c1.7,0,3,1.3,3,3
	l0,0c0,0.6-0.2,1.1-0.5,1.6l1.6,1.6C534.8,300.4,534.8,300.8,534.5,301.1z M530.4,298.6c0.9,0,1.7-0.7,1.7-1.7s-0.7-1.7-1.7-1.7
	s-1.7,0.7-1.7,1.7S529.5,298.6,530.4,298.6z M527.4,299.9h-4c-1.1,0-2-0.9-2-2v-9.3c0-1.1,0.9-2,2-2h8c0.4,0,0.7,0.3,0.7,0.7v5.3
	c0,0.4,0.3,0.7,0.7,0.7c0.4,0,0.7-0.3,0.7-0.7v-5.3c0-1.1-0.9-2-2-2h-8c-1.8,0-3.3,1.5-3.3,3.3v9.3c0,1.8,1.5,3.3,3.3,3.3h4
	c0.4,0,0.7-0.3,0.7-0.7S527.8,299.9,527.4,299.9z"/>
<rect x="507" y="85.6" class="st15" width="48.6" height="2"/>
<rect x="280.9" y="16" class="st16" width="207.2" height="17.3"/>
<rect x="511.9" y="61.2" class="st16" width="37.7" height="17.3"/>
<rect x="518" y="323.3" class="st17" width="37.7" height="17.3"/>
<rect x="524.7" y="351.7" class="st16" width="32.3" height="13.3"/>
<rect x="517.8" y="372.6" class="st18" width="346.5" height="22.7"/>
<rect x="524.7" y="377.4" class="st16" width="57.9" height="13.3"/>
<rect x="517.8" y="424" class="st18" width="346.5" height="22.7"/>
<rect x="524.7" y="428.7" class="st16" width="57.9" height="13.3"/>
<rect x="524.7" y="403" class="st16" width="43.7" height="13.3"/>
<rect x="563.2" y="328.1" class="st16" width="92.4" height="7.9"/>
<rect x="532.9" y="95" class="st19" width="37.7" height="13.3"/>
<rect x="532.9" y="128.1" class="st19" width="66" height="13.3"/>
<rect x="605.8" y="128.1" class="st16" width="37.7" height="13.3"/>
<rect x="576.8" y="95" class="st20" width="76.2" height="13.3"/>
<rect x="299.8" y="96.4" class="st16" width="46.4" height="14.6"/>
<rect x="310.6" y="115.3" class="st16" width="47.8" height="14.6"/>
<rect x="322.8" y="134.9" class="st16" width="46.4" height="14.6"/>
<rect x="322.8" y="152.4" class="st16" width="46.4" height="14.6"/>
<rect x="312" y="171.3" class="st16" width="46.4" height="14.6"/>
<rect x="312" y="190.3" class="st16" width="46.4" height="14.6"/>
<rect x="313.3" y="243.6" class="st16" width="46.4" height="14.6"/>
<rect x="313.3" y="259.8" class="st16" width="64.7" height="14.6"/>
<rect x="302.5" y="314.5" class="st16" width="64.7" height="14.6"/>
<rect x="302.5" y="333.5" class="st16" width="64.7" height="14.6"/>
<rect x="579.5" y="61.2" class="st16" width="46.4" height="17.3"/>
</svg>
