<?xml version="1.0" encoding="utf-8"?>
<!-- Generator: Adobe Illustrator 26.3.1, SVG Export Plug-In . SVG Version: 6.00 Build 0)  -->
<svg version="1.1" id="Outline" xmlns="http://www.w3.org/2000/svg" xmlns:xlink="http://www.w3.org/1999/xlink" x="0px" y="0px"
	 viewBox="0 0 965.7 338.6" style="enable-background:new 0 0 965.7 338.6;" xml:space="preserve">
<style type="text/css">
	.st0{fill:#171C3D;}
	.st1{opacity:0.6;}
	.st2{fill:#55F990;}
	.st3{fill:#4BE27E;}
	.st4{fill:#42DB71;}
	.st5{fill:#FFFFFF;}
	.st6{fill:#F4F4F4;}
	.st7{opacity:0.4;fill:#08BD62;}
	.st8{opacity:0.8;fill:#08BD62;}
</style>
<g>
	
		<image style="overflow:visible;opacity:0.1;" width="825" height="279" xlink:href="776B1F5A.png"  transform="matrix(1 0 0 1 106.6563 54.585)">
	</image>
	<g>
		<path class="st0" d="M878.3,306.8H144.2c-14.7,0-26.6-11.9-26.6-26.6V92.1c0-14.7,11.9-26.6,26.6-26.6h734.1
			c14.7,0,26.6,11.9,26.6,26.6v188.1C904.9,294.9,893,306.8,878.3,306.8z"/>
	</g>
</g>
<g class="st1">
	<g id="Layer_10_00000072261690093180027590000004301960498306137227_">
		<g>
			<path class="st2" d="M957.3,139.1l-47,27.2l-63.9-37V75c2.3,0,4.6,0.6,6.8,1.8l99,57.2C954.5,135.3,956.2,137,957.3,139.1
				L957.3,139.1z"/>
			<path class="st2" d="M782.4,166.3v73.8l-47,27.1c-1.2-2.1-1.8-4.4-1.8-6.8V146c0-2.6,0.6-4.9,1.8-7L782.4,166.3z"/>
			<path class="st2" d="M957.3,267.1c-1.1,2.1-2.8,3.9-5,5.1l-99,57.1c-2.2,1.2-4.5,1.8-6.8,1.8V277l63.9-37L957.3,267.1z"/>
		</g>
		<path class="st3" d="M910.4,166.3v73.8l-63.9,37l-64-37v-73.8l64-37L910.4,166.3z"/>
		<path class="st4" d="M846.5,75v54.3l-64,37l-47-27.2c1.2-2.1,2.9-3.8,5.1-5l98.9-57.2C841.6,75.6,844,75,846.5,75L846.5,75z"/>
		<path class="st4" d="M846.5,277v54.2c-2.4,0-4.9-0.6-7-1.8l-98.9-57.1c-2.2-1.2-3.9-3-5.1-5.1l47-27.1L846.5,277z"/>
		<path class="st4" d="M959.2,146v114.3c0,2.4-0.6,4.8-1.8,6.8l-47-27.1v-73.8l47-27.2C958.6,141.1,959.2,143.4,959.2,146L959.2,146
			z"/>
	</g>
</g>
<g>
	
		<image style="overflow:visible;opacity:0.1;" width="824" height="278" xlink:href="776B1F5E.png"  transform="matrix(1 0 0 1 57.6563 -3.415)">
	</image>
	<g>
		<path class="st0" d="M828.7,247.9H94.6C79.9,247.9,68,236,68,221.3V33.2C68,18.5,79.9,6.6,94.6,6.6h734.1
			c14.7,0,26.6,11.9,26.6,26.6v188.1C855.3,236,843.4,247.9,828.7,247.9z"/>
	</g>
</g>
<g>
	<path class="st5" d="M349.2,92.9c-1.3-0.7-2.3-1.7-3-3c-0.7-1.3-1.1-2.8-1.1-4.5c0-1.7,0.4-3.2,1.1-4.5c0.8-1.3,1.8-2.3,3.1-3
		c1.3-0.7,2.8-1.1,4.4-1.1s3.1,0.4,4.4,1.1c1.3,0.7,2.3,1.7,3.1,3s1.1,2.8,1.1,4.5c0,1.7-0.4,3.2-1.2,4.5c-0.8,1.3-1.8,2.3-3.1,3
		c-1.3,0.7-2.8,1.1-4.4,1.1C351.9,94,350.4,93.6,349.2,92.9z M355.6,89.8c0.7-0.4,1.2-0.9,1.6-1.7c0.4-0.7,0.6-1.6,0.6-2.7
		c0-1.6-0.4-2.8-1.2-3.6s-1.8-1.3-3-1.3c-1.2,0-2.2,0.4-3,1.3s-1.2,2.1-1.2,3.6c0,1.6,0.4,2.8,1.2,3.6c0.8,0.9,1.8,1.3,3,1.3
		C354.2,90.3,355,90.2,355.6,89.8z"/>
	<path class="st5" d="M369.4,71.5v22.2h-4.2V71.5H369.4z"/>
	<path class="st5" d="M373.9,74.4c-0.5-0.5-0.7-1.1-0.7-1.8c0-0.7,0.2-1.3,0.7-1.8s1.1-0.7,1.8-0.7s1.4,0.2,1.8,0.7s0.7,1.1,0.7,1.8
		c0,0.7-0.2,1.3-0.7,1.8s-1.1,0.7-1.8,0.7S374.4,74.9,373.9,74.4z M377.8,77.1v16.6h-4.2V77.1H377.8z"/>
	<path class="st5" d="M388.9,89.9l4.2-12.8h4.5l-6.2,16.6h-5.1l-6.1-16.6h4.5L388.9,89.9z"/>
	<path class="st5" d="M400.2,74.4c-0.5-0.5-0.7-1.1-0.7-1.8c0-0.7,0.2-1.3,0.7-1.8s1.1-0.7,1.8-0.7s1.4,0.2,1.8,0.7s0.7,1.1,0.7,1.8
		c0,0.7-0.2,1.3-0.7,1.8s-1.1,0.7-1.8,0.7S400.7,74.9,400.2,74.4z M404.1,77.1v16.6h-4.2V77.1H404.1z"/>
	<path class="st5" d="M408.2,80.9c0.7-1.3,1.6-2.3,2.7-3c1.2-0.7,2.4-1.1,3.9-1.1c1.2,0,2.3,0.3,3.3,0.8c0.9,0.5,1.7,1.1,2.2,1.9
		v-2.4h4.2v16.6h-4.2v-2.4c-0.5,0.8-1.3,1.4-2.2,1.9c-1,0.5-2,0.8-3.3,0.8c-1.4,0-2.7-0.4-3.8-1.1c-1.2-0.7-2.1-1.7-2.7-3
		c-0.7-1.3-1-2.8-1-4.5C407.2,83.7,407.5,82.2,408.2,80.9z M419.7,82.8c-0.4-0.7-0.9-1.3-1.6-1.7c-0.7-0.4-1.4-0.6-2.2-0.6
		s-1.5,0.2-2.2,0.6c-0.7,0.4-1.2,0.9-1.6,1.7c-0.4,0.7-0.6,1.6-0.6,2.6c0,1,0.2,1.9,0.6,2.6c0.4,0.8,1,1.3,1.6,1.7
		c0.7,0.4,1.4,0.6,2.1,0.6c0.8,0,1.5-0.2,2.2-0.6c0.7-0.4,1.2-1,1.6-1.7c0.4-0.7,0.6-1.6,0.6-2.6S420.1,83.5,419.7,82.8z"/>
	<path class="st5" d="M441.4,81.2v3.5h-12.7v-3.5H441.4z"/>
	<path class="st5" d="M453,89.9l4.2-12.8h4.5l-6.2,16.6h-5.1l-6.1-16.6h4.5L453,89.9z"/>
	<path class="st5" d="M466.8,93.3c-1.1-0.5-1.9-1.2-2.6-2c-0.6-0.8-1-1.8-1-2.8h4.2c0.1,0.6,0.4,1.2,0.9,1.6
		c0.6,0.4,1.2,0.6,2.1,0.6c0.8,0,1.4-0.2,1.9-0.5c0.5-0.3,0.7-0.7,0.7-1.2c0-0.5-0.3-0.9-0.8-1.2c-0.6-0.3-1.4-0.6-2.6-0.9
		c-1.2-0.3-2.3-0.6-3-0.9c-0.8-0.3-1.5-0.8-2-1.5c-0.6-0.7-0.9-1.6-0.9-2.7c0-0.9,0.3-1.8,0.8-2.5c0.5-0.8,1.3-1.4,2.3-1.8
		c1-0.4,2.2-0.7,3.5-0.7c2,0,3.6,0.5,4.7,1.5c1.2,1,1.8,2.3,2,4h-4c-0.1-0.7-0.3-1.2-0.8-1.6c-0.5-0.4-1.1-0.6-2-0.6
		c-0.8,0-1.3,0.1-1.8,0.4c-0.4,0.3-0.6,0.7-0.6,1.2c0,0.6,0.3,1,0.8,1.3c0.6,0.3,1.4,0.6,2.6,0.9c1.2,0.3,2.2,0.6,3,0.9
		c0.8,0.3,1.5,0.8,2,1.5s0.9,1.6,0.9,2.7c0,1-0.3,1.8-0.8,2.6c-0.5,0.8-1.3,1.4-2.3,1.8c-1,0.4-2.1,0.6-3.5,0.6
		C469.1,94,467.9,93.8,466.8,93.3z"/>
	<path class="st5" d="M480.4,80.9c0.7-1.3,1.7-2.3,2.9-3c1.2-0.7,2.7-1.1,4.3-1.1c2.1,0,3.8,0.5,5.1,1.5c1.4,1,2.3,2.5,2.7,4.3h-4.5
		c-0.2-0.7-0.6-1.3-1.2-1.7s-1.3-0.6-2.1-0.6c-1.2,0-2.2,0.4-2.9,1.3c-0.7,0.9-1.1,2.1-1.1,3.7c0,1.6,0.4,2.8,1.1,3.7
		s1.7,1.3,2.9,1.3c1.7,0,2.8-0.8,3.3-2.3h4.5c-0.5,1.8-1.4,3.2-2.7,4.3c-1.4,1.1-3.1,1.6-5.1,1.6c-1.6,0-3-0.4-4.3-1.1
		c-1.2-0.7-2.2-1.7-2.9-3c-0.7-1.3-1.1-2.8-1.1-4.5C479.4,83.7,479.7,82.2,480.4,80.9z"/>
	<path class="st5" d="M501.6,92.9c-1.3-0.7-2.3-1.7-3-3c-0.7-1.3-1.1-2.8-1.1-4.5c0-1.7,0.4-3.2,1.1-4.5c0.8-1.3,1.8-2.3,3.1-3
		c1.3-0.7,2.8-1.1,4.4-1.1s3.1,0.4,4.4,1.1c1.3,0.7,2.3,1.7,3.1,3c0.8,1.3,1.1,2.8,1.1,4.5c0,1.7-0.4,3.2-1.2,4.5
		c-0.8,1.3-1.8,2.3-3.1,3c-1.3,0.7-2.8,1.1-4.4,1.1C504.3,94,502.8,93.6,501.6,92.9z M508,89.8c0.7-0.4,1.2-0.9,1.6-1.7
		c0.4-0.7,0.6-1.6,0.6-2.7c0-1.6-0.4-2.8-1.2-3.6s-1.8-1.3-3-1.3c-1.2,0-2.2,0.4-3,1.3s-1.2,2.1-1.2,3.6c0,1.6,0.4,2.8,1.2,3.6
		s1.8,1.3,3,1.3C506.6,90.3,507.4,90.2,508,89.8z"/>
	<path class="st5" d="M517.6,80.9c0.7-1.3,1.6-2.3,2.7-3c1.2-0.7,2.5-1.1,3.9-1.1c1.1,0,2.1,0.2,3.1,0.7c1,0.5,1.8,1.1,2.3,1.9v-7.9
		h4.3v22.2h-4.3v-2.5c-0.5,0.8-1.3,1.5-2.2,2c-0.9,0.5-2,0.8-3.3,0.8c-1.4,0-2.7-0.4-3.8-1.1c-1.2-0.7-2.1-1.7-2.7-3
		c-0.7-1.3-1-2.8-1-4.5C516.6,83.7,516.9,82.2,517.6,80.9z M529.1,82.8c-0.4-0.7-0.9-1.3-1.6-1.7s-1.4-0.6-2.2-0.6
		c-0.8,0-1.5,0.2-2.2,0.6c-0.7,0.4-1.2,0.9-1.6,1.7c-0.4,0.7-0.6,1.6-0.6,2.6c0,1,0.2,1.9,0.6,2.6c0.4,0.8,1,1.3,1.6,1.7
		c0.7,0.4,1.4,0.6,2.1,0.6c0.8,0,1.5-0.2,2.2-0.6s1.2-1,1.6-1.7c0.4-0.7,0.6-1.6,0.6-2.6S529.5,83.5,529.1,82.8z"/>
	<path class="st5" d="M553.3,86.7h-12.2c0.1,1.2,0.5,2.1,1.3,2.8s1.7,1,2.7,1c1.6,0,2.7-0.7,3.3-2h4.5c-0.5,1.6-1.4,2.9-2.8,3.9
		s-3,1.5-5,1.5c-1.6,0-3-0.4-4.3-1.1c-1.3-0.7-2.3-1.7-3-3c-0.7-1.3-1.1-2.8-1.1-4.5c0-1.7,0.3-3.2,1.1-4.5c0.7-1.3,1.7-2.3,2.9-3
		c1.3-0.7,2.7-1.1,4.4-1.1c1.6,0,3,0.3,4.2,1c1.3,0.7,2.2,1.6,2.9,2.9s1,2.7,1,4.3C553.5,85.7,553.4,86.2,553.3,86.7z M549.1,83.9
		c0-1.1-0.4-1.9-1.2-2.6c-0.8-0.7-1.7-1-2.8-1c-1,0-1.9,0.3-2.6,0.9s-1.1,1.5-1.3,2.6H549.1z"/>
	<path class="st5" d="M569.3,81.2v3.5h-12.7v-3.5H569.3z"/>
</g>
<g>
	<path class="st5" d="M132.9,120.2h-12.2c0.1,1.2,0.5,2.1,1.3,2.8s1.7,1,2.7,1c1.6,0,2.7-0.7,3.3-2h4.5c-0.5,1.6-1.4,2.9-2.8,3.9
		c-1.4,1-3,1.5-5,1.5c-1.6,0-3-0.4-4.3-1.1c-1.3-0.7-2.3-1.7-3-3c-0.7-1.3-1.1-2.8-1.1-4.5c0-1.7,0.3-3.2,1.1-4.5
		c0.7-1.3,1.7-2.3,2.9-3c1.3-0.7,2.7-1.1,4.4-1.1c1.6,0,3,0.3,4.2,1c1.2,0.7,2.2,1.6,2.9,2.9c0.7,1.3,1,2.7,1,4.3
		C133,119.1,132.9,119.7,132.9,120.2z M128.6,117.3c0-1.1-0.4-1.9-1.2-2.6c-0.8-0.7-1.7-1-2.8-1c-1,0-1.9,0.3-2.6,0.9
		c-0.7,0.6-1.1,1.5-1.3,2.6H128.6z"/>
	<path class="st5" d="M145.2,127.2l-3.4-5.2l-3,5.2h-4.5l5.4-8.3l-5.5-8.3h4.7l3.4,5.1l3.1-5.1h4.5l-5.5,8.3l5.5,8.3H145.2z"/>
	<path class="st5" d="M157.1,114v8c0,0.6,0.1,1,0.4,1.2c0.3,0.3,0.7,0.4,1.4,0.4h2v3.5h-2.6c-3.5,0-5.3-1.7-5.3-5.2v-8h-2v-3.5h2
		v-4.1h4.2v4.1h3.7v3.5H157.1z"/>
	<path class="st5" d="M179.2,120.2h-12.2c0.1,1.2,0.5,2.1,1.3,2.8s1.7,1,2.7,1c1.6,0,2.7-0.7,3.3-2h4.5c-0.5,1.6-1.4,2.9-2.8,3.9
		c-1.4,1-3,1.5-5,1.5c-1.6,0-3-0.4-4.3-1.1c-1.3-0.7-2.3-1.7-3-3c-0.7-1.3-1.1-2.8-1.1-4.5c0-1.7,0.3-3.2,1.1-4.5
		c0.7-1.3,1.7-2.3,2.9-3c1.3-0.7,2.7-1.1,4.4-1.1c1.6,0,3,0.3,4.2,1c1.2,0.7,2.2,1.6,2.9,2.9c0.7,1.3,1,2.7,1,4.3
		C179.4,119.1,179.3,119.7,179.2,120.2z M175,117.3c0-1.1-0.4-1.9-1.2-2.6c-0.8-0.7-1.7-1-2.8-1c-1,0-1.9,0.3-2.6,0.9
		c-0.7,0.6-1.1,1.5-1.3,2.6H175z"/>
	<path class="st5" d="M196.4,112.2c1.2,1.3,1.8,3,1.8,5.2v9.8h-4.2V118c0-1.3-0.3-2.3-1-3c-0.7-0.7-1.6-1.1-2.7-1.1
		c-1.2,0-2.1,0.4-2.7,1.1c-0.7,0.7-1,1.7-1,3v9.2h-4.2v-16.6h4.2v2.1c0.6-0.7,1.3-1.3,2.1-1.7c0.9-0.4,1.8-0.6,2.9-0.6
		C193.6,110.3,195.2,111,196.4,112.2z"/>
	<path class="st5" d="M205,126.7c-1.1-0.5-1.9-1.2-2.6-2c-0.6-0.8-1-1.8-1-2.8h4.2c0.1,0.6,0.4,1.2,0.9,1.6c0.5,0.4,1.2,0.6,2.1,0.6
		c0.8,0,1.4-0.2,1.9-0.5c0.5-0.3,0.7-0.7,0.7-1.2c0-0.5-0.3-0.9-0.8-1.2c-0.6-0.3-1.4-0.6-2.6-0.9c-1.2-0.3-2.3-0.6-3-0.9
		c-0.8-0.3-1.5-0.8-2-1.5c-0.6-0.7-0.9-1.6-0.9-2.7c0-0.9,0.3-1.8,0.8-2.5c0.5-0.8,1.3-1.4,2.3-1.8c1-0.4,2.2-0.7,3.5-0.7
		c2,0,3.6,0.5,4.7,1.5c1.2,1,1.8,2.3,2,4h-4c-0.1-0.7-0.3-1.2-0.8-1.6c-0.5-0.4-1.1-0.6-2-0.6c-0.8,0-1.3,0.1-1.8,0.4
		c-0.4,0.3-0.6,0.7-0.6,1.2c0,0.6,0.3,1,0.8,1.3c0.6,0.3,1.4,0.6,2.6,0.9c1.2,0.3,2.2,0.6,3,0.9c0.8,0.3,1.5,0.8,2,1.5
		s0.9,1.6,0.9,2.7c0,1-0.3,1.8-0.8,2.6c-0.5,0.8-1.3,1.4-2.3,1.8c-1,0.4-2.1,0.6-3.5,0.6C207.3,127.5,206,127.2,205,126.7z"/>
	<path class="st5" d="M218.9,107.9c-0.5-0.5-0.7-1.1-0.7-1.8c0-0.7,0.2-1.3,0.7-1.8s1.1-0.7,1.8-0.7s1.4,0.2,1.8,0.7
		s0.7,1.1,0.7,1.8c0,0.7-0.2,1.3-0.7,1.8s-1.1,0.7-1.8,0.7S219.4,108.4,218.9,107.9z M222.8,110.6v16.6h-4.2v-16.6H222.8z"/>
	<path class="st5" d="M230,126.4c-1.3-0.7-2.3-1.7-3-3c-0.7-1.3-1.1-2.8-1.1-4.5c0-1.7,0.4-3.2,1.1-4.5c0.8-1.3,1.8-2.3,3.1-3
		c1.3-0.7,2.8-1.1,4.4-1.1s3.1,0.4,4.4,1.1c1.3,0.7,2.3,1.7,3.1,3s1.1,2.8,1.1,4.5c0,1.7-0.4,3.2-1.2,4.5c-0.8,1.3-1.8,2.3-3.1,3
		c-1.3,0.7-2.8,1.1-4.4,1.1C232.7,127.5,231.3,127.1,230,126.4z M236.5,123.3c0.7-0.4,1.2-0.9,1.6-1.7c0.4-0.7,0.6-1.6,0.6-2.7
		c0-1.6-0.4-2.8-1.2-3.6s-1.8-1.3-3-1.3c-1.2,0-2.2,0.4-3,1.3s-1.2,2.1-1.2,3.6c0,1.6,0.4,2.8,1.2,3.6c0.8,0.9,1.8,1.3,3,1.3
		C235.1,123.8,235.8,123.6,236.5,123.3z"/>
	<path class="st5" d="M260.1,112.2c1.2,1.3,1.8,3,1.8,5.2v9.8h-4.2V118c0-1.3-0.3-2.3-1-3c-0.7-0.7-1.6-1.1-2.7-1.1
		c-1.2,0-2.1,0.4-2.7,1.1c-0.7,0.7-1,1.7-1,3v9.2h-4.2v-16.6h4.2v2.1c0.6-0.7,1.3-1.3,2.1-1.7c0.9-0.4,1.8-0.6,2.9-0.6
		C257.3,110.3,258.9,111,260.1,112.2z"/>
</g>
<g>
	<path class="st5" d="M116.6,81c0.7-1.3,1.6-2.3,2.8-3c1.2-0.7,2.5-1.1,4-1.1c1.4,0,2.7,0.3,3.8,0.9c1.1,0.6,1.9,1.4,2.4,2.3v-3h2.8
		v16.4h-2.8v-3.1c-0.5,1-1.3,1.8-2.4,2.4c-1.1,0.6-2.3,0.9-3.7,0.9c-1.5,0-2.8-0.4-4-1.1c-1.2-0.7-2.1-1.7-2.8-3
		c-0.7-1.3-1-2.8-1-4.4C115.6,83.8,115.9,82.3,116.6,81z M128.8,82.2c-0.5-0.9-1.2-1.6-2-2.1s-1.8-0.7-2.8-0.7s-2,0.2-2.8,0.7
		c-0.8,0.5-1.5,1.2-2,2.1s-0.8,2-0.8,3.2c0,1.3,0.2,2.4,0.8,3.3c0.5,0.9,1.2,1.6,2,2.1c0.8,0.5,1.8,0.7,2.8,0.7s2-0.2,2.8-0.7
		s1.5-1.2,2-2.1c0.5-0.9,0.8-2,0.8-3.3C129.5,84.2,129.3,83.2,128.8,82.2z"/>
	<path class="st5" d="M139.6,71.5v22.2h-2.7V71.5H139.6z"/>
	<path class="st5" d="M159.2,86.5h-13.1c0.1,1.6,0.7,2.9,1.7,3.8c1,0.9,2.2,1.4,3.7,1.4c1.2,0,2.2-0.3,3-0.8s1.3-1.3,1.7-2.2h2.9
		c-0.4,1.6-1.3,2.9-2.6,3.9c-1.3,1-3,1.5-4.9,1.5c-1.6,0-3-0.3-4.2-1.1c-1.2-0.7-2.2-1.7-2.9-3c-0.7-1.3-1.1-2.8-1.1-4.5
		c0-1.7,0.3-3.2,1-4.5c0.7-1.3,1.6-2.3,2.9-3c1.2-0.7,2.6-1,4.2-1c1.6,0,2.9,0.3,4.1,1c1.2,0.7,2.1,1.6,2.8,2.8c0.7,1.2,1,2.5,1,4
		C159.3,85.4,159.3,85.9,159.2,86.5z M155.8,81.6c-0.5-0.8-1.1-1.3-1.9-1.7c-0.8-0.4-1.7-0.6-2.6-0.6c-1.4,0-2.6,0.4-3.5,1.3
		c-1,0.9-1.5,2.1-1.7,3.7h10.4C156.5,83.3,156.2,82.4,155.8,81.6z"/>
	<path class="st5" d="M171.5,93.7l-3.9-6.1l-3.8,6.1H161l5.3-8.2l-5.3-8.3h3.1l3.9,6.1l3.7-6.1h2.9l-5.3,8.1l5.3,8.3H171.5z"/>
	<path class="st5" d="M179.7,93.4c-1-0.4-1.8-1-2.4-1.8c-0.6-0.8-0.9-1.7-1-2.7h2.8c0.1,0.8,0.5,1.5,1.2,2c0.7,0.5,1.6,0.8,2.7,0.8
		c1,0,1.9-0.2,2.5-0.7c0.6-0.5,0.9-1,0.9-1.7c0-0.7-0.3-1.3-1-1.6c-0.6-0.3-1.6-0.7-3-1c-1.2-0.3-2.2-0.6-3-1
		c-0.8-0.3-1.4-0.8-2-1.5c-0.6-0.6-0.8-1.5-0.8-2.6c0-0.8,0.2-1.6,0.8-2.3c0.5-0.7,1.2-1.3,2.1-1.7c0.9-0.4,2-0.6,3.2-0.6
		c1.8,0,3.3,0.5,4.4,1.4c1.1,0.9,1.7,2.2,1.8,3.8h-2.7c-0.1-0.9-0.4-1.6-1-2.1c-0.6-0.5-1.5-0.8-2.5-0.8c-1,0-1.8,0.2-2.3,0.6
		c-0.6,0.4-0.9,1-0.9,1.7c0,0.5,0.2,1,0.5,1.3c0.3,0.4,0.8,0.6,1.3,0.8s1.3,0.4,2.2,0.7c1.2,0.3,2.1,0.6,2.9,0.9
		c0.7,0.3,1.4,0.8,1.9,1.4c0.5,0.6,0.8,1.4,0.8,2.4c0,0.9-0.2,1.7-0.8,2.4c-0.5,0.7-1.2,1.3-2.1,1.7c-0.9,0.4-2,0.6-3.1,0.6
		C181.8,94,180.7,93.8,179.7,93.4z"/>
	<path class="st5" d="M192.9,81c0.7-1.3,1.6-2.3,2.8-3c1.2-0.7,2.5-1.1,4-1.1c1.4,0,2.7,0.3,3.8,0.9c1.1,0.6,1.9,1.4,2.4,2.3v-3h2.8
		v16.4h-2.8v-3.1c-0.5,1-1.3,1.8-2.4,2.4c-1.1,0.6-2.3,0.9-3.7,0.9c-1.5,0-2.8-0.4-4-1.1c-1.2-0.7-2.1-1.7-2.8-3
		c-0.7-1.3-1-2.8-1-4.4C191.9,83.8,192.3,82.3,192.9,81z M205.1,82.2c-0.5-0.9-1.2-1.6-2-2.1c-0.9-0.5-1.8-0.7-2.8-0.7
		s-2,0.2-2.8,0.7c-0.8,0.5-1.5,1.2-2,2.1c-0.5,0.9-0.8,2-0.8,3.2c0,1.3,0.2,2.4,0.8,3.3c0.5,0.9,1.2,1.6,2,2.1
		c0.8,0.5,1.8,0.7,2.8,0.7s2-0.2,2.8-0.7c0.8-0.5,1.5-1.2,2-2.1c0.5-0.9,0.8-2,0.8-3.3C205.8,84.2,205.6,83.2,205.1,82.2z"/>
	<path class="st5" d="M226.1,78.8c1.2,1.2,1.9,3,1.9,5.2v9.7h-2.7v-9.3c0-1.6-0.4-2.9-1.2-3.8c-0.8-0.9-1.9-1.3-3.4-1.3
		c-1.4,0-2.6,0.5-3.4,1.4s-1.3,2.2-1.3,3.9v9.1h-2.7V77.3h2.7v2.3c0.5-0.8,1.3-1.5,2.2-2c0.9-0.5,2-0.7,3.1-0.7
		C223.2,77,224.9,77.6,226.1,78.8z"/>
	<path class="st5" d="M235.8,79.5v9.7c0,0.8,0.2,1.4,0.5,1.7c0.3,0.3,0.9,0.5,1.8,0.5h2v2.3h-2.5c-1.5,0-2.7-0.4-3.4-1.1
		c-0.8-0.7-1.1-1.9-1.1-3.5v-9.7h-2.1v-2.3h2.1v-4.1h2.7v4.1h4.3v2.3H235.8z"/>
	<path class="st5" d="M246.3,92.9c-1.3-0.7-2.2-1.7-2.9-3c-0.7-1.3-1.1-2.8-1.1-4.5c0-1.7,0.4-3.2,1.1-4.5c0.7-1.3,1.7-2.3,3-3
		c1.3-0.7,2.7-1,4.2-1c1.6,0,3,0.3,4.2,1c1.3,0.7,2.3,1.7,3,3c0.7,1.3,1.1,2.8,1.1,4.5c0,1.7-0.4,3.2-1.1,4.5c-0.8,1.3-1.8,2.3-3,3
		c-1.3,0.7-2.7,1.1-4.3,1.1C249,94,247.6,93.6,246.3,92.9z M253.3,90.9c0.9-0.5,1.6-1.2,2.1-2.1s0.8-2,0.8-3.4s-0.3-2.4-0.8-3.4
		c-0.5-0.9-1.2-1.6-2-2.1c-0.8-0.5-1.8-0.7-2.7-0.7c-1,0-1.9,0.2-2.7,0.7s-1.5,1.1-2,2.1c-0.5,0.9-0.8,2-0.8,3.4
		c0,1.3,0.2,2.5,0.7,3.4c0.5,0.9,1.1,1.6,2,2.1s1.7,0.7,2.7,0.7S252.4,91.4,253.3,90.9z"/>
	<path class="st5" d="M265,93.4c-1-0.4-1.8-1-2.4-1.8c-0.6-0.8-0.9-1.7-1-2.7h2.8c0.1,0.8,0.5,1.5,1.2,2c0.7,0.5,1.6,0.8,2.7,0.8
		c1,0,1.9-0.2,2.5-0.7c0.6-0.5,0.9-1,0.9-1.7c0-0.7-0.3-1.3-1-1.6c-0.6-0.3-1.6-0.7-3-1c-1.2-0.3-2.2-0.6-3-1
		c-0.8-0.3-1.4-0.8-2-1.5c-0.6-0.6-0.8-1.5-0.8-2.6c0-0.8,0.2-1.6,0.8-2.3c0.5-0.7,1.2-1.3,2.1-1.7c0.9-0.4,2-0.6,3.2-0.6
		c1.8,0,3.3,0.5,4.4,1.4c1.1,0.9,1.7,2.2,1.8,3.8h-2.7c-0.1-0.9-0.4-1.6-1-2.1c-0.6-0.5-1.5-0.8-2.5-0.8c-1,0-1.8,0.2-2.3,0.6
		c-0.6,0.4-0.9,1-0.9,1.7c0,0.5,0.2,1,0.5,1.3c0.3,0.4,0.8,0.6,1.3,0.8s1.3,0.4,2.2,0.7c1.2,0.3,2.1,0.6,2.9,0.9
		c0.7,0.3,1.4,0.8,1.9,1.4c0.5,0.6,0.8,1.4,0.8,2.4c0,0.9-0.2,1.7-0.8,2.4c-0.5,0.7-1.2,1.3-2.1,1.7c-0.9,0.4-2,0.6-3.1,0.6
		C267.1,94,266,93.8,265,93.4z"/>
	<path class="st5" d="M278.2,81c0.7-1.3,1.6-2.3,2.8-3c1.2-0.7,2.5-1.1,4-1.1c1.3,0,2.5,0.3,3.6,0.9c1.1,0.6,1.9,1.4,2.5,2.3v-8.7
		h2.8v22.2h-2.8v-3.1c-0.5,1-1.3,1.8-2.4,2.4S286.4,94,285,94c-1.5,0-2.8-0.4-4-1.1c-1.2-0.7-2.1-1.7-2.8-3c-0.7-1.3-1-2.8-1-4.4
		C277.2,83.8,277.6,82.3,278.2,81z M290.4,82.2c-0.5-0.9-1.2-1.6-2-2.1s-1.8-0.7-2.8-0.7s-2,0.2-2.8,0.7c-0.8,0.5-1.5,1.2-2,2.1
		s-0.8,2-0.8,3.2c0,1.3,0.2,2.4,0.8,3.3c0.5,0.9,1.2,1.6,2,2.1c0.8,0.5,1.8,0.7,2.8,0.7s2-0.2,2.8-0.7s1.5-1.2,2-2.1
		c0.5-0.9,0.8-2,0.8-3.3C291.1,84.2,290.9,83.2,290.4,82.2z"/>
	<path class="st5" d="M313.4,86.5h-13.1c0.1,1.6,0.7,2.9,1.7,3.8c1,0.9,2.2,1.4,3.7,1.4c1.2,0,2.2-0.3,3-0.8
		c0.8-0.6,1.3-1.3,1.7-2.2h2.9c-0.4,1.6-1.3,2.9-2.6,3.9c-1.3,1-3,1.5-4.9,1.5c-1.6,0-3-0.3-4.2-1.1c-1.2-0.7-2.2-1.7-2.9-3
		c-0.7-1.3-1.1-2.8-1.1-4.5c0-1.7,0.3-3.2,1-4.5c0.7-1.3,1.6-2.3,2.9-3c1.2-0.7,2.6-1,4.2-1c1.6,0,2.9,0.3,4.1,1
		c1.2,0.7,2.1,1.6,2.8,2.8c0.6,1.2,1,2.5,1,4C313.5,85.4,313.5,85.9,313.4,86.5z M310,81.6c-0.5-0.8-1.1-1.3-1.9-1.7
		c-0.8-0.4-1.7-0.6-2.6-0.6c-1.4,0-2.6,0.4-3.5,1.3c-1,0.9-1.5,2.1-1.7,3.7h10.4C310.7,83.3,310.5,82.4,310,81.6z"/>
	<path class="st5" d="M323.3,91.2l5.1-13.9h2.9l-6.5,16.4h-3.2l-6.5-16.4h2.9L323.3,91.2z"/>
	<path class="st5" d="M344.2,65.5l-8.2,33.4h-2.7l8.2-33.4H344.2z"/>
</g>
<g>
	<path class="st6" d="M126.8,171c1.3,0.7,2.3,1.6,3,2.8c0.7,1.2,1,2.6,1,4.3c0,1.6-0.3,3.1-1,4.3c-0.7,1.2-1.7,2.1-3,2.8
		c-1.3,0.6-2.8,1-4.6,1h-5V170h5C124,170,125.5,170.3,126.8,171z M127,182.7c1.1-1.1,1.6-2.6,1.6-4.6c0-2-0.5-3.6-1.7-4.7
		c-1.1-1.1-2.7-1.7-4.7-1.7h-2.9v12.7h2.9C124.3,184.3,125.9,183.8,127,182.7z"/>
	<path class="st6" d="M133.6,176.3c0.5-1,1.2-1.7,2.2-2.3c0.9-0.5,1.9-0.8,3.1-0.8c1.1,0,2.1,0.2,2.9,0.7c0.8,0.5,1.4,1.1,1.8,1.8
		v-2.3h2.1v12.7h-2.1v-2.4c-0.4,0.7-1,1.4-1.9,1.8c-0.8,0.5-1.8,0.7-2.9,0.7c-1.1,0-2.1-0.3-3-0.8c-0.9-0.6-1.6-1.3-2.1-2.3
		c-0.5-1-0.8-2.1-0.8-3.4C132.8,178.4,133,177.3,133.6,176.3z M142.9,177.2c-0.4-0.7-0.9-1.3-1.6-1.6s-1.4-0.6-2.2-0.6
		c-0.8,0-1.5,0.2-2.1,0.6c-0.6,0.4-1.2,0.9-1.5,1.6c-0.4,0.7-0.6,1.5-0.6,2.5c0,1,0.2,1.8,0.6,2.5c0.4,0.7,0.9,1.3,1.5,1.6
		c0.6,0.4,1.4,0.6,2.1,0.6c0.8,0,1.5-0.2,2.2-0.6c0.7-0.4,1.2-0.9,1.6-1.6c0.4-0.7,0.6-1.6,0.6-2.5
		C143.5,178.8,143.3,177.9,142.9,177.2z"/>
	<path class="st6" d="M151.7,175.2v7.5c0,0.6,0.1,1.1,0.4,1.3s0.7,0.4,1.4,0.4h1.5v1.8h-1.9c-1.2,0-2-0.3-2.6-0.8
		c-0.6-0.5-0.9-1.4-0.9-2.7v-7.5H148v-1.7h1.6v-3.2h2.1v3.2h3.3v1.7H151.7z"/>
	<path class="st6" d="M157.6,176.3c0.5-1,1.2-1.7,2.2-2.3c0.9-0.5,1.9-0.8,3.1-0.8c1.1,0,2.1,0.2,2.9,0.7c0.8,0.5,1.4,1.1,1.8,1.8
		v-2.3h2.1v12.7h-2.1v-2.4c-0.4,0.7-1,1.4-1.9,1.8s-1.8,0.7-2.9,0.7c-1.1,0-2.1-0.3-3-0.8c-0.9-0.6-1.6-1.3-2.1-2.3
		s-0.8-2.1-0.8-3.4C156.8,178.4,157,177.3,157.6,176.3z M166.9,177.2c-0.4-0.7-0.9-1.3-1.6-1.6s-1.4-0.6-2.2-0.6s-1.5,0.2-2.1,0.6
		c-0.6,0.4-1.2,0.9-1.5,1.6s-0.6,1.5-0.6,2.5c0,1,0.2,1.8,0.6,2.5s0.9,1.3,1.5,1.6c0.6,0.4,1.4,0.6,2.1,0.6s1.5-0.2,2.2-0.6
		c0.7-0.4,1.2-0.9,1.6-1.6s0.6-1.6,0.6-2.5C167.5,178.8,167.3,177.9,166.9,177.2z"/>
	<path class="st6" d="M177.2,173.9c0.8-0.5,1.8-0.7,2.8-0.7c1.1,0,2.2,0.3,3.1,0.8c0.9,0.5,1.6,1.3,2.1,2.3c0.5,1,0.8,2.1,0.8,3.4
		c0,1.3-0.3,2.4-0.8,3.4s-1.2,1.8-2.2,2.3c-0.9,0.6-1.9,0.8-3.1,0.8c-1.1,0-2.1-0.2-2.9-0.7c-0.8-0.5-1.4-1.1-1.9-1.8v2.3h-2.1V169
		h2.1v6.8C175.7,175,176.3,174.4,177.2,173.9z M183.3,177.2c-0.4-0.7-0.9-1.2-1.6-1.6c-0.7-0.4-1.4-0.6-2.2-0.6
		c-0.8,0-1.5,0.2-2.1,0.6s-1.2,0.9-1.6,1.6c-0.4,0.7-0.6,1.5-0.6,2.5c0,1,0.2,1.8,0.6,2.5c0.4,0.7,0.9,1.3,1.6,1.6
		c0.7,0.4,1.4,0.6,2.1,0.6c0.8,0,1.5-0.2,2.2-0.6c0.7-0.4,1.2-0.9,1.6-1.6s0.6-1.6,0.6-2.5C183.9,178.8,183.7,177.9,183.3,177.2z"/>
	<path class="st6" d="M188.8,176.3c0.5-1,1.2-1.7,2.2-2.3c0.9-0.5,1.9-0.8,3.1-0.8c1.1,0,2.1,0.2,2.9,0.7c0.8,0.5,1.4,1.1,1.8,1.8
		v-2.3h2.1v12.7h-2.1v-2.4c-0.4,0.7-1,1.4-1.9,1.8s-1.8,0.7-2.9,0.7c-1.1,0-2.1-0.3-3-0.8c-0.9-0.6-1.6-1.3-2.1-2.3
		s-0.8-2.1-0.8-3.4C188,178.4,188.3,177.3,188.8,176.3z M198.1,177.2c-0.4-0.7-0.9-1.3-1.6-1.6s-1.4-0.6-2.2-0.6s-1.5,0.2-2.1,0.6
		c-0.6,0.4-1.2,0.9-1.5,1.6s-0.6,1.5-0.6,2.5c0,1,0.2,1.8,0.6,2.5s0.9,1.3,1.5,1.6c0.6,0.4,1.4,0.6,2.1,0.6s1.5-0.2,2.2-0.6
		c0.7-0.4,1.2-0.9,1.6-1.6s0.6-1.6,0.6-2.5C198.7,178.8,198.5,177.9,198.1,177.2z"/>
	<path class="st6" d="M206.3,185.8c-0.8-0.3-1.4-0.8-1.8-1.4c-0.4-0.6-0.7-1.3-0.7-2h2.2c0.1,0.6,0.4,1.1,0.9,1.5
		c0.5,0.4,1.2,0.6,2.1,0.6c0.8,0,1.4-0.2,1.9-0.5c0.5-0.4,0.7-0.8,0.7-1.3c0-0.6-0.2-1-0.7-1.2c-0.5-0.3-1.3-0.5-2.3-0.8
		c-0.9-0.2-1.7-0.5-2.3-0.8s-1.1-0.6-1.5-1.1c-0.4-0.5-0.6-1.2-0.6-2c0-0.6,0.2-1.2,0.6-1.8c0.4-0.5,0.9-1,1.6-1.3
		c0.7-0.3,1.5-0.5,2.4-0.5c1.4,0,2.5,0.4,3.4,1.1c0.9,0.7,1.3,1.7,1.4,2.9h-2.1c0-0.7-0.3-1.2-0.8-1.6c-0.5-0.4-1.1-0.6-2-0.6
		c-0.8,0-1.4,0.2-1.8,0.5c-0.4,0.3-0.7,0.7-0.7,1.3c0,0.4,0.1,0.8,0.4,1c0.3,0.3,0.6,0.5,1,0.6c0.4,0.2,1,0.3,1.7,0.5
		c0.9,0.2,1.6,0.5,2.2,0.7c0.6,0.2,1.1,0.6,1.5,1.1c0.4,0.5,0.6,1.1,0.6,1.9c0,0.7-0.2,1.3-0.6,1.9c-0.4,0.6-0.9,1-1.6,1.3
		c-0.7,0.3-1.5,0.5-2.4,0.5C207.9,186.3,207,186.1,206.3,185.8z"/>
	<path class="st6" d="M227.9,180.5h-10.1c0.1,1.2,0.5,2.2,1.3,2.9c0.8,0.7,1.7,1.1,2.8,1.1c0.9,0,1.7-0.2,2.3-0.6
		c0.6-0.4,1-1,1.3-1.7h2.3c-0.3,1.2-1,2.2-2,3s-2.3,1.1-3.8,1.1c-1.2,0-2.3-0.3-3.2-0.8c-0.9-0.5-1.7-1.3-2.2-2.3s-0.8-2.1-0.8-3.5
		c0-1.3,0.3-2.5,0.8-3.4c0.5-1,1.3-1.7,2.2-2.3c0.9-0.5,2-0.8,3.3-0.8c1.2,0,2.3,0.3,3.2,0.8c0.9,0.5,1.6,1.2,2.1,2.2
		c0.5,0.9,0.8,2,0.8,3.1C228,179.7,228,180.1,227.9,180.5z M225.3,176.8c-0.4-0.6-0.8-1-1.4-1.3c-0.6-0.3-1.3-0.5-2-0.5
		c-1.1,0-2,0.3-2.7,1c-0.7,0.7-1.2,1.6-1.3,2.8h8C225.8,178,225.6,177.3,225.3,176.8z"/>
	<path class="st6" d="M237.2,173.8c0.7-1.3,1.7-2.2,2.9-2.9s2.6-1.1,4.1-1.1c1.8,0,3.3,0.4,4.6,1.3c1.3,0.8,2.3,2,2.9,3.6h-2.5
		c-0.4-1-1.1-1.7-1.9-2.2c-0.8-0.5-1.8-0.8-3-0.8c-1.1,0-2.1,0.3-3,0.8c-0.9,0.5-1.6,1.3-2.1,2.2s-0.8,2.1-0.8,3.4
		c0,1.3,0.3,2.4,0.8,3.4s1.2,1.7,2.1,2.2c0.9,0.5,1.9,0.8,3,0.8c1.2,0,2.2-0.3,3-0.8c0.8-0.5,1.5-1.3,1.9-2.2h2.5
		c-0.6,1.5-1.6,2.7-2.9,3.6c-1.3,0.8-2.8,1.3-4.6,1.3c-1.5,0-2.9-0.4-4.1-1.1c-1.2-0.7-2.2-1.7-2.9-2.9s-1.1-2.7-1.1-4.2
		S236.5,175,237.2,173.8z"/>
	<path class="st6" d="M256.8,169v17.1h-2.1V169H256.8z"/>
	<path class="st6" d="M260.5,171c-0.3-0.3-0.4-0.6-0.4-1c0-0.4,0.1-0.7,0.4-1s0.6-0.4,1-0.4c0.4,0,0.7,0.1,1,0.4s0.4,0.6,0.4,1
		c0,0.4-0.1,0.7-0.4,1s-0.6,0.4-1,0.4C261.1,171.4,260.8,171.2,260.5,171z M262.5,173.4v12.7h-2.1v-12.7H262.5z"/>
	<path class="st6" d="M277.6,180.5h-10.1c0.1,1.2,0.5,2.2,1.3,2.9c0.8,0.7,1.7,1.1,2.8,1.1c0.9,0,1.7-0.2,2.3-0.6
		c0.6-0.4,1-1,1.3-1.7h2.3c-0.3,1.2-1,2.2-2,3s-2.3,1.1-3.8,1.1c-1.2,0-2.3-0.3-3.2-0.8c-0.9-0.5-1.7-1.3-2.2-2.3s-0.8-2.1-0.8-3.5
		c0-1.3,0.3-2.5,0.8-3.4c0.5-1,1.3-1.7,2.2-2.3c0.9-0.5,2-0.8,3.3-0.8c1.2,0,2.3,0.3,3.2,0.8c0.9,0.5,1.6,1.2,2.1,2.2
		c0.5,0.9,0.8,2,0.8,3.1C277.6,179.7,277.6,180.1,277.6,180.5z M274.9,176.8c-0.4-0.6-0.8-1-1.4-1.3c-0.6-0.3-1.3-0.5-2-0.5
		c-1.1,0-2,0.3-2.7,1c-0.7,0.7-1.2,1.6-1.3,2.8h8C275.5,178,275.3,177.3,274.9,176.8z"/>
	<path class="st6" d="M290.3,174.6c1,0.9,1.4,2.3,1.4,4v7.5h-2.1v-7.2c0-1.3-0.3-2.2-0.9-2.9c-0.6-0.7-1.5-1-2.6-1
		c-1.1,0-2,0.3-2.6,1c-0.7,0.7-1,1.7-1,3v7h-2.1v-12.7h2.1v1.8c0.4-0.6,1-1.1,1.7-1.5c0.7-0.4,1.5-0.5,2.4-0.5
		C288.1,173.2,289.4,173.7,290.3,174.6z"/>
	<path class="st6" d="M297.8,175.2v7.5c0,0.6,0.1,1.1,0.4,1.3s0.7,0.4,1.4,0.4h1.5v1.8h-1.9c-1.2,0-2-0.3-2.6-0.8
		c-0.6-0.5-0.9-1.4-0.9-2.7v-7.5H294v-1.7h1.6v-3.2h2.1v3.2h3.3v1.7H297.8z"/>
	<path class="st6" d="M311.9,171.7v5.4h5.9v1.7h-5.9v5.5h6.6v1.7h-8.7V170h8.7v1.7H311.9z"/>
	<path class="st6" d="M328.2,186.1l-3-4.7l-2.9,4.7h-2.2l4.1-6.3l-4.1-6.4h2.4l3,4.7l2.9-4.7h2.2l-4.1,6.3l4.1,6.4H328.2z"/>
	<path class="st6" d="M335.2,175.2v7.5c0,0.6,0.1,1.1,0.4,1.3s0.7,0.4,1.4,0.4h1.5v1.8h-1.9c-1.2,0-2-0.3-2.6-0.8
		c-0.6-0.5-0.9-1.4-0.9-2.7v-7.5h-1.6v-1.7h1.6v-3.2h2.1v3.2h3.3v1.7H335.2z"/>
	<path class="st6" d="M352.5,180.5h-10.1c0.1,1.2,0.5,2.2,1.3,2.9c0.8,0.7,1.7,1.1,2.8,1.1c0.9,0,1.7-0.2,2.3-0.6
		c0.6-0.4,1-1,1.3-1.7h2.3c-0.3,1.2-1,2.2-2,3c-1,0.8-2.3,1.1-3.8,1.1c-1.2,0-2.3-0.3-3.2-0.8c-0.9-0.5-1.7-1.3-2.2-2.3
		c-0.5-1-0.8-2.1-0.8-3.5c0-1.3,0.3-2.5,0.8-3.4s1.3-1.7,2.2-2.3c0.9-0.5,2-0.8,3.3-0.8c1.2,0,2.3,0.3,3.2,0.8
		c0.9,0.5,1.6,1.2,2.1,2.2c0.5,0.9,0.8,2,0.8,3.1C352.6,179.7,352.6,180.1,352.5,180.5z M349.9,176.8c-0.4-0.6-0.8-1-1.4-1.3
		c-0.6-0.3-1.3-0.5-2-0.5c-1.1,0-2,0.3-2.7,1c-0.7,0.7-1.2,1.6-1.3,2.8h8C350.4,178,350.3,177.3,349.9,176.8z"/>
	<path class="st6" d="M365.3,174.6c1,0.9,1.4,2.3,1.4,4v7.5h-2.1v-7.2c0-1.3-0.3-2.2-0.9-2.9s-1.5-1-2.6-1c-1.1,0-2,0.3-2.6,1
		c-0.7,0.7-1,1.7-1,3v7h-2.1v-12.7h2.1v1.8c0.4-0.6,1-1.1,1.7-1.5c0.7-0.4,1.5-0.5,2.4-0.5C363.1,173.2,364.3,173.7,365.3,174.6z"/>
	<path class="st6" d="M372,185.8c-0.8-0.3-1.4-0.8-1.8-1.4c-0.4-0.6-0.7-1.3-0.7-2h2.2c0.1,0.6,0.4,1.1,0.9,1.5
		c0.5,0.4,1.2,0.6,2.1,0.6c0.8,0,1.4-0.2,1.9-0.5c0.5-0.4,0.7-0.8,0.7-1.3c0-0.6-0.2-1-0.7-1.2c-0.5-0.3-1.3-0.5-2.3-0.8
		c-0.9-0.2-1.7-0.5-2.3-0.8c-0.6-0.3-1.1-0.6-1.5-1.1c-0.4-0.5-0.6-1.2-0.6-2c0-0.6,0.2-1.2,0.6-1.8c0.4-0.5,0.9-1,1.6-1.3
		c0.7-0.3,1.5-0.5,2.4-0.5c1.4,0,2.5,0.4,3.4,1.1c0.9,0.7,1.3,1.7,1.4,2.9H377c0-0.7-0.3-1.2-0.8-1.6c-0.5-0.4-1.1-0.6-2-0.6
		c-0.8,0-1.4,0.2-1.8,0.5s-0.7,0.7-0.7,1.3c0,0.4,0.1,0.8,0.4,1c0.3,0.3,0.6,0.5,1,0.6c0.4,0.2,1,0.3,1.7,0.5
		c0.9,0.2,1.6,0.5,2.2,0.7c0.6,0.2,1.1,0.6,1.5,1.1c0.4,0.5,0.6,1.1,0.6,1.9c0,0.7-0.2,1.3-0.6,1.9s-0.9,1-1.6,1.3
		c-0.7,0.3-1.5,0.5-2.4,0.5C373.7,186.3,372.8,186.1,372,185.8z"/>
	<path class="st6" d="M382.3,171c-0.3-0.3-0.4-0.6-0.4-1c0-0.4,0.1-0.7,0.4-1s0.6-0.4,1-0.4c0.4,0,0.7,0.1,1,0.4s0.4,0.6,0.4,1
		c0,0.4-0.1,0.7-0.4,1s-0.6,0.4-1,0.4C382.9,171.4,382.6,171.2,382.3,171z M384.3,173.4v12.7h-2.1v-12.7H384.3z"/>
	<path class="st6" d="M390.2,185.5c-1-0.5-1.7-1.3-2.3-2.3c-0.5-1-0.8-2.1-0.8-3.5c0-1.3,0.3-2.4,0.8-3.4c0.6-1,1.3-1.8,2.3-2.3
		c1-0.5,2.1-0.8,3.3-0.8c1.2,0,2.3,0.3,3.3,0.8c1,0.5,1.7,1.3,2.3,2.3c0.6,1,0.8,2.1,0.8,3.4c0,1.3-0.3,2.5-0.9,3.5
		s-1.4,1.8-2.3,2.3s-2.1,0.8-3.3,0.8C392.2,186.3,391.1,186,390.2,185.5z M395.5,183.9c0.7-0.4,1.2-0.9,1.6-1.6
		c0.4-0.7,0.6-1.6,0.6-2.6c0-1-0.2-1.9-0.6-2.6c-0.4-0.7-0.9-1.2-1.6-1.6s-1.3-0.5-2.1-0.5c-0.8,0-1.5,0.2-2.1,0.5s-1.2,0.9-1.5,1.6
		c-0.4,0.7-0.6,1.6-0.6,2.6c0,1,0.2,1.9,0.6,2.6c0.4,0.7,0.9,1.2,1.5,1.6s1.3,0.5,2.1,0.5S394.9,184.3,395.5,183.9z"/>
	<path class="st6" d="M412.6,174.6c1,0.9,1.4,2.3,1.4,4v7.5h-2.1v-7.2c0-1.3-0.3-2.2-0.9-2.9c-0.6-0.7-1.5-1-2.6-1
		c-1.1,0-2,0.3-2.6,1c-0.7,0.7-1,1.7-1,3v7h-2.1v-12.7h2.1v1.8c0.4-0.6,1-1.1,1.7-1.5c0.7-0.4,1.5-0.5,2.4-0.5
		C410.4,173.2,411.6,173.7,412.6,174.6z"/>
	<path class="st6" d="M428.8,175.2h-2.7v10.9H424v-10.9h-1.6v-1.7h1.6v-0.9c0-1.4,0.4-2.5,1.1-3.1c0.7-0.7,1.9-1,3.5-1v1.8
		c-0.9,0-1.6,0.2-2,0.5s-0.6,1-0.6,1.8v0.9h2.7V175.2z"/>
	<path class="st6" d="M433.5,185.5c-1-0.5-1.7-1.3-2.3-2.3c-0.5-1-0.8-2.1-0.8-3.5c0-1.3,0.3-2.4,0.8-3.4c0.6-1,1.3-1.8,2.3-2.3
		c1-0.5,2.1-0.8,3.3-0.8c1.2,0,2.3,0.3,3.3,0.8c1,0.5,1.7,1.3,2.3,2.3c0.6,1,0.8,2.1,0.8,3.4c0,1.3-0.3,2.5-0.9,3.5
		s-1.4,1.8-2.3,2.3s-2.1,0.8-3.3,0.8C435.5,186.3,434.5,186,433.5,185.5z M438.8,183.9c0.7-0.4,1.2-0.9,1.6-1.6
		c0.4-0.7,0.6-1.6,0.6-2.6c0-1-0.2-1.9-0.6-2.6c-0.4-0.7-0.9-1.2-1.6-1.6s-1.3-0.5-2.1-0.5c-0.8,0-1.5,0.2-2.1,0.5s-1.2,0.9-1.5,1.6
		c-0.4,0.7-0.6,1.6-0.6,2.6c0,1,0.2,1.9,0.6,2.6c0.4,0.7,0.9,1.2,1.5,1.6s1.3,0.5,2.1,0.5S438.2,184.3,438.8,183.9z"/>
	<path class="st6" d="M449.7,173.8c0.7-0.4,1.5-0.6,2.5-0.6v2.2h-0.6c-2.4,0-3.5,1.3-3.5,3.8v6.9H446v-12.7h2.1v2.1
		C448.4,174.8,449,174.2,449.7,173.8z"/>
	<path class="st6" d="M474,170l-6.1,16.1h-2.4l-6.1-16.1h2.2l5.1,13.9l5.1-13.9H474z"/>
	<path class="st6" d="M476.4,171c-0.3-0.3-0.4-0.6-0.4-1c0-0.4,0.1-0.7,0.4-1c0.3-0.3,0.6-0.4,1-0.4c0.4,0,0.7,0.1,1,0.4
		s0.4,0.6,0.4,1c0,0.4-0.1,0.7-0.4,1s-0.6,0.4-1,0.4C477,171.4,476.7,171.2,476.4,171z M478.5,173.4v12.7h-2.1v-12.7H478.5z"/>
	<path class="st6" d="M483.9,185.8c-0.8-0.3-1.4-0.8-1.8-1.4c-0.4-0.6-0.7-1.3-0.7-2h2.2c0.1,0.6,0.4,1.1,0.9,1.5
		c0.5,0.4,1.2,0.6,2.1,0.6c0.8,0,1.4-0.2,1.9-0.5c0.5-0.4,0.7-0.8,0.7-1.3c0-0.6-0.2-1-0.7-1.2c-0.5-0.3-1.3-0.5-2.3-0.8
		c-0.9-0.2-1.7-0.5-2.3-0.8c-0.6-0.3-1.1-0.6-1.5-1.1c-0.4-0.5-0.6-1.2-0.6-2c0-0.6,0.2-1.2,0.6-1.8c0.4-0.5,0.9-1,1.6-1.3
		c0.7-0.3,1.5-0.5,2.4-0.5c1.4,0,2.5,0.4,3.4,1.1c0.9,0.7,1.3,1.7,1.4,2.9h-2.1c0-0.7-0.3-1.2-0.8-1.6c-0.5-0.4-1.1-0.6-2-0.6
		c-0.8,0-1.4,0.2-1.8,0.5s-0.7,0.7-0.7,1.3c0,0.4,0.1,0.8,0.4,1c0.3,0.3,0.6,0.5,1,0.6c0.4,0.2,1,0.3,1.7,0.5
		c0.9,0.2,1.6,0.5,2.2,0.7c0.6,0.2,1.1,0.6,1.5,1.1s0.6,1.1,0.6,1.9c0,0.7-0.2,1.3-0.6,1.9s-0.9,1-1.6,1.3c-0.7,0.3-1.5,0.5-2.4,0.5
		C485.5,186.3,484.7,186.1,483.9,185.8z"/>
	<path class="st6" d="M505.3,173.4v12.7h-2.1v-1.9c-0.4,0.6-1,1.2-1.7,1.5s-1.5,0.5-2.4,0.5c-1,0-1.9-0.2-2.7-0.6
		c-0.8-0.4-1.4-1-1.9-1.8c-0.5-0.8-0.7-1.8-0.7-3v-7.4h2.1v7.1c0,1.2,0.3,2.2,0.9,2.9s1.5,1,2.6,1c1.1,0,2-0.3,2.7-1
		c0.6-0.7,1-1.7,1-3v-6.9H505.3z"/>
	<path class="st6" d="M508.9,176.3c0.5-1,1.2-1.7,2.2-2.3c0.9-0.5,1.9-0.8,3.1-0.8c1.1,0,2.1,0.2,2.9,0.7c0.8,0.5,1.4,1.1,1.8,1.8
		v-2.3h2.1v12.7h-2.1v-2.4c-0.4,0.7-1,1.4-1.9,1.8s-1.8,0.7-2.9,0.7c-1.1,0-2.1-0.3-3-0.8c-0.9-0.6-1.6-1.3-2.1-2.3
		s-0.8-2.1-0.8-3.4C508.1,178.4,508.3,177.3,508.9,176.3z M518.2,177.2c-0.4-0.7-0.9-1.3-1.6-1.6c-0.7-0.4-1.4-0.6-2.2-0.6
		s-1.5,0.2-2.1,0.6c-0.6,0.4-1.2,0.9-1.5,1.6s-0.6,1.5-0.6,2.5c0,1,0.2,1.8,0.6,2.5s0.9,1.3,1.5,1.6c0.6,0.4,1.4,0.6,2.1,0.6
		s1.5-0.2,2.2-0.6c0.7-0.4,1.2-0.9,1.6-1.6s0.6-1.6,0.6-2.5C518.8,178.8,518.6,177.9,518.2,177.2z"/>
	<path class="st6" d="M526.6,169v17.1h-2.1V169H526.6z"/>
	<path class="st6" d="M538.6,185.7c-0.8-0.4-1.5-0.9-2-1.6c-0.5-0.7-0.7-1.4-0.7-2.3h2.2c0.1,0.8,0.4,1.4,0.9,1.9
		c0.5,0.5,1.3,0.8,2.4,0.8c1,0,1.8-0.2,2.4-0.8c0.6-0.5,0.9-1.1,0.9-1.9c0-0.6-0.2-1.1-0.5-1.5s-0.8-0.7-1.3-0.9
		c-0.5-0.2-1.2-0.4-2.1-0.6c-1.1-0.3-1.9-0.6-2.6-0.8c-0.6-0.3-1.2-0.7-1.6-1.3c-0.5-0.6-0.7-1.4-0.7-2.4c0-0.9,0.2-1.7,0.7-2.3
		c0.4-0.7,1.1-1.2,1.9-1.6c0.8-0.4,1.7-0.6,2.8-0.6c1.5,0,2.7,0.4,3.7,1.1c1,0.8,1.5,1.8,1.6,3h-2.3c-0.1-0.6-0.4-1.2-1-1.6
		c-0.6-0.5-1.3-0.7-2.3-0.7c-0.9,0-1.6,0.2-2.1,0.7s-0.8,1.1-0.8,1.9c0,0.6,0.2,1.1,0.5,1.4c0.3,0.4,0.7,0.7,1.2,0.8
		c0.5,0.2,1.2,0.4,2,0.7c1.1,0.3,1.9,0.6,2.6,0.9s1.2,0.7,1.7,1.3c0.5,0.6,0.7,1.4,0.7,2.4c0,0.8-0.2,1.5-0.6,2.2
		c-0.4,0.7-1,1.3-1.8,1.7c-0.8,0.4-1.8,0.6-2.9,0.6C540.4,186.2,539.4,186.1,538.6,185.7z"/>
	<path class="st6" d="M552.4,175.2v7.5c0,0.6,0.1,1.1,0.4,1.3c0.3,0.3,0.7,0.4,1.4,0.4h1.5v1.8h-1.9c-1.2,0-2-0.3-2.6-0.8
		c-0.6-0.5-0.9-1.4-0.9-2.7v-7.5h-1.6v-1.7h1.6v-3.2h2.1v3.2h3.3v1.7H552.4z"/>
	<path class="st6" d="M569.5,173.4v12.7h-2.1v-1.9c-0.4,0.6-1,1.2-1.7,1.5s-1.5,0.5-2.4,0.5c-1,0-1.9-0.2-2.7-0.6
		c-0.8-0.4-1.4-1-1.9-1.8c-0.5-0.8-0.7-1.8-0.7-3v-7.4h2.1v7.1c0,1.2,0.3,2.2,0.9,2.9s1.5,1,2.6,1c1.1,0,2-0.3,2.7-1
		c0.6-0.7,1-1.7,1-3v-6.9H569.5z"/>
	<path class="st6" d="M573,176.3c0.5-1,1.2-1.7,2.2-2.3c0.9-0.5,1.9-0.8,3.1-0.8c1,0,1.9,0.2,2.7,0.7c0.8,0.5,1.5,1.1,1.9,1.8V169
		h2.1v17.1H583v-2.4c-0.4,0.8-1,1.4-1.8,1.9s-1.8,0.7-2.9,0.7c-1.1,0-2.1-0.3-3.1-0.8c-0.9-0.6-1.6-1.3-2.2-2.3s-0.8-2.1-0.8-3.4
		C572.3,178.4,572.5,177.3,573,176.3z M582.4,177.2c-0.4-0.7-0.9-1.3-1.6-1.6c-0.7-0.4-1.4-0.6-2.2-0.6s-1.5,0.2-2.1,0.6
		c-0.6,0.4-1.2,0.9-1.5,1.6s-0.6,1.5-0.6,2.5c0,1,0.2,1.8,0.6,2.5s0.9,1.3,1.5,1.6c0.6,0.4,1.4,0.6,2.1,0.6s1.5-0.2,2.2-0.6
		c0.7-0.4,1.2-0.9,1.6-1.6s0.6-1.6,0.6-2.5C583,178.8,582.8,177.9,582.4,177.2z"/>
	<path class="st6" d="M588.7,171c-0.3-0.3-0.4-0.6-0.4-1c0-0.4,0.1-0.7,0.4-1c0.3-0.3,0.6-0.4,1-0.4c0.4,0,0.7,0.1,1,0.4
		s0.4,0.6,0.4,1c0,0.4-0.1,0.7-0.4,1s-0.6,0.4-1,0.4C589.3,171.4,589,171.2,588.7,171z M590.8,173.4v12.7h-2.1v-12.7H590.8z"/>
	<path class="st6" d="M596.6,185.5c-1-0.5-1.7-1.3-2.3-2.3c-0.5-1-0.8-2.1-0.8-3.5c0-1.3,0.3-2.4,0.8-3.4c0.6-1,1.3-1.8,2.3-2.3
		c1-0.5,2.1-0.8,3.3-0.8c1.2,0,2.3,0.3,3.3,0.8c1,0.5,1.7,1.3,2.3,2.3c0.6,1,0.8,2.1,0.8,3.4c0,1.3-0.3,2.5-0.9,3.5
		s-1.4,1.8-2.3,2.3s-2.1,0.8-3.3,0.8C598.7,186.3,597.6,186,596.6,185.5z M602,183.9c0.7-0.4,1.2-0.9,1.6-1.6
		c0.4-0.7,0.6-1.6,0.6-2.6c0-1-0.2-1.9-0.6-2.6c-0.4-0.7-0.9-1.2-1.6-1.6s-1.3-0.5-2.1-0.5c-0.8,0-1.5,0.2-2.1,0.5
		c-0.6,0.3-1.2,0.9-1.5,1.6c-0.4,0.7-0.6,1.6-0.6,2.6c0,1,0.2,1.9,0.6,2.6c0.4,0.7,0.9,1.2,1.5,1.6s1.3,0.5,2.1,0.5
		C600.6,184.4,601.3,184.3,602,183.9z"/>
	<path class="st6" d="M615.6,173.8c0.7-1.3,1.7-2.2,2.9-2.9s2.6-1.1,4.1-1.1c1.8,0,3.3,0.4,4.6,1.3c1.3,0.8,2.3,2,2.9,3.6h-2.5
		c-0.4-1-1.1-1.7-1.9-2.2c-0.8-0.5-1.8-0.8-3-0.8c-1.1,0-2.1,0.3-3,0.8c-0.9,0.5-1.6,1.3-2.1,2.2c-0.5,1-0.8,2.1-0.8,3.4
		c0,1.3,0.3,2.4,0.8,3.4c0.5,1,1.2,1.7,2.1,2.2s1.9,0.8,3,0.8c1.2,0,2.2-0.3,3-0.8c0.8-0.5,1.5-1.3,1.9-2.2h2.5
		c-0.6,1.5-1.6,2.7-2.9,3.6c-1.3,0.8-2.8,1.3-4.6,1.3c-1.5,0-2.9-0.4-4.1-1.1c-1.2-0.7-2.2-1.7-2.9-2.9s-1.1-2.7-1.1-4.2
		S614.8,175,615.6,173.8z"/>
	<path class="st6" d="M635.4,185.5c-1-0.5-1.7-1.3-2.3-2.3c-0.5-1-0.8-2.1-0.8-3.5c0-1.3,0.3-2.4,0.8-3.4c0.6-1,1.3-1.8,2.3-2.3
		c1-0.5,2.1-0.8,3.3-0.8c1.2,0,2.3,0.3,3.3,0.8c1,0.5,1.7,1.3,2.3,2.3c0.6,1,0.8,2.1,0.8,3.4c0,1.3-0.3,2.5-0.9,3.5
		s-1.4,1.8-2.3,2.3s-2.1,0.8-3.3,0.8C637.4,186.3,636.4,186,635.4,185.5z M640.7,183.9c0.7-0.4,1.2-0.9,1.6-1.6
		c0.4-0.7,0.6-1.6,0.6-2.6c0-1-0.2-1.9-0.6-2.6c-0.4-0.7-0.9-1.2-1.6-1.6s-1.3-0.5-2.1-0.5c-0.8,0-1.5,0.2-2.1,0.5
		c-0.6,0.3-1.2,0.9-1.5,1.6c-0.4,0.7-0.6,1.6-0.6,2.6c0,1,0.2,1.9,0.6,2.6c0.4,0.7,0.9,1.2,1.5,1.6s1.3,0.5,2.1,0.5
		C639.4,184.4,640.1,184.3,640.7,183.9z"/>
	<path class="st6" d="M647.9,176.3c0.5-1,1.2-1.7,2.2-2.3c0.9-0.5,1.9-0.8,3.1-0.8c1,0,1.9,0.2,2.7,0.7c0.8,0.5,1.5,1.1,1.9,1.8V169
		h2.1v17.1h-2.1v-2.4c-0.4,0.8-1,1.4-1.8,1.9s-1.8,0.7-2.9,0.7c-1.1,0-2.1-0.3-3.1-0.8c-0.9-0.6-1.6-1.3-2.2-2.3s-0.8-2.1-0.8-3.4
		C647.1,178.4,647.4,177.3,647.9,176.3z M657.2,177.2c-0.4-0.7-0.9-1.3-1.6-1.6c-0.7-0.4-1.4-0.6-2.2-0.6s-1.5,0.2-2.1,0.6
		c-0.6,0.4-1.2,0.9-1.5,1.6s-0.6,1.5-0.6,2.5c0,1,0.2,1.8,0.6,2.5s0.9,1.3,1.5,1.6c0.6,0.4,1.4,0.6,2.1,0.6s1.5-0.2,2.2-0.6
		c0.7-0.4,1.2-0.9,1.6-1.6s0.6-1.6,0.6-2.5C657.8,178.8,657.6,177.9,657.2,177.2z"/>
	<path class="st6" d="M675,180.5h-10.1c0.1,1.2,0.5,2.2,1.3,2.9c0.8,0.7,1.7,1.1,2.8,1.1c0.9,0,1.7-0.2,2.3-0.6c0.6-0.4,1-1,1.3-1.7
		h2.3c-0.3,1.2-1,2.2-2,3s-2.3,1.1-3.8,1.1c-1.2,0-2.3-0.3-3.2-0.8c-0.9-0.5-1.7-1.3-2.2-2.3s-0.8-2.1-0.8-3.5
		c0-1.3,0.3-2.5,0.8-3.4s1.3-1.7,2.2-2.3c0.9-0.5,2-0.8,3.3-0.8c1.2,0,2.3,0.3,3.2,0.8c0.9,0.5,1.6,1.2,2.1,2.2
		c0.5,0.9,0.8,2,0.8,3.1C675,179.7,675,180.1,675,180.5z M672.3,176.8c-0.4-0.6-0.8-1-1.4-1.3c-0.6-0.3-1.3-0.5-2-0.5
		c-1.1,0-2,0.3-2.7,1c-0.7,0.7-1.2,1.6-1.3,2.8h8C672.9,178,672.7,177.3,672.3,176.8z"/>
</g>
<g>
	<g id="Layer_10_00000012466247202126002700000002990507872877162658_">
		<g>
			<path class="st2" d="M771.5,93.3l-12.8,7.4l-17.4-10.1V75.9c0.6,0,1.3,0.2,1.9,0.5l27,15.6C770.8,92.3,771.3,92.8,771.5,93.3
				L771.5,93.3z"/>
			<path class="st2" d="M724,100.7v20.1l-12.8,7.4c-0.3-0.6-0.5-1.2-0.5-1.9V95.2c0-0.7,0.2-1.3,0.5-1.9L724,100.7z"/>
			<path class="st2" d="M771.5,128.2c-0.3,0.6-0.8,1.1-1.4,1.4l-27,15.5c-0.6,0.3-1.2,0.5-1.9,0.5v-14.7l17.4-10.1L771.5,128.2z"/>
		</g>
		<path class="st3" d="M758.8,100.7v20.1l-17.4,10.1L724,120.8v-20.1l17.4-10.1L758.8,100.7z"/>
		<path class="st4" d="M741.4,75.9v14.8L724,100.7l-12.8-7.4c0.3-0.6,0.8-1,1.4-1.4l26.9-15.6C740,76.1,740.7,75.9,741.4,75.9
			L741.4,75.9z"/>
		<path class="st4" d="M741.4,130.9v14.7c-0.7,0-1.3-0.2-1.9-0.5l-26.9-15.5c-0.6-0.3-1.1-0.8-1.4-1.4l12.8-7.4L741.4,130.9z"/>
		<path class="st4" d="M772,95.2v31.1c0,0.7-0.2,1.3-0.5,1.9l-12.8-7.4v-20.1l12.8-7.4C771.9,93.9,772,94.5,772,95.2L772,95.2z"/>
	</g>
</g>
<g class="st1">
	<path class="st7" d="M861.3,21.5c0,8.5-6.9,15.4-15.4,15.4c-8.5,0-15.4-6.9-15.4-15.4s6.9-15.4,15.4-15.4
		C854.5,6.1,861.3,13,861.3,21.5z"/>
	<circle class="st8" cx="845.9" cy="21.5" r="7.6"/>
</g>
<g class="st1">
	<path class="st7" d="M959,78.1c0,11.4-9.3,20.7-20.7,20.7c-11.4,0-20.7-9.3-20.7-20.7s9.3-20.7,20.7-20.7
		C949.7,57.4,959,66.7,959,78.1z"/>
	<circle class="st8" cx="938.3" cy="78.1" r="10.2"/>
</g>
<g class="st1">
	<path class="st7" d="M38.3,267.4c0,8.5-6.9,15.4-15.4,15.4s-15.4-6.9-15.4-15.4S14.4,252,22.9,252S38.3,258.9,38.3,267.4z"/>
	<circle class="st8" cx="22.9" cy="267.4" r="7.6"/>
</g>
<g class="st1">
	<path class="st7" d="M689,282.4c0,3.9-3.1,7-7,7c-3.9,0-7-3.1-7-7s3.1-7,7-7C685.9,275.4,689,278.5,689,282.4z"/>
	<circle class="st8" cx="682" cy="282.4" r="3.5"/>
</g>
<g class="st1">
	<path class="st7" d="M691.2,71.2c0,5-4.1,9.1-9.1,9.1s-9.1-4.1-9.1-9.1c0-5,4.1-9.1,9.1-9.1S691.2,66.1,691.2,71.2z"/>
	<circle class="st8" cx="682" cy="71.2" r="4.5"/>
</g>
</svg>
