<?xml version="1.0" encoding="utf-8"?>
<!-- Generator: Adobe Illustrator 26.3.1, SVG Export Plug-In . SVG Version: 6.00 Build 0)  -->
<svg version="1.1" id="Outline" xmlns="http://www.w3.org/2000/svg" xmlns:xlink="http://www.w3.org/1999/xlink" x="0px" y="0px"
	 viewBox="0 0 778.7 674.9" style="enable-background:new 0 0 778.7 674.9;" xml:space="preserve">
<style type="text/css">
	.st0{fill:#08BD62;}
	.st1{fill:#FFFFFF;}
	.st2{opacity:0.4;fill:#08BD62;}
	.st3{opacity:0.8;fill:#08BD62;}
	.st4{opacity:0.3;}
	.st5{fill:#55F990;}
	.st6{fill:#4BE27E;}
	.st7{fill:#42DB71;}
	.st8{opacity:0.6;}
	.st9{fill:url(#SVGID_1_);}
	.st10{fill:#D4ECFF;}
	.st11{fill:#5793CE;}
	.st12{fill:url(#SVGID_00000105388497981404484710000000767358968337801344_);}
	.st13{fill:#FAFDFF;}
	.st14{fill:#396CAA;}
	.st15{opacity:0.4;fill:#D4ECFF;}
	.st16{fill:#173D7A;}
</style>
<g>
	<g>
		<path class="st0" d="M110.7,653L66,627.2c-2.7-1.6-2.4-4.4,0.8-6.2l43.2-24.9c3.2-1.8,8-2,10.7-0.4l44.7,25.8
			c2.7,1.6,2.4,4.4-0.8,6.2l-43.2,24.9C118.3,654.4,113.5,654.6,110.7,653z"/>
		<path class="st1" d="M115.4,642.5c-2.2,0-4.3-0.5-5.9-1.4l-44.7-25.8c-2-1.1-3.1-2.9-3.1-4.9c0-2.2,1.4-4.3,3.9-5.7l43.2-24.9
			c4-2.3,9.7-2.5,13.2-0.4l44.7,25.8c2,1.1,3.1,2.9,3.1,4.9c0,2.2-1.4,4.3-3.9,5.7l-43.2,24.9C120.6,641.9,117.9,642.5,115.4,642.5z
			 M112,636.7c2,1.1,5.8,0.9,8.2-0.4l43.2-24.9c1.1-0.6,1.3-1.2,1.4-1.3c0,0-0.2-0.2-0.6-0.5l-44.7-25.8c-2-1.1-5.8-0.9-8.2,0.4
			l-43.2,24.9c-1.1,0.6-1.3,1.2-1.4,1.3c0,0,0.2,0.2,0.6,0.5L112,636.7z"/>
	</g>
	<g>
		<path class="st0" d="M714.6,488.1l-44.7-25.8c-2.7-1.6-2.4-4.4,0.8-6.2l43.2-24.9c3.2-1.8,8-2,10.7-0.4l44.7,25.8
			c2.7,1.6,2.4,4.4-0.8,6.2l-43.2,24.9C722.2,489.5,717.4,489.7,714.6,488.1z"/>
		<path class="st1" d="M719.3,477.6c-2.2,0-4.3-0.5-5.9-1.4l-44.7-25.8c-2-1.1-3.1-2.9-3.1-4.9c0-2.2,1.4-4.3,3.9-5.7l43.2-24.9
			c4-2.3,9.7-2.5,13.2-0.4l44.7,25.8c2,1.1,3.1,2.9,3.1,4.9c0,2.2-1.4,4.3-3.9,5.7l-43.2,24.9C724.5,476.9,721.8,477.6,719.3,477.6z
			 M715.9,471.8c2,1.1,5.8,0.9,8.2-0.4l43.2-24.9c1.1-0.6,1.3-1.2,1.4-1.3c0,0-0.2-0.2-0.6-0.5l-44.7-25.8c-2-1.1-5.8-0.9-8.2,0.4
			L672,444.2c-1.1,0.6-1.3,1.2-1.4,1.3c0,0,0.2,0.2,0.6,0.5L715.9,471.8z"/>
	</g>
	<g>
		<path class="st2" d="M88.8,64.3c0,11.4-9.2,20.6-20.6,20.6s-20.6-9.2-20.6-20.6s9.2-20.6,20.6-20.6S88.8,52.9,88.8,64.3z"/>
		<circle class="st3" cx="68.2" cy="64.3" r="10.1"/>
	</g>
	<g>
		<path class="st2" d="M223.6,491.8c0,11.4-9.2,20.6-20.6,20.6s-20.6-9.2-20.6-20.6c0-11.4,9.2-20.6,20.6-20.6
			S223.6,480.4,223.6,491.8z"/>
		<circle class="st3" cx="203" cy="491.8" r="10.1"/>
	</g>
	<g class="st4">
		<g id="Layer_10_00000068653556579948240150000017244099899412794802_">
			<g>
				<path class="st5" d="M520.7,153.9l-107.9,62.5l-146.9-84.9V6.8c5.3,0,10.6,1.4,15.7,4.2l227.6,131.5
					C514.3,145.3,518.2,149.2,520.7,153.9L520.7,153.9z"/>
				<path class="st5" d="M118.8,216.5V386L10.9,448.3c-2.8-4.8-4.2-10.1-4.2-15.7V169.9c0-5.9,1.4-11.2,4.2-16L118.8,216.5z"/>
				<path class="st5" d="M520.7,448.3c-2.5,4.8-6.5,9-11.5,11.8L281.6,591.2c-5,2.8-10.4,4.2-15.7,4.2V471L412.8,386L520.7,448.3z"
					/>
			</g>
			<path class="st6" d="M412.8,216.5V386L265.9,471L118.8,386V216.5l147.2-84.9L412.8,216.5z"/>
			<path class="st7" d="M265.9,6.8v124.7l-147.2,84.9L10.9,153.9c2.8-4.8,6.7-8.7,11.8-11.5L249.9,11C254.7,8.2,260.3,6.8,265.9,6.8
				L265.9,6.8z"/>
			<path class="st7" d="M265.9,471v124.5c-5.6,0-11.2-1.4-16-4.2L22.6,460c-5-2.8-9-7-11.8-11.8L118.8,386L265.9,471z"/>
			<path class="st7" d="M524.9,169.9v262.6c0,5.6-1.4,10.9-4.2,15.7L412.8,386V216.4l107.9-62.5C523.5,158.7,524.9,164,524.9,169.9
				L524.9,169.9z"/>
		</g>
	</g>
	<g class="st8">
		<path class="st2" d="M639.6,82.9c0,6.6-5.4,12-12,12s-12-5.4-12-12c0-6.6,5.4-12,12-12S639.6,76.3,639.6,82.9z"/>
		<circle class="st3" cx="627.6" cy="82.9" r="5.9"/>
	</g>
	<g class="st8">
		<path class="st2" d="M684.1,200.6c0,10.6-8.6,19.1-19.1,19.1c-10.6,0-19.1-8.6-19.1-19.1s8.6-19.1,19.1-19.1
			C675.5,181.4,684.1,190,684.1,200.6z"/>
		<circle class="st3" cx="664.9" cy="200.6" r="9.4"/>
	</g>
	<g>
		<path class="st0" d="M428.7,665.2l169.8-96.8c6.2-3.6,5.4-9.9-1.7-14l-97.7-56.4c-7.2-4.1-18-4.6-24.2-1L305,593.7
			c-6.2,3.6-5.4,9.9,1.7,14l97.7,56.4C411.6,668.3,422.5,668.7,428.7,665.2z"/>
		<path class="st1" d="M418.1,643.5c-5.6,0-11.4-1.4-16-4l-97.7-56.4c-5.2-3-8.2-7.3-8.2-11.9c0-4,2.4-7.7,6.5-10l169.9-96.9
			c7.6-4.4,20.2-3.9,28.8,1l97.7,56.4c5.2,3,8.2,7.3,8.2,11.9c0,4-2.4,7.7-6.5,10L431,640.5C427.5,642.5,422.9,643.5,418.1,643.5z
			 M485.3,470.5c-3.1,0-6.1,0.6-8.2,1.8l-169.9,96.9c-1.2,0.7-1.9,1.5-1.9,2.1c0,0.9,1.1,2.5,3.7,4l97.7,56.4
			c5.7,3.3,14.9,3.8,19.7,1l0,0l169.8-96.8c1.2-0.7,1.9-1.5,1.9-2.1c0-0.9-1.1-2.5-3.7-4l-97.7-56.4
			C493.6,471.4,489.3,470.5,485.3,470.5z"/>
		<g>
			<g>
				<g>
					<radialGradient id="SVGID_1_" cx="276.0779" cy="178.6311" r="305.9286" gradientUnits="userSpaceOnUse">
						<stop  offset="0" style="stop-color:#699DD1"/>
						<stop  offset="0.2662" style="stop-color:#6396CC"/>
						<stop  offset="0.6412" style="stop-color:#5184BD"/>
						<stop  offset="1" style="stop-color:#396CAA"/>
					</radialGradient>
					<path class="st9" d="M300.8,540.6L300.8,540.6V171l146.9-38.5l27.1-15.6c6.2-3.6,17.1-3.1,24.2,1l25.3,14.6l78.4,0l-23.2,356.8
						c0.2,2.4-1.2,4.8-4.2,6.5L428.7,606.4c-6.2,3.6-17.1,3.1-24.2-1L306.7,549C302.6,546.6,300.6,543.5,300.8,540.6z"/>
					<path class="st10" d="M486.1,114.5c4.5,0.1,9.3,1.3,13,3.4l25.3,14.6l78.4,0v370.6c0.2,2.4-1.2,4.8-4.2,6.5l-169.8,96.8
						c-3,1.7-7,2.5-11.2,2.4l-1.8-372.9L486.1,114.5z"/>
					<path class="st11" d="M427.1,607.2c-5.4,2.3-13.1,2.2-19.4-0.2V231.5h19.4V607.2z"/>
					
						<linearGradient id="SVGID_00000075871079785281426520000013526908161060831134_" gradientUnits="userSpaceOnUse" x1="501.4993" y1="235.8914" x2="436.5772" y2="126.1143">
						<stop  offset="0" style="stop-color:#86B8E0"/>
						<stop  offset="0.1163" style="stop-color:#98C4E7"/>
						<stop  offset="0.3255" style="stop-color:#B2D6F2"/>
						<stop  offset="0.5401" style="stop-color:#C5E2F9"/>
						<stop  offset="0.7615" style="stop-color:#D0EAFE"/>
						<stop  offset="1" style="stop-color:#D4ECFF"/>
					</linearGradient>
					<path style="fill:url(#SVGID_00000075871079785281426520000013526908161060831134_);" d="M428.7,235.9l169.8-96.8
						c6.2-3.6,5.4-9.9-1.7-14l-97.7-56.4c-7.2-4.1-18-4.6-24.2-1L305,164.5c-6.2,3.6-5.4,9.9,1.7,14l97.7,56.4
						C411.6,239.1,422.5,239.5,428.7,235.9z"/>
					<path class="st13" d="M306.7,171.6l97.7,56.4c7.2,4.1,18,4.6,24.2,1l169.8-96.8c1.4-0.8,2.4-1.7,3.1-2.7
						c2.1,3.4,1.2,7.2-3.1,9.6l-169.8,96.8c-6.2,3.6-17.1,3.1-24.2-1l-97.7-56.4c-5.6-3.2-7.3-7.7-4.8-11.2
						C302.9,168.8,304.5,170.3,306.7,171.6z"/>
					<g>
						<path class="st0" d="M423.9,196.7L537,131.1c2.9-1.7,2.5-4.6-0.8-6.5l-45.7-26.4c-3.4-1.9-8.4-2.1-11.3-0.5L366,163.3
							c-2.9,1.7-2.5,4.6,0.8,6.5l45.7,26.4C415.9,198.1,421,198.3,423.9,196.7z"/>
						<g>
							<path class="st10" d="M484.9,134.1l6.6-3.8c0.4-0.2,0.4-0.6-0.1-0.9l-6.3-3.7c-0.5-0.3-1.2-0.3-1.6-0.1l-6.6,3.8
								c-0.4,0.2-0.4,0.6,0.1,0.9l6.3,3.7C483.8,134.3,484.5,134.3,484.9,134.1z"/>
							<path class="st10" d="M463,146.7l6.6-3.8c0.4-0.2,0.4-0.6-0.1-0.9l-6.3-3.7c-0.5-0.3-1.2-0.3-1.6-0.1L455,142
								c-0.4,0.2-0.4,0.6,0.1,0.9l6.3,3.7C461.9,146.9,462.6,146.9,463,146.7z"/>
							<path class="st10" d="M441.1,159.2l6.6-3.8c0.4-0.2,0.4-0.6-0.1-0.9l-6.3-3.7c-0.5-0.3-1.2-0.3-1.6-0.1l-6.6,3.8
								c-0.4,0.2-0.4,0.6,0.1,0.9l6.3,3.7C440,159.4,440.7,159.5,441.1,159.2z"/>
							<path class="st10" d="M419.3,171.8l6.6-3.8c0.4-0.2,0.4-0.6-0.1-0.9l-6.3-3.7c-0.5-0.3-1.2-0.3-1.6-0.1l-6.6,3.8
								c-0.4,0.2-0.4,0.6,0.1,0.9l6.3,3.7C418.2,172,418.9,172.1,419.3,171.8z"/>
						</g>
						<path class="st11" d="M537,131.1l-0.1,0.1c-0.2-0.2-0.4-0.3-0.7-0.5l-45.7-26.4c-3.4-1.9-8.4-2.1-11.3-0.5l-112.9,65.5
							c-2.7-1.9-2.8-4.5-0.1-6.1l113.1-65.5c2.9-1.7,8-1.5,11.3,0.5l45.7,26.4C539.5,126.5,539.9,129.4,537,131.1z"/>
					</g>
				</g>
				<g>
					<path class="st0" d="M385.4,309.2l-64.3-36.8c-3.6-2.1-6.6-7.7-6.6-12.5v-23c0-4.8,2.9-7,6.6-5l64.3,36.8
						c3.6,2.1,6.6,7.7,6.6,12.5v23C391.9,309,389,311.2,385.4,309.2z"/>
					<path class="st1" d="M317.9,231.2c-1,1-1.6,2.6-1.6,4.8v23c0,4.8,2.9,10.4,6.6,12.5l64.3,36.8c1.2,0.7,2.2,0.9,3.2,0.7
						c-1.2,1.1-2.9,1.3-4.9,0.2l-64.3-36.8c-3.6-2.1-6.6-7.7-6.6-12.5v-23C314.5,233.6,315.9,231.5,317.9,231.2z"/>
					<g>
						<path class="st14" d="M366,284.2l-5.9-3.4c-0.8-0.5-1.4-1.7-1.4-2.7v-6.3c0-1.1,0.6-1.5,1.4-1.1l5.9,3.4
							c0.8,0.5,1.4,1.7,1.4,2.7v6.3C367.5,284.1,366.8,284.6,366,284.2z"/>
						<path class="st1" d="M346.3,272.8l-5.9-3.4c-0.8-0.5-1.4-1.7-1.4-2.7v-6.3c0-1.1,0.6-1.5,1.4-1.1l5.9,3.4
							c0.8,0.5,1.4,1.7,1.4,2.7v6.3C347.7,272.8,347.1,273.2,346.3,272.8z"/>
					</g>
				</g>
				<g>
					<path class="st0" d="M385.4,475.3l-64.3-36.8c-3.6-2.1-6.6-7.7-6.6-12.5v-23c0-4.8,2.9-7,6.6-5l64.3,36.8
						c3.6,2.1,6.6,7.7,6.6,12.5v23C391.9,475.2,389,477.4,385.4,475.3z"/>
					<path class="st1" d="M317.9,397.3c-1,1-1.6,2.6-1.6,4.8v23c0,4.8,2.9,10.4,6.6,12.5l64.3,36.8c1.2,0.7,2.2,0.9,3.2,0.7
						c-1.2,1.1-2.9,1.3-4.9,0.2l-64.3-36.8c-3.6-2.1-6.6-7.7-6.6-12.5v-23C314.5,399.7,315.9,397.7,317.9,397.3z"/>
					<g>
						<path class="st14" d="M366,450.3l-5.9-3.4c-0.8-0.5-1.4-1.7-1.4-2.7v-6.3c0-1.1,0.6-1.5,1.4-1.1l5.9,3.4
							c0.8,0.5,1.4,1.7,1.4,2.7v6.3C367.5,450.3,366.8,450.8,366,450.3z"/>
						<path class="st1" d="M346.3,438.9l-5.9-3.4c-0.8-0.5-1.4-1.7-1.4-2.7v-6.3c0-1.1,0.6-1.5,1.4-1.1l5.9,3.4
							c0.8,0.5,1.4,1.7,1.4,2.7v6.3C347.7,438.9,347.1,439.4,346.3,438.9z"/>
					</g>
				</g>
				<g>
					<path class="st0" d="M385.4,558.4l-64.3-36.8c-3.6-2.1-6.6-7.7-6.6-12.5v-23c0-4.8,2.9-7,6.6-5l64.3,36.8
						c3.6,2.1,6.6,7.7,6.6,12.5v23C391.9,558.2,389,560.5,385.4,558.4z"/>
					<path class="st1" d="M317.9,480.4c-1,1-1.6,2.6-1.6,4.8v23c0,4.8,2.9,10.4,6.6,12.5l64.3,36.8c1.2,0.7,2.2,0.9,3.2,0.7
						c-1.2,1.1-2.9,1.3-4.9,0.2l-64.3-36.8c-3.6-2.1-6.6-7.7-6.6-12.5v-23C314.5,482.8,315.9,480.7,317.9,480.4z"/>
					<g>
						<path class="st14" d="M366,533.4l-5.9-3.4c-0.8-0.5-1.4-1.7-1.4-2.7V521c0-1.1,0.6-1.5,1.4-1.1l5.9,3.4
							c0.8,0.5,1.4,1.7,1.4,2.7v6.3C367.5,533.4,366.8,533.8,366,533.4z"/>
						<path class="st1" d="M346.3,522l-5.9-3.4c-0.8-0.5-1.4-1.7-1.4-2.7v-6.3c0-1.1,0.6-1.5,1.4-1.1l5.9,3.4
							c0.8,0.5,1.4,1.7,1.4,2.7v6.3C347.7,522,347.1,522.5,346.3,522z"/>
					</g>
				</g>
				<g>
					<path class="st0" d="M385.4,392.2l-64.3-36.8c-3.6-2.1-6.6-7.7-6.6-12.5v-23c0-4.8,2.9-7,6.6-5l64.3,36.8
						c3.6,2.1,6.6,7.7,6.6,12.5v23C391.9,392.1,389,394.3,385.4,392.2z"/>
					<path class="st1" d="M317.9,314.3c-1,1-1.6,2.6-1.6,4.8v23c0,4.8,2.9,10.4,6.6,12.5l64.3,36.8c1.2,0.7,2.2,0.9,3.2,0.7
						c-1.2,1.1-2.9,1.3-4.9,0.2l-64.3-36.8c-3.6-2.1-6.6-7.7-6.6-12.5v-23C314.5,316.6,315.9,314.6,317.9,314.3z"/>
					<g>
						<path class="st14" d="M366,367.2l-5.9-3.4c-0.8-0.5-1.4-1.7-1.4-2.7v-6.3c0-1.1,0.6-1.5,1.4-1.1l5.9,3.4
							c0.8,0.5,1.4,1.7,1.4,2.7v6.3C367.5,367.2,366.8,367.7,366,367.2z"/>
						<path class="st1" d="M346.3,355.9l-5.9-3.4c-0.8-0.5-1.4-1.7-1.4-2.7v-6.3c0-1.1,0.6-1.5,1.4-1.1l5.9,3.4
							c0.8,0.5,1.4,1.7,1.4,2.7v6.3C347.7,355.8,347.1,356.3,346.3,355.9z"/>
					</g>
				</g>
			</g>
			<g>
				<path class="st11" d="M441.1,285.6L589.4,200c3.3-1.9,6-7.1,6-11.5v-28.3c0-4.4-2.7-6.5-6-4.5l-148.3,85.6
					c-3.3,1.9-6,7.1-6,11.5v28.3C435,285.5,437.7,287.5,441.1,285.6z"/>
				<path class="st15" d="M445.3,275.7L585.1,195c1.7-1,3-3.6,3-5.8v-21.3c0-2.2-1.4-3.3-3-2.3l-139.8,80.7c-1.7,1-3,3.6-3,5.8v21.3
					C442.3,275.6,443.6,276.7,445.3,275.7z"/>
				<path class="st10" d="M556,201l20.9-12c1.6-0.9,3-3.5,3-5.7l0,0c0-2.2-1.3-3.2-3-2.2l-20.9,12c-1.6,0.9-3,3.5-3,5.7l0,0
					C553,201,554.4,202,556,201z"/>
				<path class="st16" d="M538.2,207.4c0,2.2,1.5,3.1,3.4,2c1.9-1.1,3.4-3.7,3.4-5.9c0-2.2-1.5-3.1-3.4-2
					C539.7,202.5,538.2,205.2,538.2,207.4z"/>
				<path class="st16" d="M526.1,214.3c0,2.2,1.5,3.1,3.4,2c1.9-1.1,3.4-3.7,3.4-5.9c0-2.2-1.5-3.1-3.4-2
					C527.7,209.5,526.1,212.2,526.1,214.3z"/>
				<path class="st10" d="M514.1,221.3c0,2.2,1.5,3.1,3.4,2c1.9-1.1,3.4-3.7,3.4-5.9c0-2.2-1.5-3.1-3.4-2
					C515.6,216.5,514.1,219.1,514.1,221.3z"/>
				<path class="st16" d="M502,228.3c0,2.2,1.5,3.1,3.4,2c1.9-1.1,3.4-3.7,3.4-5.9c0-2.2-1.5-3.1-3.4-2
					C503.6,223.4,502,226.1,502,228.3z"/>
				<path class="st0" d="M451.2,263.9l7-4.1c1-0.6,1.9-2.2,1.9-3.6v-7.4c0-1.4-0.9-2-1.9-1.4l-7,4.1c-1,0.6-1.9,2.2-1.9,3.6v7.4
					C449.3,263.8,450.1,264.5,451.2,263.9z"/>
			</g>
			<g>
				<path class="st11" d="M441.1,335.5l148.3-85.6c3.3-1.9,6-7.1,6-11.5v-28.3c0-4.4-2.7-6.5-6-4.5l-148.3,85.6
					c-3.3,1.9-6,7.1-6,11.5v28.3C435,335.4,437.7,337.4,441.1,335.5z"/>
				<path class="st15" d="M445.3,325.6l139.8-80.7c1.7-1,3-3.6,3-5.8v-21.3c0-2.2-1.4-3.3-3-2.3l-139.8,80.7c-1.7,1-3,3.6-3,5.8
					v21.3C442.3,325.5,443.6,326.5,445.3,325.6z"/>
				<path class="st10" d="M556,250.9l20.9-12c1.6-0.9,3-3.5,3-5.7l0,0c0-2.2-1.3-3.2-3-2.2L556,243c-1.6,0.9-3,3.5-3,5.7l0,0
					C553,250.9,554.4,251.9,556,250.9z"/>
				<path class="st1" d="M538.2,257.2c0,2.2,1.5,3.1,3.4,2c1.9-1.1,3.4-3.7,3.4-5.9c0-2.2-1.5-3.1-3.4-2
					C539.7,252.4,538.2,255.1,538.2,257.2z"/>
				<path class="st16" d="M526.1,264.2c0,2.2,1.5,3.1,3.4,2c1.9-1.1,3.4-3.7,3.4-5.9c0-2.2-1.5-3.1-3.4-2
					C527.7,259.4,526.1,262,526.1,264.2z"/>
				<path class="st10" d="M514.1,271.2c0,2.2,1.5,3.1,3.4,2c1.9-1.1,3.4-3.7,3.4-5.9c0-2.2-1.5-3.1-3.4-2
					C515.6,266.3,514.1,269,514.1,271.2z"/>
				<path class="st16" d="M502,278.1c0,2.2,1.5,3.1,3.4,2c1.9-1.1,3.4-3.7,3.4-5.9c0-2.2-1.5-3.1-3.4-2
					C503.6,273.3,502,276,502,278.1z"/>
				<path class="st0" d="M451.2,313.7l7-4.1c1-0.6,1.9-2.2,1.9-3.6v-7.4c0-1.4-0.9-2-1.9-1.4l-7,4.1c-1,0.6-1.9,2.2-1.9,3.6v7.4
					C449.3,313.7,450.1,314.3,451.2,313.7z"/>
			</g>
			<g>
				<path class="st11" d="M441.1,385.4l148.3-85.6c3.3-1.9,6-7.1,6-11.5V260c0-4.4-2.7-6.5-6-4.5l-148.3,85.6c-3.3,1.9-6,7.1-6,11.5
					v28.3C435,385.2,437.7,387.3,441.1,385.4z"/>
				<path class="st15" d="M445.3,375.4l139.8-80.7c1.7-1,3-3.6,3-5.8v-21.3c0-2.2-1.4-3.3-3-2.3l-139.8,80.7c-1.7,1-3,3.6-3,5.8
					v21.3C442.3,375.4,443.6,376.4,445.3,375.4z"/>
				<path class="st10" d="M556,300.8l20.9-12c1.6-0.9,3-3.5,3-5.7l0,0c0-2.2-1.3-3.2-3-2.2l-20.9,12c-1.6,0.9-3,3.5-3,5.7l0,0
					C553,300.7,554.4,301.7,556,300.8z"/>
				<path class="st1" d="M538.2,307.1c0,2.2,1.5,3.1,3.4,2c1.9-1.1,3.4-3.7,3.4-5.9s-1.5-3.1-3.4-2
					C539.7,302.3,538.2,304.9,538.2,307.1z"/>
				<path class="st16" d="M526.1,314.1c0,2.2,1.5,3.1,3.4,2c1.9-1.1,3.4-3.7,3.4-5.9c0-2.2-1.5-3.1-3.4-2
					C527.7,309.3,526.1,311.9,526.1,314.1z"/>
				<path class="st10" d="M514.1,321c0,2.2,1.5,3.1,3.4,2c1.9-1.1,3.4-3.7,3.4-5.9c0-2.2-1.5-3.1-3.4-2
					C515.6,316.2,514.1,318.9,514.1,321z"/>
				<path class="st16" d="M502,328c0,2.2,1.5,3.1,3.4,2c1.9-1.1,3.4-3.7,3.4-5.9c0-2.2-1.5-3.1-3.4-2C503.6,323.2,502,325.8,502,328
					z"/>
				<path class="st0" d="M451.2,363.6l7-4.1c1-0.6,1.9-2.2,1.9-3.6v-7.4c0-1.4-0.9-2-1.9-1.4l-7,4.1c-1,0.6-1.9,2.2-1.9,3.6v7.4
					C449.3,363.6,450.1,364.2,451.2,363.6z"/>
			</g>
			<g>
				<path class="st11" d="M441.1,435.2l148.3-85.6c3.3-1.9,6-7.1,6-11.5v-28.3c0-4.4-2.7-6.5-6-4.5l-148.3,85.6
					c-3.3,1.9-6,7.1-6,11.5v28.3C435,435.1,437.7,437.2,441.1,435.2z"/>
				<path class="st15" d="M445.3,425.3l139.8-80.7c1.7-1,3-3.6,3-5.8v-21.3c0-2.2-1.4-3.3-3-2.3l-139.8,80.7c-1.7,1-3,3.6-3,5.8V423
					C442.3,425.3,443.6,426.3,445.3,425.3z"/>
				<path class="st10" d="M556,350.7l20.9-12c1.6-0.9,3-3.5,3-5.7l0,0c0-2.2-1.3-3.2-3-2.2l-20.9,12c-1.6,0.9-3,3.5-3,5.7l0,0
					C553,350.6,554.4,351.6,556,350.7z"/>
				<path class="st16" d="M538.2,357c0,2.2,1.5,3.1,3.4,2c1.9-1.1,3.4-3.7,3.4-5.9c0-2.2-1.5-3.1-3.4-2
					C539.7,352.2,538.2,354.8,538.2,357z"/>
				<path class="st16" d="M526.1,364c0,2.2,1.5,3.1,3.4,2c1.9-1.1,3.4-3.7,3.4-5.9c0-2.2-1.5-3.1-3.4-2
					C527.7,359.1,526.1,361.8,526.1,364z"/>
				<path class="st10" d="M514.1,370.9c0,2.2,1.5,3.1,3.4,2c1.9-1.1,3.4-3.7,3.4-5.9c0-2.2-1.5-3.1-3.4-2
					C515.6,366.1,514.1,368.7,514.1,370.9z"/>
				<path class="st16" d="M502,377.9c0,2.2,1.5,3.1,3.4,2c1.9-1.1,3.4-3.7,3.4-5.9c0-2.2-1.5-3.1-3.4-2
					C503.6,373.1,502,375.7,502,377.9z"/>
				<path class="st10" d="M451.2,413.5l7-4.1c1-0.6,1.9-2.2,1.9-3.6v-7.4c0-1.4-0.9-2-1.9-1.4l-7,4.1c-1,0.6-1.9,2.2-1.9,3.6v7.4
					C449.3,413.4,450.1,414.1,451.2,413.5z"/>
			</g>
			<g>
				<path class="st11" d="M441.1,485.1l148.3-85.6c3.3-1.9,6-7.1,6-11.5v-28.3c0-4.4-2.7-6.5-6-4.5l-148.3,85.6
					c-3.3,1.9-6,7.1-6,11.5v28.3C435,485,437.7,487,441.1,485.1z"/>
				<path class="st15" d="M445.3,475.2l139.8-80.7c1.7-1,3-3.6,3-5.8v-21.3c0-2.2-1.4-3.3-3-2.3l-139.8,80.7c-1.7,1-3,3.6-3,5.8
					v21.3C442.3,475.1,443.6,476.2,445.3,475.2z"/>
				<path class="st10" d="M556,400.6l20.9-12c1.6-0.9,3-3.5,3-5.7l0,0c0-2.2-1.3-3.2-3-2.2l-20.9,12c-1.6,0.9-3,3.5-3,5.7l0,0
					C553,400.5,554.4,401.5,556,400.6z"/>
				<path class="st16" d="M538.2,406.9c0,2.2,1.5,3.1,3.4,2c1.9-1.1,3.4-3.7,3.4-5.9c0-2.2-1.5-3.1-3.4-2
					C539.7,402,538.2,404.7,538.2,406.9z"/>
				<path class="st1" d="M526.1,413.8c0,2.2,1.5,3.1,3.4,2c1.9-1.1,3.4-3.7,3.4-5.9c0-2.2-1.5-3.1-3.4-2
					C527.7,409,526.1,411.7,526.1,413.8z"/>
				<path class="st10" d="M514.1,420.8c0,2.2,1.5,3.1,3.4,2c1.9-1.1,3.4-3.7,3.4-5.9c0-2.2-1.5-3.1-3.4-2
					C515.6,416,514.1,418.6,514.1,420.8z"/>
				<path class="st1" d="M502,427.8c0,2.2,1.5,3.1,3.4,2c1.9-1.1,3.4-3.7,3.4-5.9c0-2.2-1.5-3.1-3.4-2
					C503.6,422.9,502,425.6,502,427.8z"/>
				<path class="st10" d="M451.2,463.4l7-4.1c1-0.6,1.9-2.2,1.9-3.6v-7.4c0-1.4-0.9-2-1.9-1.4l-7,4.1c-1,0.6-1.9,2.2-1.9,3.6v7.4
					C449.3,463.3,450.1,464,451.2,463.4z"/>
			</g>
			<g>
				<path class="st11" d="M441.1,535l148.3-85.6c3.3-1.9,6-7.1,6-11.5v-28.3c0-4.4-2.7-6.5-6-4.5l-148.3,85.6c-3.3,1.9-6,7.1-6,11.5
					v28.3C435,534.9,437.7,536.9,441.1,535z"/>
				<path class="st15" d="M445.3,525.1l139.8-80.7c1.7-1,3-3.6,3-5.8v-21.3c0-2.2-1.4-3.3-3-2.3l-139.8,80.7c-1.7,1-3,3.6-3,5.8
					v21.3C442.3,525,443.6,526,445.3,525.1z"/>
				<path class="st10" d="M556,450.4l20.9-12c1.6-0.9,3-3.5,3-5.7l0,0c0-2.2-1.3-3.2-3-2.2l-20.9,12c-1.6,0.9-3,3.5-3,5.7l0,0
					C553,450.4,554.4,451.4,556,450.4z"/>
				<path class="st16" d="M538.2,456.7c0,2.2,1.5,3.1,3.4,2c1.9-1.1,3.4-3.7,3.4-5.9c0-2.2-1.5-3.1-3.4-2
					C539.7,451.9,538.2,454.6,538.2,456.7z"/>
				<path class="st16" d="M526.1,463.7c0,2.2,1.5,3.1,3.4,2c1.9-1.1,3.4-3.7,3.4-5.9c0-2.2-1.5-3.1-3.4-2
					C527.7,458.9,526.1,461.5,526.1,463.7z"/>
				<path class="st10" d="M514.1,470.7c0,2.2,1.5,3.1,3.4,2c1.9-1.1,3.4-3.7,3.4-5.9c0-2.2-1.5-3.1-3.4-2
					C515.6,465.8,514.1,468.5,514.1,470.7z"/>
				<path class="st16" d="M502,477.6c0,2.2,1.5,3.1,3.4,2c1.9-1.1,3.4-3.7,3.4-5.9c0-2.2-1.5-3.1-3.4-2
					C503.6,472.8,502,475.5,502,477.6z"/>
				<path class="st0" d="M451.2,513.2l7-4.1c1-0.6,1.9-2.2,1.9-3.6v-7.4c0-1.4-0.9-2-1.9-1.4l-7,4.1c-1,0.6-1.9,2.2-1.9,3.6v7.4
					C449.3,513.2,450.1,513.8,451.2,513.2z"/>
			</g>
			<g>
				<path class="st11" d="M441.1,584.9l148.3-85.6c3.3-1.9,6-7.1,6-11.5v-28.3c0-4.4-2.7-6.5-6-4.5l-148.3,85.6
					c-3.3,1.9-6,7.1-6,11.5v28.3C435,584.8,437.7,586.8,441.1,584.9z"/>
				<path class="st15" d="M445.3,575l139.8-80.7c1.7-1,3-3.6,3-5.8v-21.3c0-2.2-1.4-3.3-3-2.3l-139.8,80.7c-1.7,1-3,3.6-3,5.8v21.3
					C442.3,574.9,443.6,575.9,445.3,575z"/>
				<path class="st10" d="M556,500.3l20.9-12c1.6-0.9,3-3.5,3-5.7l0,0c0-2.2-1.3-3.2-3-2.2l-20.9,12c-1.6,0.9-3,3.5-3,5.7l0,0
					C553,500.2,554.4,501.2,556,500.3z"/>
				<path class="st1" d="M534.4,509.3c0,4.1,2.9,5.8,6.5,3.7c3.6-2.1,6.5-7.1,6.5-11.2c0-4.1-2.9-5.8-6.5-3.7
					C537.3,500.2,534.4,505.2,534.4,509.3z"/>
				<path class="st16" d="M509.4,523.9c0,2.2,1.5,3.1,3.4,2c1.9-1.1,3.4-3.7,3.4-5.9c0-2.2-1.5-3.1-3.4-2
					C510.9,519.1,509.4,521.8,509.4,523.9z"/>
				<path class="st10" d="M497.3,530.9c0,2.2,1.5,3.1,3.4,2c1.9-1.1,3.4-3.7,3.4-5.9c0-2.2-1.5-3.1-3.4-2
					C498.9,526.1,497.3,528.7,497.3,530.9z"/>
				<path class="st16" d="M485.3,537.9c0,2.2,1.5,3.1,3.4,2c1.9-1.1,3.4-3.7,3.4-5.9c0-2.2-1.5-3.1-3.4-2
					C486.8,533,485.3,535.7,485.3,537.9z"/>
				<path class="st10" d="M451.2,563.1l7-4.1c1-0.6,1.9-2.2,1.9-3.6V548c0-1.4-0.9-2-1.9-1.4l-7,4.1c-1,0.6-1.9,2.2-1.9,3.6v7.4
					C449.3,563.1,450.1,563.7,451.2,563.1z"/>
			</g>
		</g>
	</g>
</g>
</svg>
