<?xml version="1.0" encoding="utf-8"?>
<!-- Generator: Adobe Illustrator 26.3.1, SVG Export Plug-In . SVG Version: 6.00 Build 0)  -->
<svg version="1.1" id="Outline" xmlns="http://www.w3.org/2000/svg" xmlns:xlink="http://www.w3.org/1999/xlink" x="0px" y="0px"
	 viewBox="0 0 848.7 519.3" style="enable-background:new 0 0 848.7 519.3;" xml:space="preserve">
<style type="text/css">
	.st0{fill:#1A202C;}
	.st1{opacity:0.6;}
	.st2{fill:#55F990;}
	.st3{fill:#4BE27E;}
	.st4{fill:#42DB71;}
	.st5{fill:#4A5568;}
	.st6{fill:#FF5C5C;}
	.st7{fill:#155FCC;}
	.st8{fill:#13519B;}
	.st9{fill:#FFFFFF;}
	.st10{fill:#E85F1A;}
	.st11{fill:#1E2B60;}
	.st12{enable-background:new    ;}
</style>
<path class="st0" d="M709.2,423.5H80.8c-6.6,0-11.9-5.3-11.9-11.9V98c0-6.6,5.3-11.9,11.9-11.9h628.4c6.6,0,11.9,5.3,11.9,11.9
	v313.6C721.1,418.2,715.7,423.5,709.2,423.5z"/>
<g class="st1">
	<g id="Layer_10_00000108989944936212036520000008208336179208301736_">
		<g>
			<path class="st2" d="M823.8,237L757,275.7l-91-52.6v-77.2c3.3,0,6.6,0.9,9.7,2.6l140.9,81.4C819.8,231.6,822.2,234,823.8,237
				L823.8,237z"/>
			<path class="st2" d="M574.8,275.7v105L508,419.2c-1.7-3-2.6-6.3-2.6-9.7V246.9c0-3.6,0.9-6.9,2.6-9.9L574.8,275.7z"/>
			<path class="st2" d="M823.8,419.2c-1.6,3-4,5.6-7.1,7.3l-140.9,81.2c-3.1,1.7-6.4,2.6-9.7,2.6v-77.1l91-52.6L823.8,419.2z"/>
		</g>
		<path class="st3" d="M756.9,275.7v105L666,433.3l-91.1-52.6v-105l91.1-52.6L756.9,275.7z"/>
		<path class="st4" d="M666,145.8V223l-91.1,52.6L508,237c1.7-3,4.2-5.4,7.3-7.1l140.8-81.4C659,146.7,662.5,145.8,666,145.8
			L666,145.8z"/>
		<path class="st4" d="M666,433.3v77.1c-3.5,0-6.9-0.9-9.9-2.6l-140.8-81.2c-3.1-1.7-5.6-4.3-7.3-7.3l66.8-38.5L666,433.3z"/>
		<path class="st4" d="M826.4,246.9v162.6c0,3.5-0.9,6.8-2.6,9.7L757,380.7v-105l66.8-38.7C825.5,239.9,826.4,243.2,826.4,246.9
			L826.4,246.9z"/>
	</g>
</g>
<g>
	
		<image style="overflow:visible;opacity:0.75;enable-background:new    ;" width="684" height="370" xlink:href="34E76CB.png"  transform="matrix(0.9983 0 0 0.9983 5.4672 1.112)">
	</image>
	<g>
		<path class="st0" d="M653.7,347.6H25.3c-6.6,0-11.9-5.3-11.9-11.9V22.1c0-6.6,5.3-11.9,11.9-11.9h628.4c6.6,0,11.9,5.3,11.9,11.9
			v313.6C665.6,342.3,660.3,347.6,653.7,347.6z"/>
	</g>
</g>
<g>
	<g>
		<path class="st5" d="M48,66.6v12.7h-1.8V68.2h-2.9v-1.6H48z"/>
	</g>
</g>
<g>
	<g>
		<path class="st5" d="M50.3,105.3v1.6h-9.1v-1.2l5.2-5c1.3-1.3,1.6-2.1,1.6-2.9c0-1.3-0.9-2.1-2.7-2.1c-1.4,0-2.5,0.4-3.2,1.4
			L40.7,96c1-1.2,2.7-1.9,4.6-1.9c2.6,0,4.3,1.4,4.3,3.5c0,1.2-0.4,2.3-2.1,4l-3.9,3.7C43.6,105.3,50.3,105.3,50.3,105.3z"/>
	</g>
</g>
<g>
	<g>
		<path class="st5" d="M51.4,158.6H49v3.1h-1.8v-3.1h-7v-1.3l6.5-8.3h2l-6.2,8h4.9v-2.8H49v2.8h2.4V158.6z"/>
	</g>
</g>
<g>
	<g>
		<path class="st5" d="M51.4,185.3c0,2.2-1.6,3.9-4.8,3.9c-1.8,0-3.6-0.6-4.7-1.5l0.8-1.4c0.9,0.8,2.3,1.4,3.8,1.4
			c1.9,0,3-0.9,3-2.3c0-1.4-0.9-2.3-3.8-2.3h-2.9l0.7-6.6h7.2v1.6h-5.6l-0.3,3.5h1.4C49.9,181.5,51.4,183.1,51.4,185.3z"/>
	</g>
</g>
<g>
	<g>
		<path class="st5" d="M51.4,130.5c0,2.1-1.6,3.9-4.8,3.9c-1.8,0-3.6-0.6-4.7-1.5l0.8-1.4c0.9,0.8,2.3,1.4,3.8,1.4
			c1.9,0,3-0.9,3-2.2s-1-2.2-3.1-2.2h-1V127l3.2-3.9h-6.1v-1.6h8.4v1.2l-3.3,4.1C50.1,127.1,51.4,128.5,51.4,130.5z"/>
	</g>
</g>
<g>
	<g>
		<path class="st5" d="M51.7,217c0,2.4-2,4-4.5,4c-3.4,0-5.3-2.3-5.3-6.3c0-4.3,2.4-6.6,6-6.6c1.2,0,2.3,0.2,3.2,0.7l-0.7,1.4
			c-0.7-0.4-1.5-0.6-2.4-0.6c-2.6,0-4.2,1.6-4.2,4.8c0,0.1,0,0.3,0,0.5c0.7-1.1,2.1-1.7,3.6-1.7C49.9,213.1,51.7,214.7,51.7,217z
			 M49.9,217.1c0-1.5-1.1-2.4-2.9-2.4c-1.7,0-2.9,1.1-2.9,2.5c0,1.3,1.1,2.4,3,2.4C48.8,219.5,49.9,218.6,49.9,217.1z"/>
	</g>
</g>
<g>
	<g>
		<path class="st5" d="M51.3,235.7v1.2l-5.1,11.4h-1.9l5-11.1h-5.8v2.3h-1.7v-3.8L51.3,235.7L51.3,235.7z"/>
	</g>
</g>
<g>
	<g>
		<path class="st5" d="M49.6,296.8c0,4.3-2.4,6.6-6,6.6c-1.2,0-2.3-0.2-3.2-0.7l0.7-1.4c0.7,0.4,1.5,0.6,2.4,0.6
			c2.6,0,4.2-1.6,4.2-4.8v-0.5c-0.7,1.1-2.1,1.7-3.7,1.7c-2.5,0-4.3-1.5-4.3-3.8c0-2.4,2-4,4.5-4C47.7,290.5,49.6,292.7,49.6,296.8z
			 M47.4,294.4c0-1.3-1.1-2.4-3-2.4c-1.6,0-2.8,1-2.8,2.5s1.1,2.4,2.9,2.4C46.2,296.8,47.4,295.8,47.4,294.4z"/>
	</g>
</g>
<g>
	<g>
		<path class="st5" d="M36.9,318v12.7h-1.8v-11.1h-2.9V318H36.9z"/>
		<path class="st5" d="M39.7,324.3c0-4.1,2.2-6.5,5.2-6.5s5.2,2.4,5.2,6.5s-2.2,6.5-5.2,6.5S39.7,328.5,39.7,324.3z M48.2,324.3
			c0-3.2-1.4-4.9-3.4-4.9s-3.4,1.6-3.4,4.9c0,3.2,1.4,4.9,3.4,4.9C46.9,329.2,48.2,327.6,48.2,324.3z"/>
	</g>
</g>
<g>
	<g>
		<path class="st5" d="M50.3,272.1c0,2.3-2,3.7-5.1,3.7s-5-1.4-5-3.7c0-1.4,0.8-2.5,2.2-3.1c-1.2-0.5-1.8-1.5-1.8-2.7
			c0-2.1,1.8-3.4,4.6-3.4s4.6,1.3,4.6,3.4c0,1.2-0.6,2.2-1.8,2.7C49.5,269.6,50.3,270.7,50.3,272.1z M48.5,272.1
			c0-1.4-1.2-2.3-3.2-2.3s-3.2,0.9-3.2,2.3s1.2,2.3,3.2,2.3S48.5,273.5,48.5,272.1z M42.5,266.4c0,1.2,1,2,2.8,2s2.8-0.8,2.8-2
			c0-1.3-1.1-2-2.8-2S42.5,265.2,42.5,266.4z"/>
	</g>
</g>
<g>
	<g>
		<path class="st6" d="M76.5,70.5c0,2.8-2,4.4-5.3,4.4H68v3.8h-1.8V66.1h4.9C74.5,66.1,76.5,67.7,76.5,70.5z M74.7,70.5
			c0-1.8-1.2-2.8-3.5-2.8H68v5.7h3.1C73.4,73.3,74.7,72.3,74.7,70.5z"/>
		<path class="st6" d="M78.3,72.4c0-3.7,2.9-6.5,6.8-6.5s6.7,2.8,6.7,6.5s-2.9,6.5-6.7,6.5C81.1,78.9,78.3,76.1,78.3,72.4z M90,72.4
			c0-2.8-2.1-4.9-4.9-4.9s-4.9,2.1-4.9,4.9s2.1,4.9,4.9,4.9C87.8,77.3,90,75.2,90,72.4z"/>
		<path class="st6" d="M93.4,77.3l0.7-1.4c0.9,0.9,2.6,1.5,4.2,1.5c2.2,0,3.1-0.9,3.1-2c0-3.1-7.7-1.1-7.7-5.9c0-2,1.5-3.6,4.9-3.6
			c1.5,0,3,0.4,4.1,1.1l-0.6,1.4c-1.1-0.7-2.4-1-3.5-1c-2.2,0-3.1,0.9-3.1,2c0,3.1,7.7,1.2,7.7,5.8c0,1.9-1.6,3.6-4.9,3.6
			C96.3,78.9,94.4,78.3,93.4,77.3z"/>
		<path class="st6" d="M108.1,67.7h-4.3v-1.6h10.5v1.6H110v11.1h-1.8L108.1,67.7L108.1,67.7z"/>
	</g>
</g>
<g>
	<g>
		<path class="st7" d="M63.9,100.7c0-3.7,2.9-6.5,6.7-6.5c2,0,3.7,0.7,4.8,2l-1.2,1.1c-1-1-2.2-1.5-3.6-1.5c-2.9,0-5,2.1-5,4.9
			s2.1,4.9,5,4.9c1.4,0,2.6-0.5,3.6-1.5l1.2,1.1c-1.2,1.3-2.9,2-4.8,2C66.8,107.2,63.9,104.5,63.9,100.7z"/>
		<path class="st7" d="M76.5,102.3c0-2.9,2.1-4.9,5-4.9s5,2,5,4.9s-2.1,4.9-5,4.9S76.5,105.1,76.5,102.3z M84.8,102.3
			c0-2-1.4-3.4-3.2-3.4c-1.8,0-3.2,1.3-3.2,3.4c0,2,1.4,3.4,3.2,3.4C83.4,105.7,84.8,104.3,84.8,102.3z"/>
		<path class="st7" d="M98,101.5v5.5h-1.7v-5.3c0-1.9-0.9-2.8-2.6-2.8c-1.8,0-3,1.1-3,3.2v4.9H89v-9.6h1.7v1.4
			c0.7-1,1.9-1.5,3.5-1.5C96.4,97.4,98,98.7,98,101.5z"/>
		<path class="st7" d="M106.7,106.5c-0.5,0.5-1.3,0.7-2.1,0.7c-1.9,0-3-1.1-3-3v-5.3H100v-1.4h1.6v-2.1h1.7v2.1h2.8v1.4h-2.8v5.2
			c0,1,0.5,1.6,1.5,1.6c0.5,0,1-0.2,1.4-0.5L106.7,106.5z"/>
		<path class="st7" d="M117.1,102.8h-7.8c0.2,1.7,1.6,2.8,3.5,2.8c1.1,0,2.1-0.4,2.8-1.2l1,1.1c-0.9,1-2.2,1.6-3.8,1.6
			c-3.1,0-5.2-2-5.2-4.9c0-2.8,2-4.9,4.8-4.9s4.7,2,4.7,4.9C117.1,102.5,117.1,102.7,117.1,102.8z M109.3,101.6h6.2
			c-0.2-1.6-1.4-2.8-3.1-2.8C110.7,98.8,109.5,100,109.3,101.6z"/>
		<path class="st7" d="M128.6,101.5v5.5h-1.7v-5.3c0-1.9-0.9-2.8-2.6-2.8c-1.8,0-3,1.1-3,3.2v4.9h-1.7v-9.6h1.7v1.4
			c0.7-1,1.9-1.5,3.5-1.5C127,97.4,128.6,98.7,128.6,101.5z"/>
		<path class="st7" d="M137.3,106.5c-0.5,0.5-1.3,0.7-2.1,0.7c-1.9,0-3-1.1-3-3v-5.3h-1.6v-1.4h1.6v-2.1h1.7v2.1h2.8v1.4h-2.8v5.2
			c0,1,0.5,1.6,1.5,1.6c0.5,0,1-0.2,1.4-0.5L137.3,106.5z"/>
		<path class="st7" d="M138.6,101.3h4.9v1.5h-4.9V101.3z"/>
		<path class="st7" d="M148.3,96H144v-1.6h10.5V96h-4.3v11.1h-1.8L148.3,96L148.3,96z"/>
		<path class="st7" d="M164.1,97.5l-4.7,10.6c-0.9,2-2,2.7-3.4,2.7c-0.9,0-1.9-0.3-2.5-0.9l0.7-1.3c0.5,0.5,1.1,0.7,1.7,0.7
			c0.8,0,1.4-0.4,1.8-1.5l0.3-0.7l-4.2-9.6h1.8l3.4,7.7l3.3-7.7C162.3,97.5,164.1,97.5,164.1,97.5z"/>
		<path class="st7" d="M175.6,102.3c0,3-2,4.9-4.9,4.9c-1.4,0-2.6-0.5-3.4-1.6v5h-1.7V97.5h1.7V99c0.8-1.1,2-1.6,3.4-1.6
			C173.6,97.4,175.6,99.3,175.6,102.3z M173.9,102.3c0-2-1.4-3.4-3.2-3.4s-3.2,1.3-3.2,3.4c0,2,1.4,3.4,3.2,3.4
			C172.5,105.7,173.9,104.3,173.9,102.3z"/>
		<path class="st7" d="M186.7,102.8h-7.8c0.2,1.7,1.6,2.8,3.5,2.8c1.1,0,2.1-0.4,2.8-1.2l1,1.1c-0.9,1-2.2,1.6-3.8,1.6
			c-3.1,0-5.2-2-5.2-4.9c0-2.8,2-4.9,4.8-4.9s4.7,2,4.7,4.9C186.7,102.5,186.7,102.7,186.7,102.8z M178.9,101.6h6.2
			c-0.2-1.6-1.4-2.8-3.1-2.8C180.3,98.8,179.1,100,178.9,101.6z"/>
		<path class="st7" d="M188.3,98.6c0-0.7,0.6-1.2,1.2-1.2c0.7,0,1.2,0.5,1.2,1.2s-0.5,1.2-1.2,1.2C188.9,99.9,188.3,99.3,188.3,98.6
			z M188.3,105.9c0-0.7,0.6-1.2,1.2-1.2c0.7,0,1.2,0.5,1.2,1.2s-0.5,1.2-1.2,1.2C188.9,107.2,188.3,106.7,188.3,105.9z"/>
		<path class="st8" d="M205.7,101.3v5.8h-1.6v-1.3c-0.6,0.9-1.6,1.4-3.2,1.4c-2.2,0-3.5-1.2-3.5-2.8c0-1.5,1-2.8,3.9-2.8h2.8v-0.3
			c0-1.5-0.9-2.3-2.6-2.3c-1.1,0-2.3,0.4-3,1l-0.7-1.3c1-0.8,2.4-1.2,4-1.2C204.2,97.4,205.7,98.6,205.7,101.3z M204,104.1v-1.3
			h-2.7c-1.7,0-2.2,0.7-2.2,1.5c0,1,0.8,1.6,2.1,1.6C202.5,105.8,203.6,105.2,204,104.1z"/>
		<path class="st8" d="M218.9,102.3c0,3-2,4.9-4.9,4.9c-1.4,0-2.6-0.5-3.4-1.6v5H209V97.5h1.7V99c0.8-1.1,2-1.6,3.4-1.6
			C216.9,97.4,218.9,99.3,218.9,102.3z M217.1,102.3c0-2-1.4-3.4-3.2-3.4s-3.2,1.3-3.2,3.4c0,2,1.4,3.4,3.2,3.4
			C215.7,105.7,217.1,104.3,217.1,102.3z"/>
		<path class="st8" d="M231.3,102.3c0,3-2,4.9-4.9,4.9c-1.4,0-2.6-0.5-3.4-1.6v5h-1.7V97.5h1.7V99c0.8-1.1,2-1.6,3.4-1.6
			C229.2,97.4,231.3,99.3,231.3,102.3z M229.5,102.3c0-2-1.4-3.4-3.2-3.4s-3.2,1.3-3.2,3.4c0,2,1.4,3.4,3.2,3.4
			C228.1,105.7,229.5,104.3,229.5,102.3z"/>
		<path class="st8" d="M233.7,93.6h1.7V107h-1.7V93.6z"/>
		<path class="st8" d="M238.4,94.5c0-0.6,0.5-1.1,1.2-1.1s1.2,0.5,1.2,1.1c0,0.7-0.5,1.2-1.2,1.2C238.9,95.6,238.4,95.1,238.4,94.5z
			 M238.7,97.5h1.7v9.6h-1.7V97.5z"/>
		<path class="st8" d="M242.9,102.3c0-2.9,2.1-4.9,5.1-4.9c1.7,0,3.2,0.7,3.9,2l-1.3,0.9c-0.6-0.9-1.6-1.4-2.6-1.4
			c-1.9,0-3.3,1.3-3.3,3.4s1.4,3.4,3.3,3.4c1.1,0,2-0.4,2.6-1.4l1.3,0.8c-0.8,1.3-2.2,2.1-3.9,2.1
			C245,107.2,242.9,105.1,242.9,102.3z"/>
		<path class="st8" d="M261.7,101.3v5.8h-1.6v-1.3c-0.6,0.9-1.6,1.4-3.2,1.4c-2.2,0-3.5-1.2-3.5-2.8c0-1.5,1-2.8,3.9-2.8h2.8v-0.3
			c0-1.5-0.9-2.3-2.6-2.3c-1.1,0-2.3,0.4-3,1l-0.7-1.3c1-0.8,2.4-1.2,4-1.2C260.2,97.4,261.7,98.6,261.7,101.3z M260,104.1v-1.3
			h-2.7c-1.7,0-2.2,0.7-2.2,1.5c0,1,0.8,1.6,2.1,1.6C258.5,105.8,259.6,105.2,260,104.1z"/>
		<path class="st8" d="M270.4,106.5c-0.5,0.5-1.3,0.7-2.1,0.7c-1.9,0-3-1.1-3-3v-5.3h-1.6v-1.4h1.6v-2.1h1.7v2.1h2.8v1.4H267v5.2
			c0,1,0.5,1.6,1.5,1.6c0.5,0,1-0.2,1.4-0.5L270.4,106.5z"/>
		<path class="st8" d="M272.1,94.5c0-0.6,0.5-1.1,1.2-1.1s1.2,0.5,1.2,1.1c0,0.7-0.5,1.2-1.2,1.2C272.7,95.6,272.1,95.1,272.1,94.5z
			 M272.5,97.5h1.7v9.6h-1.7V97.5z"/>
		<path class="st8" d="M276.6,102.3c0-2.9,2.1-4.9,5-4.9s5,2,5,4.9s-2.1,4.9-5,4.9S276.6,105.1,276.6,102.3z M284.8,102.3
			c0-2-1.4-3.4-3.2-3.4c-1.8,0-3.2,1.3-3.2,3.4c0,2,1.4,3.4,3.2,3.4C283.5,105.7,284.8,104.3,284.8,102.3z"/>
		<path class="st8" d="M298.1,101.5v5.5h-1.7v-5.3c0-1.9-0.9-2.8-2.6-2.8c-1.8,0-3,1.1-3,3.2v4.9H289v-9.6h1.7v1.4
			c0.7-1,1.9-1.5,3.5-1.5C296.5,97.4,298.1,98.7,298.1,101.5z"/>
		<path class="st8" d="M305.2,91.8h1.6l-6,17.1h-1.6L305.2,91.8z"/>
		<path class="st8" d="M304.5,110.1l0.6-1.3c0.3,0.3,0.9,0.5,1.4,0.5c0.9,0,1.4-0.6,1.4-1.7V97.5h1.7v10c0,2-1.1,3.2-3.1,3.2
			C305.8,110.7,305,110.5,304.5,110.1z M307.6,94.5c0-0.6,0.5-1.1,1.2-1.1s1.2,0.5,1.2,1.1c0,0.7-0.5,1.2-1.2,1.2
			C308.1,95.6,307.6,95.1,307.6,94.5z"/>
		<path class="st8" d="M311.7,106.1l0.7-1.4c0.8,0.6,2.1,1,3.4,1c1.6,0,2.3-0.5,2.3-1.3c0-2.2-6.1-0.3-6.1-4.1c0-1.7,1.5-2.9,4-2.9
			c1.2,0,2.7,0.3,3.5,0.9l-0.7,1.4c-0.9-0.6-1.8-0.8-2.8-0.8c-1.5,0-2.3,0.6-2.3,1.3c0,2.3,6.1,0.4,6.1,4.1c0,1.7-1.6,2.8-4.1,2.8
			C314.1,107.2,312.5,106.7,311.7,106.1z"/>
		<path class="st8" d="M321.1,102.3c0-2.9,2.1-4.9,5-4.9s5,2,5,4.9s-2.1,4.9-5,4.9S321.1,105.1,321.1,102.3z M329.3,102.3
			c0-2-1.4-3.4-3.2-3.4c-1.8,0-3.2,1.3-3.2,3.4c0,2,1.4,3.4,3.2,3.4C328,105.7,329.3,104.3,329.3,102.3z"/>
		<path class="st8" d="M342.6,101.5v5.5h-1.7v-5.3c0-1.9-0.9-2.8-2.6-2.8c-1.8,0-3,1.1-3,3.2v4.9h-1.7v-9.6h1.7v1.4
			c0.7-1,1.9-1.5,3.5-1.5C341,97.4,342.6,98.7,342.6,101.5z"/>
	</g>
</g>
<g>
	<g>
		<path class="st9" d="M70,156.5c0.7,0.2,1,0.6,1,1.7v4c0,0.9,0.4,1.4,1.3,1.4h0.5v1.4H72c-1.8,0-2.7-0.9-2.7-2.7v-4.2
			c0-0.6-0.3-0.9-0.8-0.9h-0.6v-1.4h0.6c0.5,0,0.8-0.3,0.8-0.9v-4.2c0-1.8,0.9-2.7,2.7-2.7h0.8v1.4h-0.5c-0.9,0-1.3,0.5-1.3,1.4v4
			C71,155.8,70.7,156.2,70,156.5z"/>
	</g>
</g>
<g>
	<g>
		<path class="st9" d="M63.1,329c0-0.7,0.6-1.2,1.2-1.2c0.7,0,1.2,0.5,1.2,1.2s-0.5,1.2-1.2,1.2S63.1,329.7,63.1,329z"/>
		<path class="st9" d="M67.2,329c0-0.7,0.6-1.2,1.2-1.2c0.7,0,1.2,0.5,1.2,1.2s-0.5,1.2-1.2,1.2C67.8,330.2,67.2,329.7,67.2,329z"/>
		<path class="st9" d="M71.3,329c0-0.7,0.6-1.2,1.2-1.2c0.7,0,1.2,0.5,1.2,1.2s-0.5,1.2-1.2,1.2C71.9,330.2,71.3,329.7,71.3,329z"/>
	</g>
</g>
<g>
	<g>
		<path class="st9" d="M222.9,215.3c0.7,0.2,1,0.6,1,1.7v4c0,0.9,0.4,1.4,1.3,1.4h0.5v1.4h-0.8c-1.8,0-2.7-0.9-2.7-2.7V217
			c0-0.6-0.3-0.9-0.8-0.9h-0.6v-1.4h0.6c0.5,0,0.8-0.3,0.8-0.9v-4.2c0-1.8,0.9-2.7,2.7-2.7h0.8v1.4h-0.5c-0.9,0-1.3,0.5-1.3,1.4v4
			C223.9,214.7,223.5,215.1,222.9,215.3z"/>
	</g>
</g>
<g>
	<g>
		<path class="st7" d="M89.3,179c0,0.7-0.5,1.2-1.2,1.2s-1.2-0.5-1.2-1.2c0-0.3,0.1-0.6,0.3-1.3l0.9-2.5h1.1l-0.7,2.7
			C89,178,89.3,178.4,89.3,179z M92.7,179c0,0.7-0.5,1.2-1.2,1.2s-1.2-0.5-1.2-1.2c0-0.3,0.1-0.6,0.3-1.3l0.9-2.5h1.1l-0.7,2.7
			C92.4,178,92.7,178.4,92.7,179z"/>
		<path class="st7" d="M94,187.6l0.7-1.4c0.8,0.6,2.1,1,3.4,1c1.6,0,2.3-0.5,2.3-1.3c0-2.2-6.1-0.3-6.1-4.1c0-1.7,1.5-2.9,4-2.9
			c1.2,0,2.7,0.3,3.5,0.9l-0.7,1.4c-0.9-0.6-1.8-0.8-2.8-0.8c-1.5,0-2.3,0.6-2.3,1.3c0,2.3,6.1,0.4,6.1,4.1c0,1.7-1.6,2.8-4.1,2.8
			C96.4,188.7,94.8,188.2,94,187.6z"/>
		<path class="st7" d="M112.9,184.4h-7.8c0.2,1.7,1.6,2.8,3.5,2.8c1.1,0,2.1-0.4,2.8-1.2l1,1.1c-0.9,1-2.2,1.6-3.8,1.6
			c-3.1,0-5.2-2-5.2-4.9c0-2.8,2-4.9,4.8-4.9s4.7,2,4.7,4.9C113,184,112.9,184.2,112.9,184.4z M105.1,183.1h6.2
			c-0.2-1.6-1.4-2.8-3.1-2.8C106.6,180.4,105.3,181.5,105.1,183.1z"/>
		<path class="st7" d="M120.5,178.9v1.7c-0.1,0-0.3,0-0.4,0c-1.9,0-3,1.1-3,3.2v4.8h-1.7V179h1.7v1.6
			C117.7,179.5,118.9,178.9,120.5,178.9z"/>
		<path class="st7" d="M131.6,179l-4.2,9.6h-1.8l-4.2-9.6h1.8l3.3,7.7l3.4-7.7H131.6z"/>
		<path class="st7" d="M141.6,184.4h-7.8c0.2,1.7,1.6,2.8,3.5,2.8c1.1,0,2.1-0.4,2.8-1.2l1,1.1c-0.9,1-2.2,1.6-3.8,1.6
			c-3.1,0-5.2-2-5.2-4.9c0-2.8,2-4.9,4.8-4.9s4.7,2,4.7,4.9C141.6,184,141.6,184.2,141.6,184.4z M133.8,183.1h6.2
			c-0.2-1.6-1.4-2.8-3.1-2.8C135.2,180.4,134,181.5,133.8,183.1z"/>
		<path class="st7" d="M149.2,178.9v1.7c-0.1,0-0.3,0-0.4,0c-1.9,0-3,1.1-3,3.2v4.8H144V179h1.7v1.6
			C146.3,179.5,147.5,178.9,149.2,178.9z"/>
		<path class="st7" d="M149.6,188.6h9.1v1.1h-9.1V188.6z"/>
		<path class="st7" d="M165.3,188c-0.5,0.5-1.3,0.7-2.1,0.7c-1.9,0-3-1.1-3-3v-5.3h-1.6V179h1.6v-2.1h1.7v2.1h2.8v1.4h-2.8v5.2
			c0,1,0.5,1.6,1.5,1.6c0.5,0,1-0.2,1.4-0.5L165.3,188z"/>
		<path class="st7" d="M175.7,179l-4.7,10.6c-0.9,2-2,2.7-3.4,2.7c-0.9,0-1.9-0.3-2.5-0.9l0.7-1.3c0.5,0.5,1.1,0.7,1.7,0.7
			c0.8,0,1.4-0.4,1.8-1.5l0.3-0.7l-4.2-9.6h1.8l3.4,7.7l3.3-7.7H175.7z"/>
		<path class="st7" d="M187.3,183.8c0,3-2,4.9-4.9,4.9c-1.4,0-2.6-0.5-3.4-1.6v5h-1.7V179h1.7v1.5c0.8-1.1,2-1.6,3.4-1.6
			C185.3,178.9,187.3,180.9,187.3,183.8z M185.5,183.8c0-2-1.4-3.4-3.2-3.4s-3.2,1.3-3.2,3.4c0,2,1.4,3.4,3.2,3.4
			S185.5,185.8,185.5,183.8z"/>
		<path class="st7" d="M198.4,184.4h-7.8c0.2,1.7,1.6,2.8,3.5,2.8c1.1,0,2.1-0.4,2.8-1.2l1,1.1c-0.9,1-2.2,1.6-3.8,1.6
			c-3.1,0-5.2-2-5.2-4.9c0-2.8,2-4.9,4.8-4.9s4.7,2,4.7,4.9C198.4,184,198.4,184.2,198.4,184.4z M190.6,183.1h6.2
			c-0.2-1.6-1.4-2.8-3.1-2.8C192,180.4,190.7,181.5,190.6,183.1z"/>
		<path class="st7" d="M202.4,176.3c0,0.3-0.1,0.6-0.3,1.3l-0.9,2.5h-1.1l0.7-2.7c-0.5-0.2-0.8-0.6-0.8-1.1c0-0.7,0.5-1.2,1.2-1.2
			C201.9,175,202.4,175.6,202.4,176.3z M205.8,176.3c0,0.3-0.1,0.6-0.3,1.3l-0.9,2.5h-1.1l0.7-2.7c-0.5-0.2-0.8-0.6-0.8-1.1
			c0-0.7,0.5-1.2,1.2-1.2C205.3,175,205.8,175.6,205.8,176.3z"/>
		<path class="st7" d="M207.5,180.1c0-0.7,0.6-1.2,1.2-1.2c0.7,0,1.2,0.5,1.2,1.2s-0.5,1.2-1.2,1.2
			C208,181.4,207.5,180.9,207.5,180.1z M207.5,187.5c0-0.7,0.6-1.2,1.2-1.2c0.7,0,1.2,0.5,1.2,1.2s-0.5,1.2-1.2,1.2
			S207.5,188.2,207.5,187.5z"/>
	</g>
</g>
<g>
	<g>
		<path class="st10" d="M220.6,179c0,0.7-0.5,1.2-1.2,1.2s-1.2-0.5-1.2-1.2c0-0.3,0.1-0.6,0.3-1.3l0.9-2.5h1.1l-0.7,2.7
			C220.3,178,220.6,178.4,220.6,179z M224,179c0,0.7-0.5,1.2-1.2,1.2s-1.2-0.5-1.2-1.2c0-0.3,0.1-0.6,0.3-1.3l0.9-2.5h1.1l-0.7,2.7
			C223.8,178,224,178.4,224,179z"/>
		<path class="st10" d="M225.5,183.8c0-2.9,2.1-4.9,5-4.9s5,2,5,4.9s-2.1,4.9-5,4.9S225.5,186.7,225.5,183.8z M233.7,183.8
			c0-2-1.4-3.4-3.2-3.4s-3.2,1.3-3.2,3.4c0,2,1.4,3.4,3.2,3.4S233.7,185.8,233.7,183.8z"/>
		<path class="st10" d="M243,178.9v1.7c-0.1,0-0.3,0-0.4,0c-1.9,0-3,1.1-3,3.2v4.8h-1.7V179h1.7v1.6
			C240.1,179.5,241.3,178.9,243,178.9z"/>
		<path class="st10" d="M252.7,182.8v5.8h-1.6v-1.3c-0.6,0.9-1.6,1.4-3.2,1.4c-2.2,0-3.5-1.2-3.5-2.8c0-1.5,1-2.8,3.9-2.8h2.8v-0.3
			c0-1.5-0.9-2.3-2.6-2.3c-1.1,0-2.3,0.4-3,1l-0.7-1.3c1-0.8,2.4-1.2,4-1.2C251.3,178.9,252.7,180.2,252.7,182.8z M251,185.7v-1.3
			h-2.7c-1.7,0-2.2,0.7-2.2,1.5c0,1,0.8,1.6,2.1,1.6C249.5,187.4,250.6,186.8,251,185.7z"/>
		<path class="st10" d="M255.1,183.8c0-2.9,2.1-4.9,5.1-4.9c1.7,0,3.2,0.7,3.9,2l-1.3,0.9c-0.6-0.9-1.6-1.4-2.6-1.4
			c-1.9,0-3.3,1.3-3.3,3.4c0,2.1,1.4,3.4,3.3,3.4c1.1,0,2-0.4,2.6-1.4l1.3,0.8c-0.8,1.3-2.2,2.1-3.9,2.1
			C257.3,188.7,255.1,186.7,255.1,183.8z"/>
		<path class="st10" d="M266.2,175.2h1.7v13.4h-1.7V175.2z"/>
		<path class="st10" d="M279.9,184.4h-7.8c0.2,1.7,1.6,2.8,3.5,2.8c1.1,0,2.1-0.4,2.8-1.2l1,1.1c-0.9,1-2.2,1.6-3.8,1.6
			c-3.1,0-5.2-2-5.2-4.9c0-2.8,2-4.9,4.8-4.9s4.7,2,4.7,4.9C280,184,280,184.2,279.9,184.4z M272.1,183.1h6.2
			c-0.2-1.6-1.4-2.8-3.1-2.8C273.6,180.4,272.3,181.5,272.1,183.1z"/>
		<path class="st10" d="M284,176.3c0,0.3-0.1,0.6-0.3,1.3l-0.9,2.5h-1.1l0.7-2.7c-0.5-0.2-0.8-0.6-0.8-1.1c0-0.7,0.5-1.2,1.2-1.2
			C283.5,175,284,175.6,284,176.3z M287.4,176.3c0,0.3-0.1,0.6-0.3,1.3l-0.9,2.5h-1.1l0.7-2.7c-0.5-0.2-0.8-0.6-0.8-1.1
			c0-0.7,0.5-1.2,1.2-1.2C286.9,175,287.4,175.6,287.4,176.3z"/>
	</g>
</g>
<g>
	<g>
		<path class="st7" d="M89.3,210.7c0,0.7-0.5,1.2-1.2,1.2s-1.2-0.5-1.2-1.2c0-0.3,0.1-0.6,0.3-1.3l0.9-2.5h1.1l-0.7,2.7
			C89,209.7,89.3,210.1,89.3,210.7z M92.7,210.7c0,0.7-0.5,1.2-1.2,1.2s-1.2-0.5-1.2-1.2c0-0.3,0.1-0.6,0.3-1.3l0.9-2.5h1.1
			l-0.7,2.7C92.4,209.7,92.7,210.1,92.7,210.7z"/>
		<path class="st7" d="M94.1,215.5c0-2.9,2.1-4.9,5.1-4.9c1.7,0,3.2,0.7,3.9,2l-1.3,0.9c-0.6-0.9-1.6-1.4-2.6-1.4
			c-1.9,0-3.3,1.3-3.3,3.4c0,2.1,1.4,3.4,3.3,3.4c1.1,0,2-0.4,2.6-1.4l1.3,0.8c-0.8,1.3-2.2,2.1-3.9,2.1
			C96.2,220.4,94.1,218.4,94.1,215.5z"/>
		<path class="st7" d="M104.3,215.5c0-2.9,2.1-4.9,5-4.9s5,2,5,4.9s-2.1,4.9-5,4.9S104.3,218.4,104.3,215.5z M112.5,215.5
			c0-2-1.4-3.4-3.2-3.4c-1.8,0-3.2,1.3-3.2,3.4c0,2,1.4,3.4,3.2,3.4C111.2,218.9,112.5,217.5,112.5,215.5z"/>
		<path class="st7" d="M125.8,214.8v5.5h-1.7V215c0-1.9-0.9-2.8-2.6-2.8c-1.8,0-3,1.1-3,3.2v4.9h-1.7v-9.6h1.7v1.4
			c0.7-1,1.9-1.5,3.5-1.5C124.2,210.6,125.8,212,125.8,214.8z"/>
		<path class="st7" d="M138.2,214.8v5.5h-1.7V215c0-1.9-0.9-2.8-2.6-2.8c-1.8,0-3,1.1-3,3.2v4.9H129v-9.6h1.7v1.4
			c0.7-1,1.9-1.5,3.5-1.5C136.5,210.6,138.2,212,138.2,214.8z"/>
		<path class="st7" d="M150.1,216.1h-7.8c0.2,1.7,1.6,2.8,3.5,2.8c1.1,0,2.1-0.4,2.8-1.2l1,1.1c-0.9,1-2.2,1.6-3.8,1.6
			c-3.1,0-5.2-2-5.2-4.9c0-2.8,2-4.9,4.8-4.9s4.7,2,4.7,4.9C150.1,215.7,150.1,215.9,150.1,216.1z M142.3,214.8h6.2
			c-0.2-1.6-1.4-2.8-3.1-2.8C143.7,212.1,142.5,213.2,142.3,214.8z"/>
		<path class="st7" d="M151.6,215.5c0-2.9,2.1-4.9,5.1-4.9c1.7,0,3.2,0.7,3.9,2l-1.3,0.9c-0.6-0.9-1.6-1.4-2.6-1.4
			c-1.9,0-3.3,1.3-3.3,3.4c0,2.1,1.4,3.4,3.3,3.4c1.1,0,2-0.4,2.6-1.4l1.3,0.8c-0.8,1.3-2.2,2.1-3.9,2.1
			C153.8,220.4,151.6,218.4,151.6,215.5z"/>
		<path class="st7" d="M168.4,219.7c-0.5,0.5-1.3,0.7-2.1,0.7c-1.9,0-3-1.1-3-3v-5.3h-1.6v-1.4h1.6v-2.1h1.7v2.1h2.8v1.4H165v5.2
			c0,1,0.5,1.6,1.5,1.6c0.5,0,1-0.2,1.4-0.5L168.4,219.7z"/>
		<path class="st7" d="M170.2,207.7c0-0.6,0.5-1.1,1.2-1.1s1.2,0.5,1.2,1.1c0,0.7-0.5,1.2-1.2,1.2S170.2,208.4,170.2,207.7z
			 M170.5,210.7h1.7v9.6h-1.7V210.7z"/>
		<path class="st7" d="M174.7,215.5c0-2.9,2.1-4.9,5-4.9s5,2,5,4.9s-2.1,4.9-5,4.9S174.7,218.4,174.7,215.5z M182.9,215.5
			c0-2-1.4-3.4-3.2-3.4s-3.2,1.3-3.2,3.4c0,2,1.4,3.4,3.2,3.4S182.9,217.5,182.9,215.5z"/>
		<path class="st7" d="M196.2,214.8v5.5h-1.7V215c0-1.9-0.9-2.8-2.6-2.8c-1.8,0-3,1.1-3,3.2v4.9h-1.7v-9.6h1.7v1.4
			c0.7-1,1.9-1.5,3.5-1.5C194.5,210.6,196.2,212,196.2,214.8z"/>
		<path class="st7" d="M200.9,208c0,0.3-0.1,0.6-0.3,1.3l-0.9,2.5h-1.1l0.7-2.7c-0.5-0.2-0.8-0.6-0.8-1.1c0-0.7,0.5-1.2,1.2-1.2
			C200.4,206.8,200.9,207.3,200.9,208z M204.3,208c0,0.3-0.1,0.6-0.3,1.3l-0.9,2.5H202l0.7-2.7c-0.5-0.2-0.8-0.6-0.8-1.1
			c0-0.7,0.5-1.2,1.2-1.2C203.8,206.8,204.3,207.3,204.3,208z"/>
		<path class="st7" d="M206,211.8c0-0.7,0.6-1.2,1.2-1.2c0.7,0,1.2,0.5,1.2,1.2s-0.5,1.2-1.2,1.2C206.5,213.1,206,212.6,206,211.8z
			 M206,219.2c0-0.7,0.6-1.2,1.2-1.2c0.7,0,1.2,0.5,1.2,1.2s-0.5,1.2-1.2,1.2S206,219.9,206,219.2z"/>
	</g>
</g>
<g>
	<g>
		<path class="st7" d="M119.8,239c0,0.7-0.5,1.2-1.2,1.2s-1.2-0.5-1.2-1.2c0-0.3,0.1-0.6,0.3-1.3l0.9-2.5h1.1l-0.7,2.7
			C119.6,238,119.8,238.4,119.8,239z M123.3,239c0,0.7-0.5,1.2-1.2,1.2s-1.2-0.5-1.2-1.2c0-0.3,0.1-0.6,0.3-1.3l0.9-2.5h1.1
			l-0.7,2.7C123,238,123.3,238.4,123.3,239z"/>
		<path class="st7" d="M134.9,243.1v5.5h-1.7v-5.3c0-1.9-0.9-2.8-2.6-2.8c-1.8,0-3,1.1-3,3.2v4.9h-1.7v-13.4h1.7v5.2
			c0.7-0.9,1.9-1.4,3.4-1.4C133.3,238.9,134.9,240.3,134.9,243.1z"/>
		<path class="st7" d="M137.3,243.8c0-2.9,2.1-4.9,5-4.9s5,2,5,4.9s-2.1,4.9-5,4.9S137.3,246.7,137.3,243.8z M145.5,243.8
			c0-2-1.4-3.4-3.2-3.4s-3.2,1.3-3.2,3.4c0,2,1.4,3.4,3.2,3.4S145.5,245.9,145.5,243.8z"/>
		<path class="st7" d="M148.5,247.6l0.7-1.4c0.8,0.6,2.1,1,3.4,1c1.6,0,2.3-0.5,2.3-1.3c0-2.2-6.1-0.3-6.1-4.1c0-1.7,1.5-2.9,4-2.9
			c1.2,0,2.7,0.3,3.5,0.9l-0.7,1.4c-0.9-0.6-1.8-0.8-2.8-0.8c-1.5,0-2.3,0.6-2.3,1.3c0,2.3,6.1,0.4,6.1,4.1c0,1.7-1.6,2.8-4.1,2.8
			C150.8,248.7,149.3,248.2,148.5,247.6z"/>
		<path class="st7" d="M164.2,248c-0.5,0.5-1.3,0.7-2.1,0.7c-1.9,0-3-1.1-3-3v-5.3h-1.6V239h1.6v-2.1h1.7v2.1h2.8v1.4h-2.8v5.2
			c0,1,0.5,1.6,1.5,1.6c0.5,0,1-0.2,1.4-0.5L164.2,248z"/>
		<path class="st7" d="M167.9,236.3c0,0.3-0.1,0.6-0.3,1.3l-0.9,2.5h-1.1l0.7-2.7c-0.5-0.2-0.8-0.6-0.8-1.1c0-0.7,0.5-1.2,1.2-1.2
			C167.4,235.1,167.9,235.6,167.9,236.3z M171.3,236.3c0,0.3-0.1,0.6-0.3,1.3l-0.9,2.5H169l0.7-2.7c-0.5-0.2-0.8-0.6-0.8-1.1
			c0-0.7,0.5-1.2,1.2-1.2C170.8,235.1,171.3,235.6,171.3,236.3z"/>
		<path class="st7" d="M173,240.1c0-0.7,0.6-1.2,1.2-1.2c0.7,0,1.2,0.5,1.2,1.2s-0.5,1.2-1.2,1.2C173.5,241.4,173,240.9,173,240.1z
			 M173,247.5c0-0.7,0.6-1.2,1.2-1.2c0.7,0,1.2,0.5,1.2,1.2s-0.5,1.2-1.2,1.2S173,248.2,173,247.5z"/>
	</g>
</g>
<g>
	<g>
		<path class="st7" d="M121,266.2c0,0.7-0.5,1.2-1.2,1.2s-1.2-0.5-1.2-1.2c0-0.3,0.1-0.6,0.3-1.3l0.9-2.5h1.1l-0.7,2.7
			C120.7,265.2,121,265.6,121,266.2z M124.4,266.2c0,0.7-0.5,1.2-1.2,1.2s-1.2-0.5-1.2-1.2c0-0.3,0.1-0.6,0.3-1.3l0.9-2.5h1.1
			l-0.7,2.7C124.1,265.2,124.4,265.6,124.4,266.2z"/>
		<path class="st7" d="M137.4,271c0,3-2,4.9-4.9,4.9c-1.4,0-2.6-0.5-3.4-1.6v5h-1.7v-13.1h1.7v1.5c0.8-1.1,2-1.6,3.4-1.6
			C135.4,266.1,137.4,268,137.4,271z M135.7,271c0-2-1.4-3.4-3.2-3.4s-3.2,1.3-3.2,3.4c0,2,1.4,3.4,3.2,3.4S135.7,273,135.7,271z"/>
		<path class="st7" d="M138.9,271c0-2.9,2.1-4.9,5-4.9s5,2,5,4.9s-2.1,4.9-5,4.9S138.9,273.8,138.9,271z M147.2,271
			c0-2-1.4-3.4-3.2-3.4s-3.2,1.3-3.2,3.4s1.4,3.4,3.2,3.4S147.2,273,147.2,271z"/>
		<path class="st7" d="M156.5,266.1v1.7c-0.1,0-0.3,0-0.4,0c-1.9,0-3,1.1-3,3.2v4.8h-1.7v-9.6h1.7v1.6
			C153.6,266.7,154.8,266.1,156.5,266.1z"/>
		<path class="st7" d="M164.4,275.2c-0.5,0.5-1.3,0.7-2.1,0.7c-1.9,0-3-1.1-3-3v-5.3h-1.6v-1.4h1.6v-2.1h1.7v2.1h2.8v1.4H161v5.2
			c0,1,0.5,1.6,1.5,1.6c0.5,0,1-0.2,1.4-0.5L164.4,275.2z"/>
		<path class="st7" d="M168.1,263.5c0,0.3-0.1,0.6-0.3,1.3l-0.9,2.5h-1.1l0.7-2.7c-0.5-0.2-0.8-0.6-0.8-1.1c0-0.7,0.5-1.2,1.2-1.2
			C167.6,262.2,168.1,262.8,168.1,263.5z M171.6,263.5c0,0.3-0.1,0.6-0.3,1.3l-0.9,2.5h-1.1l0.7-2.7c-0.5-0.2-0.8-0.6-0.8-1.1
			c0-0.7,0.5-1.2,1.2-1.2C171.1,262.2,171.6,262.8,171.6,263.5z"/>
		<path class="st7" d="M173.2,267.3c0-0.7,0.6-1.2,1.2-1.2c0.7,0,1.2,0.5,1.2,1.2s-0.5,1.2-1.2,1.2
			C173.8,268.6,173.2,268,173.2,267.3z M173.2,274.6c0-0.7,0.6-1.2,1.2-1.2c0.7,0,1.2,0.5,1.2,1.2s-0.5,1.2-1.2,1.2
			C173.8,275.9,173.2,275.4,173.2,274.6z"/>
	</g>
</g>
<g>
	<g>
		<path class="st7" d="M121,293.3c0,0.7-0.5,1.2-1.2,1.2s-1.2-0.5-1.2-1.2c0-0.3,0.1-0.6,0.3-1.3l0.9-2.5h1.1l-0.7,2.7
			C120.7,292.4,121,292.8,121,293.3z M124.4,293.3c0,0.7-0.5,1.2-1.2,1.2s-1.2-0.5-1.2-1.2c0-0.3,0.1-0.6,0.3-1.3l0.9-2.5h1.1
			l-0.7,2.7C124.1,292.4,124.4,292.8,124.4,293.3z"/>
		<path class="st7" d="M135.9,293.4v9.6h-1.6v-1.4c-0.7,1-1.9,1.6-3.3,1.6c-2.5,0-4.1-1.4-4.1-4.2v-5.5h1.7v5.3
			c0,1.9,0.9,2.8,2.6,2.8c1.8,0,3-1.1,3-3.2v-5L135.9,293.4L135.9,293.4z"/>
		<path class="st7" d="M138,301.9l0.7-1.4c0.8,0.6,2.1,1,3.4,1c1.6,0,2.3-0.5,2.3-1.3c0-2.2-6.1-0.3-6.1-4.1c0-1.7,1.5-2.9,4-2.9
			c1.2,0,2.7,0.3,3.5,0.9l-0.7,1.4c-0.9-0.6-1.8-0.8-2.8-0.8c-1.5,0-2.3,0.6-2.3,1.3c0,2.3,6.1,0.4,6.1,4.1c0,1.7-1.6,2.8-4.1,2.8
			C140.3,303.1,138.8,302.6,138,301.9z"/>
		<path class="st7" d="M156.9,298.7h-7.8c0.2,1.7,1.6,2.8,3.5,2.8c1.1,0,2.1-0.4,2.8-1.2l1,1.1c-0.9,1-2.2,1.6-3.8,1.6
			c-3.1,0-5.2-2-5.2-4.9c0-2.8,2-4.9,4.8-4.9s4.7,2,4.7,4.9C156.9,298.4,156.9,298.6,156.9,298.7z M149.1,297.5h6.2
			c-0.2-1.6-1.4-2.8-3.1-2.8C150.5,294.7,149.3,295.9,149.1,297.5z"/>
		<path class="st7" d="M164.5,293.3v1.7c-0.1,0-0.3,0-0.4,0c-1.9,0-3,1.1-3,3.2v4.8h-1.7v-9.6h1.7v1.6
			C161.6,293.8,162.8,293.3,164.5,293.3z"/>
		<path class="st7" d="M175.8,297.4v5.5H174v-5.3c0-1.9-0.9-2.8-2.6-2.8c-1.8,0-3,1.1-3,3.2v4.9h-1.7v-9.6h1.7v1.4
			c0.7-1,1.9-1.5,3.5-1.5C174.1,293.3,175.8,294.6,175.8,297.4z"/>
		<path class="st7" d="M186.6,297.2v5.8H185v-1.3c-0.6,0.9-1.6,1.4-3.2,1.4c-2.2,0-3.5-1.2-3.5-2.8c0-1.5,1-2.8,3.9-2.8h2.8v-0.3
			c0-1.5-0.9-2.3-2.6-2.3c-1.1,0-2.3,0.4-3,1l-0.7-1.3c1-0.8,2.4-1.2,4-1.2C185.1,293.3,186.6,294.5,186.6,297.2z M184.9,300v-1.3
			h-2.7c-1.7,0-2.2,0.7-2.2,1.5c0,1,0.8,1.6,2.1,1.6C183.4,301.7,184.4,301.1,184.9,300z"/>
		<path class="st7" d="M205.8,297.4v5.5H204v-5.3c0-1.9-0.9-2.8-2.5-2.8c-1.7,0-2.9,1.1-2.9,3.2v4.9h-1.7v-5.3
			c0-1.9-0.9-2.8-2.5-2.8c-1.7,0-2.9,1.1-2.9,3.2v4.9h-1.7v-9.6h1.7v1.4c0.7-1,1.9-1.5,3.3-1.5c1.5,0,2.7,0.6,3.3,1.8
			c0.7-1.1,2.1-1.8,3.7-1.8C204.2,293.3,205.8,294.6,205.8,297.4z"/>
		<path class="st7" d="M217.7,298.7h-7.8c0.2,1.7,1.6,2.8,3.5,2.8c1.1,0,2.1-0.4,2.8-1.2l1,1.1c-0.9,1-2.2,1.6-3.8,1.6
			c-3.1,0-5.2-2-5.2-4.9c0-2.8,2-4.9,4.8-4.9s4.7,2,4.7,4.9C217.7,298.4,217.7,298.6,217.7,298.7z M209.9,297.5h6.2
			c-0.2-1.6-1.4-2.8-3.1-2.8C211.3,294.7,210.1,295.9,209.9,297.5z"/>
		<path class="st7" d="M221.7,290.6c0,0.3-0.1,0.6-0.3,1.3l-0.9,2.5h-1.1l0.7-2.7c-0.5-0.2-0.8-0.6-0.8-1.1c0-0.7,0.5-1.2,1.2-1.2
			C221.2,289.4,221.7,289.9,221.7,290.6z M225.1,290.6c0,0.3-0.1,0.6-0.3,1.3l-0.9,2.5h-1.1l0.7-2.7c-0.5-0.2-0.8-0.6-0.8-1.1
			c0-0.7,0.5-1.2,1.2-1.2C224.6,289.4,225.1,289.9,225.1,290.6z"/>
		<path class="st7" d="M226.8,294.5c0-0.7,0.6-1.2,1.2-1.2c0.7,0,1.2,0.5,1.2,1.2s-0.5,1.2-1.2,1.2
			C227.4,295.8,226.8,295.2,226.8,294.5z M226.8,301.8c0-0.7,0.6-1.2,1.2-1.2c0.7,0,1.2,0.5,1.2,1.2s-0.5,1.2-1.2,1.2
			C227.4,303.1,226.8,302.5,226.8,301.8z"/>
	</g>
</g>
<g>
	<g>
		<path class="st10" d="M188.9,239c0,0.7-0.5,1.2-1.2,1.2s-1.2-0.5-1.2-1.2c0-0.3,0.1-0.6,0.3-1.3l0.9-2.5h1.1l-0.7,2.7
			C188.6,238,188.9,238.4,188.9,239z M192.3,239c0,0.7-0.5,1.2-1.2,1.2s-1.2-0.5-1.2-1.2c0-0.3,0.1-0.6,0.3-1.3l0.9-2.5h1.1
			l-0.7,2.7C192.1,238,192.3,238.4,192.3,239z"/>
		<path class="st10" d="M194.9,235.2h1.7v13.4h-1.7V235.2z"/>
		<path class="st10" d="M199,243.8c0-2.9,2.1-4.9,5-4.9s5,2,5,4.9s-2.1,4.9-5,4.9S199,246.7,199,243.8z M207.2,243.8
			c0-2-1.4-3.4-3.2-3.4s-3.2,1.3-3.2,3.4c0,2,1.4,3.4,3.2,3.4C205.9,247.2,207.2,245.9,207.2,243.8z"/>
		<path class="st10" d="M210.5,243.8c0-2.9,2.1-4.9,5.1-4.9c1.7,0,3.2,0.7,3.9,2l-1.3,0.9c-0.6-0.9-1.6-1.4-2.6-1.4
			c-1.9,0-3.3,1.3-3.3,3.4c0,2.1,1.4,3.4,3.3,3.4c1.1,0,2-0.4,2.6-1.4l1.3,0.8c-0.8,1.3-2.2,2.1-3.9,2.1
			C212.6,248.7,210.5,246.7,210.5,243.8z"/>
		<path class="st10" d="M229.4,242.8v5.8h-1.6v-1.3c-0.6,0.9-1.6,1.4-3.2,1.4c-2.2,0-3.5-1.2-3.5-2.8c0-1.5,1-2.8,3.9-2.8h2.8v-0.3
			c0-1.5-0.9-2.3-2.6-2.3c-1.1,0-2.3,0.4-3,1l-0.7-1.3c1-0.8,2.4-1.2,4-1.2C227.9,238.9,229.4,240.2,229.4,242.8z M227.6,245.7v-1.3
			H225c-1.7,0-2.2,0.7-2.2,1.5c0,1,0.8,1.6,2.1,1.6C226.2,247.4,227.2,246.8,227.6,245.7z"/>
		<path class="st10" d="M232.6,235.2h1.7v13.4h-1.7V235.2z"/>
		<path class="st10" d="M246.8,243.1v5.5H245v-5.3c0-1.9-0.9-2.8-2.6-2.8c-1.8,0-3,1.1-3,3.2v4.9h-1.7v-13.4h1.7v5.2
			c0.7-0.9,1.9-1.4,3.4-1.4C245.1,238.9,246.8,240.3,246.8,243.1z"/>
		<path class="st10" d="M249.2,243.8c0-2.9,2.1-4.9,5-4.9c2.9,0,5,2,5,4.9s-2.1,4.9-5,4.9S249.2,246.7,249.2,243.8z M257.4,243.8
			c0-2-1.4-3.4-3.2-3.4s-3.2,1.3-3.2,3.4c0,2,1.4,3.4,3.2,3.4S257.4,245.9,257.4,243.8z"/>
		<path class="st10" d="M260.3,247.6l0.7-1.4c0.8,0.6,2.1,1,3.4,1c1.6,0,2.3-0.5,2.3-1.3c0-2.2-6.1-0.3-6.1-4.1c0-1.7,1.5-2.9,4-2.9
			c1.2,0,2.7,0.3,3.5,0.9l-0.7,1.4c-0.9-0.6-1.8-0.8-2.8-0.8c-1.5,0-2.3,0.6-2.3,1.3c0,2.3,6.1,0.4,6.1,4.1c0,1.7-1.6,2.8-4.1,2.8
			C262.7,248.7,261.1,248.2,260.3,247.6z"/>
		<path class="st10" d="M276,248c-0.5,0.5-1.3,0.7-2.1,0.7c-1.9,0-3-1.1-3-3v-5.3h-1.6V239h1.6v-2.1h1.7v2.1h2.8v1.4h-2.8v5.2
			c0,1,0.5,1.6,1.5,1.6c0.5,0,1-0.2,1.4-0.5L276,248z"/>
		<path class="st10" d="M279.7,236.3c0,0.3-0.1,0.6-0.3,1.3l-0.9,2.5h-1.1l0.7-2.7c-0.5-0.2-0.8-0.6-0.8-1.1c0-0.7,0.5-1.2,1.2-1.2
			C279.2,235.1,279.7,235.6,279.7,236.3z M283.2,236.3c0,0.3-0.1,0.6-0.3,1.3l-0.9,2.5h-1.1l0.7-2.7c-0.5-0.2-0.8-0.6-0.8-1.1
			c0-0.7,0.5-1.2,1.2-1.2C282.7,235.1,283.2,235.6,283.2,236.3z"/>
	</g>
</g>
<g>
	<g>
		<path class="st10" d="M246.7,293.3c0,0.7-0.5,1.2-1.2,1.2s-1.2-0.5-1.2-1.2c0-0.3,0.1-0.6,0.3-1.3l0.9-2.5h1.1l-0.7,2.7
			C246.4,292.4,246.7,292.8,246.7,293.3z M250.1,293.3c0,0.7-0.5,1.2-1.2,1.2s-1.2-0.5-1.2-1.2c0-0.3,0.1-0.6,0.3-1.3l0.9-2.5h1.1
			l-0.7,2.7C249.8,292.4,250.1,292.8,250.1,293.3z"/>
		<path class="st10" d="M251.4,301.9l0.7-1.4c0.8,0.6,2.1,1,3.4,1c1.6,0,2.3-0.5,2.3-1.3c0-2.2-6.1-0.3-6.1-4.1c0-1.7,1.5-2.9,4-2.9
			c1.2,0,2.7,0.3,3.5,0.9l-0.7,1.4c-0.9-0.6-1.8-0.8-2.8-0.8c-1.5,0-2.3,0.6-2.3,1.3c0,2.3,6.1,0.4,6.1,4.1c0,1.7-1.6,2.8-4.1,2.8
			C253.8,303.1,252.2,302.6,251.4,301.9z"/>
		<path class="st10" d="M270,293.4l-4.7,10.6c-0.9,2-2,2.7-3.4,2.7c-0.9,0-1.9-0.3-2.5-0.9l0.7-1.3c0.5,0.5,1.1,0.7,1.7,0.7
			c0.8,0,1.4-0.4,1.8-1.5l0.3-0.7l-4.2-9.6h1.8l3.4,7.7l3.3-7.7L270,293.4L270,293.4z"/>
		<path class="st10" d="M270.3,301.9l0.7-1.4c0.8,0.6,2.1,1,3.4,1c1.6,0,2.3-0.5,2.3-1.3c0-2.2-6.1-0.3-6.1-4.1c0-1.7,1.5-2.9,4-2.9
			c1.2,0,2.7,0.3,3.5,0.9l-0.7,1.4c-0.9-0.6-1.8-0.8-2.8-0.8c-1.5,0-2.3,0.6-2.3,1.3c0,2.3,6.1,0.4,6.1,4.1c0,1.7-1.6,2.8-4.1,2.8
			C272.7,303.1,271.1,302.6,270.3,301.9z"/>
		<path class="st10" d="M286,302.4c-0.5,0.5-1.3,0.7-2.1,0.7c-1.9,0-3-1.1-3-3v-5.3h-1.6v-1.4h1.6v-2.1h1.7v2.1h2.8v1.4h-2.8v5.2
			c0,1,0.5,1.6,1.5,1.6c0.5,0,1-0.2,1.4-0.5L286,302.4z"/>
		<path class="st10" d="M296.4,298.7h-7.8c0.2,1.7,1.6,2.8,3.5,2.8c1.1,0,2.1-0.4,2.8-1.2l1,1.1c-0.9,1-2.2,1.6-3.8,1.6
			c-3.1,0-5.2-2-5.2-4.9c0-2.8,2-4.9,4.8-4.9s4.7,2,4.7,4.9C296.4,298.4,296.4,298.6,296.4,298.7z M288.6,297.5h6.2
			c-0.2-1.6-1.4-2.8-3.1-2.8S288.8,295.9,288.6,297.5z"/>
		<path class="st10" d="M314.8,297.4v5.5H313v-5.3c0-1.9-0.9-2.8-2.5-2.8c-1.7,0-2.9,1.1-2.9,3.2v4.9h-1.7v-5.3
			c0-1.9-0.9-2.8-2.5-2.8c-1.7,0-2.9,1.1-2.9,3.2v4.9h-1.7v-9.6h1.7v1.4c0.7-1,1.9-1.5,3.3-1.5c1.5,0,2.7,0.6,3.3,1.8
			c0.7-1.1,2.1-1.8,3.7-1.8C313.2,293.3,314.8,294.6,314.8,297.4z"/>
		<path class="st10" d="M319.5,290.6c0,0.3-0.1,0.6-0.3,1.3l-0.9,2.5h-1.1l0.7-2.7c-0.5-0.2-0.8-0.6-0.8-1.1c0-0.7,0.5-1.2,1.2-1.2
			C319,289.4,319.5,289.9,319.5,290.6z M322.9,290.6c0,0.3-0.1,0.6-0.3,1.3l-0.9,2.5h-1.1l0.7-2.7c-0.5-0.2-0.8-0.6-0.8-1.1
			c0-0.7,0.5-1.2,1.2-1.2C322.4,289.4,322.9,289.9,322.9,290.6z"/>
	</g>
</g>
<g>
	<g>
		<path class="st10" d="M198.7,272.7h-2.4v3.1h-1.8v-3.1h-7v-1.3l6.5-8.3h2l-6.2,8h4.9v-2.8h1.7v2.8h2.4L198.7,272.7L198.7,272.7z"
			/>
		<path class="st10" d="M209.1,269.3c0,4.3-2.4,6.6-6,6.6c-1.2,0-2.3-0.2-3.2-0.7l0.7-1.4c0.7,0.4,1.5,0.6,2.4,0.6
			c2.6,0,4.2-1.6,4.2-4.8v-0.5c-0.7,1.1-2.1,1.7-3.7,1.7c-2.5,0-4.3-1.5-4.3-3.8c0-2.4,2-4,4.5-4C207.2,263,209.1,265.2,209.1,269.3
			z M206.9,266.9c0-1.3-1.1-2.4-3-2.4c-1.6,0-2.8,1-2.8,2.5s1.1,2.4,2.9,2.4C205.7,269.3,206.9,268.3,206.9,266.9z"/>
		<path class="st10" d="M214.7,263.1v12.7h-1.8v-11.1H210v-1.6H214.7z"/>
		<path class="st10" d="M227.3,271.9c0,2.4-2,4-4.5,4c-3.4,0-5.3-2.3-5.3-6.3c0-4.3,2.4-6.6,6-6.6c1.2,0,2.3,0.2,3.2,0.7l-0.7,1.4
			c-0.7-0.4-1.5-0.6-2.4-0.6c-2.6,0-4.2,1.6-4.2,4.8c0,0.1,0,0.3,0,0.5c0.7-1.1,2.1-1.7,3.6-1.7
			C225.5,268.1,227.3,269.6,227.3,271.9z M225.6,272c0-1.5-1.1-2.4-2.9-2.4c-1.7,0-2.9,1.1-2.9,2.5c0,1.3,1.1,2.4,3,2.4
			C224.4,274.5,225.6,273.5,225.6,272z"/>
		<path class="st10" d="M232.6,263.1v12.7h-1.8v-11.1H228v-1.6H232.6z"/>
	</g>
</g>
<rect x="219.5" y="58.9" class="st11" width="116.6" height="28.3"/>
<g>
	<g>
		<path class="st10" d="M127.8,73.8c0.7,0.2,1,0.6,1,1.7v4c0,0.9,0.4,1.4,1.3,1.4h0.5v1.4h-0.8c-1.8,0-2.7-0.9-2.7-2.7v-4.2
			c0-0.6-0.3-0.9-0.8-0.9h-0.6v-1.4h0.6c0.5,0,0.8-0.3,0.8-0.9V68c0-1.8,0.9-2.7,2.7-2.7h0.8v1.4h-0.5c-0.9,0-1.3,0.5-1.3,1.4v4
			C128.8,73.2,128.5,73.6,127.8,73.8z"/>
		<path class="st10" d="M134.1,73.8c0.7,0.2,1,0.6,1,1.7v4c0,0.9,0.4,1.4,1.3,1.4h0.5v1.4h-0.8c-1.8,0-2.7-0.9-2.7-2.7v-4.2
			c0-0.6-0.3-0.9-0.8-0.9H132v-1.4h0.6c0.5,0,0.8-0.3,0.8-0.9V68c0-1.8,0.9-2.7,2.7-2.7h0.8v1.4h-0.5c-0.9,0-1.3,0.5-1.3,1.4v4
			C135.1,73.2,134.8,73.6,134.1,73.8z"/>
		<path class="st10" d="M148.9,74c0,2.9-2,4.9-4.9,4.9c-1.4,0-2.6-0.5-3.4-1.6v1.5h-1.7V65.3h1.7v5.3c0.8-1,2-1.5,3.4-1.5
			C146.8,69.1,148.9,71,148.9,74z M147.1,74c0-2-1.4-3.4-3.2-3.4s-3.2,1.3-3.2,3.4c0,2,1.4,3.4,3.2,3.4
			C145.7,77.3,147.1,76,147.1,74z"/>
		<path class="st10" d="M158.8,73v5.8h-1.6v-1.3c-0.6,0.9-1.6,1.4-3.2,1.4c-2.2,0-3.5-1.2-3.5-2.8c0-1.5,1-2.8,3.9-2.8h2.8V73
			c0-1.5-0.9-2.3-2.6-2.3c-1.1,0-2.3,0.4-3,1l-0.7-1.3c1-0.8,2.4-1.2,4-1.2C157.3,69.1,158.8,70.3,158.8,73z M157.1,75.8v-1.3h-2.7
			c-1.7,0-2.2,0.7-2.2,1.5c0,1,0.8,1.6,2.1,1.6C155.6,77.5,156.6,76.9,157.1,75.8z"/>
		<path class="st10" d="M160.8,77.7l0.7-1.4c0.8,0.6,2.1,1,3.4,1c1.6,0,2.3-0.5,2.3-1.3c0-2.2-6.1-0.3-6.1-4.1c0-1.7,1.5-2.9,4-2.9
			c1.2,0,2.7,0.3,3.5,0.9l-0.7,1.4c-0.9-0.6-1.8-0.8-2.8-0.8c-1.5,0-2.3,0.6-2.3,1.3c0,2.3,6.1,0.4,6.1,4.1c0,1.7-1.6,2.8-4.1,2.8
			C163.2,78.9,161.6,78.4,160.8,77.7z"/>
		<path class="st10" d="M179.7,74.5H172c0.2,1.7,1.6,2.8,3.5,2.8c1.1,0,2.1-0.4,2.8-1.2l1,1.1c-0.9,1-2.2,1.6-3.8,1.6
			c-3.1,0-5.2-2-5.2-4.9c0-2.8,2-4.9,4.8-4.9s4.7,2,4.7,4.9C179.8,74.2,179.8,74.4,179.7,74.5z M172,73.3h6.2
			c-0.2-1.6-1.4-2.8-3.1-2.8C173.4,70.5,172.1,71.7,172,73.3z"/>
		<path class="st10" d="M182.3,73.3v-7.2h1.8v7.1c0,2.8,1.3,4.1,3.6,4.1s3.6-1.3,3.6-4.1v-7.1h1.8v7.2c0,3.7-2,5.6-5.4,5.6
			C184.4,78.9,182.3,77,182.3,73.3z"/>
		<path class="st10" d="M201.7,69.1v1.7c-0.1,0-0.3,0-0.4,0c-1.9,0-3,1.1-3,3.2v4.8h-1.7v-9.6h1.7v1.6
			C198.8,69.7,200,69.1,201.7,69.1z"/>
		<path class="st10" d="M203.8,65.3h1.7v13.4h-1.7V65.3z"/>
		<path class="st10" d="M212.5,73.1v1.4h-0.6c-0.5,0-0.8,0.3-0.8,0.9v4.2c0,1.8-0.9,2.7-2.8,2.7h-0.8v-1.4h0.4
			c0.9,0,1.4-0.5,1.4-1.4v-4c0-1,0.3-1.4,1-1.7c-0.7-0.2-1-0.6-1-1.7v-4c0-0.9-0.4-1.4-1.4-1.4h-0.4v-1.4h0.8c1.8,0,2.8,0.9,2.8,2.7
			v4.2c0,0.6,0.3,0.9,0.8,0.9C211.9,73.1,212.5,73.1,212.5,73.1z"/>
		<path class="st10" d="M218.9,73.1v1.4h-0.6c-0.5,0-0.8,0.3-0.8,0.9v4.2c0,1.8-0.9,2.7-2.8,2.7h-0.8v-1.4h0.4
			c0.9,0,1.4-0.5,1.4-1.4v-4c0-1,0.3-1.4,1-1.7c-0.7-0.2-1-0.6-1-1.7v-4c0-0.9-0.4-1.4-1.4-1.4h-0.4v-1.4h0.8c1.8,0,2.8,0.9,2.8,2.7
			v4.2c0,0.6,0.3,0.9,0.8,0.9C218.3,73.1,218.9,73.1,218.9,73.1z"/>
		<path class="st7" d="M225.4,63.5h1.6l-6,17.1h-1.6L225.4,63.5z"/>
		<path class="st7" d="M234.4,73v5.8h-1.6v-1.3c-0.6,0.9-1.6,1.4-3.2,1.4c-2.2,0-3.5-1.2-3.5-2.8c0-1.5,1-2.8,3.9-2.8h2.8V73
			c0-1.5-0.9-2.3-2.6-2.3c-1.1,0-2.3,0.4-3,1l-0.7-1.3c1-0.8,2.4-1.2,4-1.2C232.9,69.1,234.4,70.3,234.4,73z M232.6,75.8v-1.3h-2.7
			c-1.7,0-2.2,0.7-2.2,1.5c0,1,0.8,1.6,2.1,1.6C231.2,77.5,232.2,76.9,232.6,75.8z"/>
		<path class="st7" d="M247.5,74c0,3-2,4.9-4.9,4.9c-1.4,0-2.6-0.5-3.4-1.6v5h-1.7V69.2h1.7v1.5c0.8-1.1,2-1.6,3.4-1.6
			C245.5,69.1,247.5,71,247.5,74z M245.8,74c0-2-1.4-3.4-3.2-3.4s-3.2,1.3-3.2,3.4c0,2,1.4,3.4,3.2,3.4
			C244.4,77.3,245.8,76,245.8,74z"/>
		<path class="st7" d="M249.6,66.2c0-0.6,0.5-1.1,1.2-1.1s1.2,0.5,1.2,1.1c0,0.7-0.5,1.2-1.2,1.2C250.1,67.3,249.6,66.8,249.6,66.2z
			 M249.9,69.2h1.7v9.6h-1.7V69.2z"/>
		<path class="st7" d="M258.8,63.5h1.6l-6,17.1h-1.6L258.8,63.5z"/>
		<path class="st7" d="M259.3,74c0-2.9,2.1-4.9,5.1-4.9c1.7,0,3.2,0.7,3.9,2L267,72c-0.6-0.9-1.6-1.4-2.6-1.4
			c-1.9,0-3.3,1.3-3.3,3.4s1.4,3.4,3.3,3.4c1.1,0,2-0.4,2.6-1.4l1.3,0.8c-0.8,1.3-2.2,2.1-3.9,2.1C261.4,78.9,259.3,76.8,259.3,74z"
			/>
		<path class="st7" d="M269.5,74c0-2.9,2.1-4.9,5-4.9s5,2,5,4.9s-2.1,4.9-5,4.9S269.5,76.8,269.5,74z M277.7,74c0-2-1.4-3.4-3.2-3.4
			c-1.8,0-3.2,1.3-3.2,3.4c0,2,1.4,3.4,3.2,3.4C276.3,77.3,277.7,76,277.7,74z"/>
		<path class="st7" d="M291,73.2v5.5h-1.7v-5.3c0-1.9-0.9-2.8-2.6-2.8c-1.8,0-3,1.1-3,3.2v4.9H282v-9.6h1.7v1.4
			c0.7-1,1.9-1.5,3.5-1.5C289.3,69.1,291,70.4,291,73.2z"/>
		<path class="st7" d="M303.3,73.2v5.5h-1.7v-5.3c0-1.9-0.9-2.8-2.6-2.8c-1.8,0-3,1.1-3,3.2v4.9h-1.7v-9.6h1.7v1.4
			c0.7-1,1.9-1.5,3.5-1.5C301.7,69.1,303.3,70.4,303.3,73.2z"/>
		<path class="st7" d="M315.2,74.5h-7.8c0.2,1.7,1.6,2.8,3.5,2.8c1.1,0,2.1-0.4,2.8-1.2l1,1.1c-0.9,1-2.2,1.6-3.8,1.6
			c-3.1,0-5.2-2-5.2-4.9c0-2.8,2-4.9,4.8-4.9s4.7,2,4.7,4.9C315.3,74.2,315.3,74.4,315.2,74.5z M307.4,73.3h6.2
			c-0.2-1.6-1.4-2.8-3.1-2.8C308.9,70.5,307.6,71.7,307.4,73.3z"/>
		<path class="st7" d="M316.8,74c0-2.9,2.1-4.9,5.1-4.9c1.7,0,3.2,0.7,3.9,2l-1.3,0.9c-0.6-0.9-1.6-1.4-2.6-1.4
			c-1.9,0-3.3,1.3-3.3,3.4s1.4,3.4,3.3,3.4c1.1,0,2-0.4,2.6-1.4l1.3,0.8c-0.8,1.3-2.2,2.1-3.9,2.1C318.9,78.9,316.8,76.8,316.8,74z"
			/>
		<path class="st7" d="M333.6,78.2c-0.5,0.5-1.3,0.7-2.1,0.7c-1.9,0-3-1.1-3-3v-5.3h-1.6v-1.4h1.6v-2.1h1.7v2.1h2.8v1.4h-2.8v5.2
			c0,1,0.5,1.6,1.5,1.6c0.5,0,1-0.2,1.4-0.5L333.6,78.2z"/>
	</g>
</g>
<g>
	<g class="st12">
		<path class="st5" d="M308.3,40.4c-1,0-1.9-0.2-2.6-0.6c-0.8-0.4-1.4-1-1.8-1.7c-0.4-0.7-0.7-1.6-0.7-2.5s0.2-1.8,0.7-2.5
			c0.4-0.7,1-1.3,1.8-1.7c0.8-0.4,1.6-0.6,2.6-0.6c0.9,0,1.6,0.2,2.3,0.5c0.7,0.3,1.2,0.9,1.6,1.5l-1.3,0.9c-0.3-0.5-0.7-0.8-1.2-1
			c-0.5-0.2-0.9-0.3-1.5-0.3c-0.6,0-1.2,0.1-1.7,0.4c-0.5,0.3-0.9,0.7-1.2,1.2c-0.3,0.5-0.4,1.1-0.4,1.8s0.1,1.3,0.4,1.8
			c0.3,0.5,0.7,0.9,1.2,1.2c0.5,0.3,1.1,0.4,1.7,0.4c0.5,0,1-0.1,1.5-0.3c0.5-0.2,0.8-0.6,1.2-1l1.3,0.8c-0.4,0.7-0.9,1.2-1.6,1.5
			C309.9,40.2,309.2,40.4,308.3,40.4z"/>
		<path class="st5" d="M318.4,40.4c-1,0-1.8-0.2-2.6-0.6s-1.3-1-1.8-1.7c-0.4-0.7-0.7-1.6-0.7-2.5c0-1,0.2-1.8,0.7-2.5
			c0.4-0.7,1-1.3,1.8-1.7s1.6-0.6,2.6-0.6c1,0,1.8,0.2,2.6,0.6s1.3,1,1.8,1.7c0.4,0.7,0.6,1.6,0.6,2.5c0,1-0.2,1.8-0.6,2.5
			c-0.4,0.7-1,1.3-1.8,1.7S319.4,40.4,318.4,40.4z M318.4,38.9c0.6,0,1.2-0.1,1.7-0.4c0.5-0.3,0.9-0.7,1.2-1.2
			c0.3-0.5,0.4-1.1,0.4-1.8c0-0.7-0.1-1.3-0.4-1.8c-0.3-0.5-0.7-0.9-1.2-1.2c-0.5-0.3-1-0.4-1.7-0.4c-0.6,0-1.2,0.1-1.6,0.4
			c-0.5,0.3-0.9,0.7-1.2,1.2c-0.3,0.5-0.4,1.1-0.4,1.8c0,0.7,0.1,1.3,0.4,1.8c0.3,0.5,0.7,0.9,1.2,1.2
			C317.2,38.7,317.8,38.9,318.4,38.9z"/>
		<path class="st5" d="M330.9,30.6c0.8,0,1.5,0.2,2.1,0.5c0.6,0.3,1.1,0.8,1.4,1.4c0.3,0.6,0.5,1.4,0.5,2.3v5.5h-1.7v-5.3
			c0-0.9-0.2-1.6-0.7-2.1c-0.5-0.5-1.1-0.7-1.9-0.7c-0.6,0-1.2,0.1-1.6,0.4c-0.5,0.2-0.8,0.6-1.1,1.1c-0.2,0.5-0.4,1.1-0.4,1.8v4.9
			h-1.7v-9.6h1.7v2.6l-0.3-0.7c0.3-0.6,0.8-1.1,1.4-1.5C329.3,30.7,330.1,30.6,330.9,30.6z"/>
		<path class="st5" d="M342.4,40.4c-1,0-1.9-0.2-2.7-0.6c-0.8-0.4-1.4-1-1.8-1.7c-0.4-0.7-0.6-1.6-0.6-2.5s0.2-1.8,0.6-2.5
			c0.4-0.7,1-1.3,1.7-1.7s1.6-0.6,2.5-0.6c0.9,0,1.8,0.2,2.5,0.6c0.7,0.4,1.3,1,1.7,1.7c0.4,0.7,0.6,1.6,0.6,2.6c0,0.1,0,0.2,0,0.3
			c0,0.1,0,0.2,0,0.3h-8.2v-1.2h7.3l-0.7,0.4c0-0.6-0.1-1.2-0.4-1.6c-0.3-0.5-0.6-0.9-1.1-1.1c-0.5-0.3-1-0.4-1.6-0.4
			c-0.6,0-1.1,0.1-1.6,0.4c-0.5,0.3-0.8,0.7-1.1,1.1s-0.4,1-0.4,1.7v0.3c0,0.6,0.1,1.2,0.4,1.7s0.7,0.9,1.2,1.2
			c0.5,0.3,1.1,0.4,1.8,0.4c0.6,0,1.1-0.1,1.5-0.3c0.5-0.2,0.9-0.5,1.2-0.9l1,1.1c-0.4,0.5-1,0.9-1.6,1.2
			C343.9,40.2,343.2,40.4,342.4,40.4z"/>
		<path class="st5" d="M353.4,40.4c-1,0-1.9-0.2-2.6-0.6c-0.8-0.4-1.4-1-1.8-1.7c-0.4-0.7-0.7-1.6-0.7-2.5s0.2-1.8,0.7-2.5
			c0.4-0.7,1-1.3,1.8-1.7c0.8-0.4,1.6-0.6,2.6-0.6c0.9,0,1.6,0.2,2.3,0.5c0.7,0.3,1.2,0.9,1.6,1.5l-1.3,0.9c-0.3-0.5-0.7-0.8-1.2-1
			c-0.5-0.2-0.9-0.3-1.5-0.3c-0.6,0-1.2,0.1-1.7,0.4c-0.5,0.3-0.9,0.7-1.2,1.2c-0.3,0.5-0.4,1.1-0.4,1.8s0.1,1.3,0.4,1.8
			c0.3,0.5,0.7,0.9,1.2,1.2c0.5,0.3,1.1,0.4,1.7,0.4c0.5,0,1-0.1,1.5-0.3c0.5-0.2,0.8-0.6,1.2-1l1.3,0.8c-0.4,0.7-0.9,1.2-1.6,1.5
			C355.1,40.2,354.3,40.4,353.4,40.4z"/>
		<path class="st5" d="M358.3,32.1v-1.4h6.1v1.4H358.3z M363,40.4c-1,0-1.7-0.3-2.2-0.8c-0.5-0.5-0.8-1.3-0.8-2.2v-8.8h1.7v8.7
			c0,0.5,0.1,0.9,0.4,1.2c0.3,0.3,0.6,0.4,1.1,0.4c0.5,0,1-0.2,1.4-0.5l0.5,1.2c-0.3,0.2-0.6,0.4-1,0.5
			C363.8,40.3,363.4,40.4,363,40.4z"/>
		<path class="st5" d="M370,40.4c-0.7,0-1.3-0.1-1.9-0.4c-0.5-0.2-1-0.6-1.2-1c-0.3-0.4-0.4-0.9-0.4-1.5c0-0.5,0.1-1,0.4-1.4
			s0.7-0.8,1.2-1c0.6-0.3,1.3-0.4,2.3-0.4h3V36h-3c-0.9,0-1.5,0.1-1.8,0.4c-0.3,0.3-0.5,0.6-0.5,1.1c0,0.5,0.2,0.8,0.6,1.1
			c0.4,0.3,0.9,0.4,1.6,0.4c0.7,0,1.2-0.1,1.7-0.4c0.5-0.3,0.8-0.7,1.1-1.3l0.3,1.2c-0.2,0.6-0.6,1-1.2,1.3S370.9,40.4,370,40.4z
			 M373.2,40.3v-2l-0.1-0.4v-3.5c0-0.7-0.2-1.3-0.6-1.7c-0.4-0.4-1.1-0.6-1.9-0.6c-0.6,0-1.1,0.1-1.7,0.3c-0.5,0.2-1,0.4-1.4,0.8
			l-0.7-1.3c0.5-0.4,1.1-0.7,1.8-0.9c0.7-0.2,1.4-0.3,2.2-0.3c1.3,0,2.3,0.3,3,1c0.7,0.6,1.1,1.6,1.1,2.9v5.8H373.2z"/>
		<path class="st5" d="M378,40.3v-9.6h1.7v2.6l-0.2-0.7c0.3-0.7,0.7-1.2,1.3-1.5c0.6-0.4,1.4-0.5,2.3-0.5v1.7c-0.1,0-0.1,0-0.2,0
			s-0.1,0-0.2,0c-0.9,0-1.7,0.3-2.2,0.8s-0.8,1.4-0.8,2.4v4.8H378z"/>
	</g>
</g>
<circle class="st5" cx="46.2" cy="34" r="6.8"/>
<circle class="st5" cx="67.7" cy="34" r="6.8"/>
<circle class="st5" cx="89.2" cy="34" r="6.8"/>
</svg>
