<?xml version="1.0" encoding="utf-8"?>
<!-- Generator: Adobe Illustrator 26.3.1, SVG Export Plug-In . SVG Version: 6.00 Build 0)  -->
<svg version="1.1" id="Outline" xmlns="http://www.w3.org/2000/svg" xmlns:xlink="http://www.w3.org/1999/xlink" x="0px" y="0px"
	 viewBox="0 0 516.5 154" style="enable-background:new 0 0 516.5 154;" xml:space="preserve">
<style type="text/css">
	.st0{fill:#FFFFFF;}
</style>
<g>
	<g>
		<path class="st0" d="M229.6,123.2c-6.5,0-12.5-1.1-17.9-3.3c-5.4-2.2-10.1-5.3-13.9-9.2c-3.9-4-6.9-8.7-9.1-14.1
			c-2.1-5.4-3.2-11.4-3.2-17.9c0-6.5,1.1-12.5,3.2-17.9c2.1-5.4,5.2-10.1,9.1-14.1c3.9-4,8.5-7,13.9-9.2c5.4-2.2,11.4-3.3,17.9-3.3
			c6.5,0,12.5,1.1,17.8,3.3c5.4,2.2,10,5.3,13.9,9.2c3.9,4,7,8.6,9.1,14.1c2.1,5.4,3.2,11.4,3.2,17.9c0,6.5-1.1,12.5-3.2,17.9
			c-2.1,5.4-5.2,10.1-9.1,14.1c-3.9,4-8.6,7-13.9,9.2C242.1,122.1,236.2,123.2,229.6,123.2z M229.6,112.7c4.8,0,9.2-0.9,13.3-2.6
			c4-1.7,7.5-4.1,10.5-7.2c3-3.1,5.2-6.7,6.8-10.8c1.6-4.1,2.4-8.6,2.4-13.4c0-4.8-0.8-9.3-2.4-13.4c-1.6-4.1-3.9-7.8-6.8-10.8
			c-3-3.1-6.5-5.5-10.5-7.2c-4-1.7-8.5-2.6-13.3-2.6c-4.8,0-9.2,0.9-13.3,2.6c-4,1.7-7.5,4.1-10.4,7.2c-2.9,3.1-5.2,6.7-6.8,10.8
			c-1.6,4.1-2.4,8.6-2.4,13.4c0,4.8,0.8,9.3,2.4,13.4c1.6,4.1,3.9,7.8,6.8,10.8c2.9,3.1,6.4,5.5,10.4,7.2
			C220.4,111.9,224.8,112.7,229.6,112.7z"/>
		<path class="st0" d="M305.2,122.1c-3.3,0-6.1-0.9-8.7-2.7c-2.5-1.8-4.5-4.2-5.9-7.3c-1.4-3.1-2.1-6.6-2.1-10.6V40.9
			c0-1.6,0.5-3,1.6-4c1-1,2.4-1.6,4-1.6c1.6,0,3,0.5,4,1.6c1,1,1.6,2.4,1.6,4v60.7c0,2.7,0.5,5,1.6,6.8c1,1.8,2.4,2.7,4,2.7h2.8
			c1.5,0,2.7,0.5,3.6,1.6c0.9,1,1.4,2.4,1.4,4s-0.7,3-2.1,4c-1.4,1-3.2,1.6-5.4,1.6H305.2z"/>
		<path class="st0" d="M330.8,51.4c-2,0-3.7-0.7-5.2-2.2c-1.4-1.4-2.2-3.2-2.2-5.2c0-2,0.7-3.7,2.2-5.2c1.4-1.4,3.2-2.2,5.2-2.2
			s3.7,0.7,5.2,2.2c1.4,1.4,2.2,3.2,2.2,5.2c0,2-0.7,3.7-2.2,5.2C334.6,50.7,332.8,51.4,330.8,51.4z M330.8,122.1
			c-1.6,0-3-0.5-4.1-1.6c-1.1-1.1-1.6-2.4-1.6-4.1V67c0-1.7,0.5-3.1,1.6-4.1c1.1-1,2.4-1.6,4.1-1.6c1.7,0,3.1,0.5,4.1,1.6
			c1,1,1.6,2.4,1.6,4.1v49.4c0,1.6-0.5,3-1.6,4.1C333.9,121.5,332.5,122.1,330.8,122.1z"/>
		<path class="st0" d="M378.2,121.9c-2.3,0-4.1-1.2-5.3-3.7l-23.5-49.7c-0.6-1.3-0.6-2.5-0.2-3.7c0.5-1.2,1.4-2.2,2.8-2.8
			c1.3-0.7,2.5-0.8,3.8-0.3c1.3,0.4,2.3,1.3,2.9,2.6l22,47.4h-5.3l21.8-47.4c0.7-1.3,1.7-2.1,3.1-2.6c1.4-0.4,2.8-0.3,4.2,0.3
			c1.3,0.6,2.2,1.5,2.7,2.8c0.4,1.3,0.4,2.5-0.2,3.8l-23.5,49.7C382.2,120.7,380.4,121.9,378.2,121.9z"/>
		<path class="st0" d="M425.2,51.4c-2,0-3.7-0.7-5.2-2.2c-1.4-1.4-2.2-3.2-2.2-5.2c0-2,0.7-3.7,2.2-5.2c1.4-1.4,3.2-2.2,5.2-2.2
			s3.7,0.7,5.2,2.2c1.4,1.4,2.2,3.2,2.2,5.2c0,2-0.7,3.7-2.2,5.2C429,50.7,427.2,51.4,425.2,51.4z M425.2,122.1
			c-1.6,0-3-0.5-4.1-1.6c-1.1-1.1-1.6-2.4-1.6-4.1V67c0-1.7,0.5-3.1,1.6-4.1c1.1-1,2.4-1.6,4.1-1.6c1.7,0,3.1,0.5,4.1,1.6
			c1,1,1.6,2.4,1.6,4.1v49.4c0,1.6-0.5,3-1.6,4.1C428.3,121.5,427,122.1,425.2,122.1z"/>
		<path class="st0" d="M477.3,122.5c-5.4,0-10.3-1.4-14.6-4.1c-4.3-2.7-7.7-6.4-10.2-11c-2.5-4.6-3.7-9.9-3.7-15.7
			c0-5.8,1.4-11.1,4.1-15.8c2.7-4.7,6.4-8.3,11-11.1c4.6-2.7,9.8-4.1,15.6-4.1s11,1.4,15.6,4.1c4.6,2.7,8.2,6.4,10.9,11.1
			c2.7,4.7,4.1,9.9,4.1,15.8h-4.3c0,5.9-1.2,11.1-3.7,15.7c-2.5,4.6-5.9,8.3-10.2,11C487.6,121.2,482.8,122.5,477.3,122.5z
			 M479.6,112.5c3.8,0,7.1-0.9,10.1-2.7c3-1.8,5.3-4.3,7-7.4c1.7-3.1,2.6-6.7,2.6-10.6c0-4-0.9-7.6-2.6-10.7c-1.7-3.1-4-5.6-7-7.4
			c-3-1.8-6.3-2.7-10.1-2.7c-3.7,0-7.1,0.9-10.1,2.7c-3,1.8-5.4,4.3-7.1,7.4c-1.7,3.1-2.6,6.7-2.6,10.7c0,3.9,0.9,7.5,2.6,10.6
			c1.7,3.1,4.1,5.6,7.1,7.4C472.5,111.6,475.9,112.5,479.6,112.5z M504.4,122.2c-1.6,0-3-0.5-4.1-1.6c-1.1-1.1-1.6-2.4-1.6-4.1v-17
			l2.1-11.8l9.2,4v24.8c0,1.6-0.5,3-1.6,4.1C507.4,121.6,506.1,122.2,504.4,122.2z"/>
	</g>
	<g>
		<g>
			<path class="st0" d="M30.7,52.6L30.7,52.6l35.2-20.3V4.8c0,0,0,0-0.1,0v0c-0.1,0.1-0.3,0.1-0.4,0.2L48.1,15l0,0L23.4,29.3l0,0
				L7.2,38.6c-0.1,0.1-0.2,0.2-0.4,0.3L30.7,52.6L30.7,52.6z"/>
			<path class="st0" d="M107.2,51.9l22.5-13c-0.1-0.1-0.2-0.2-0.4-0.3l-9.1-5.2l0,0l-18.9-10.9l0,0L71.1,5c-0.1-0.1-0.3-0.1-0.4-0.2
				v0c0,0,0,0-0.1,0v27.5l35.1,20.3L107.2,51.9z"/>
			<path class="st0" d="M28.3,97.4V56.8L4.5,43.1c0,0,0,0,0,0L4.4,43c0,0.2-0.1,0.3-0.1,0.5v67.2c0,0.1,0,0.3,0.1,0.4l0.1-0.1
				c0,0,0,0.1,0,0.1L28.3,97.4z"/>
			<path class="st0" d="M132.1,43.5c0-0.1,0-0.3-0.1-0.4l0,0c0,0,0,0,0,0l-16.3,9.4l-7.5,4.3v0l0,0v40.6l13.7,7.9l10.1,5.9
				c0,0,0,0,0,0l0,0c0-0.1,0.1-0.3,0.1-0.4v0c0,0,0,0,0,0V43.5z"/>
			<path class="st0" d="M30.7,101.6L30.7,101.6L6.8,115.3c0.1,0.1,0.3,0.2,0.4,0.3l58.2,33.6c0.1,0.1,0.3,0.1,0.5,0.2v0c0,0,0,0,0,0
				v-27.5L30.7,101.6L30.7,101.6z"/>
			<path class="st0" d="M105.8,101.6L89.5,111l-18.9,10.9v27.5c0,0,0,0,0.1,0v0c0,0,0,0,0.1,0c0,0,0.1,0,0.1,0c0,0,0,0,0,0
				c0.1,0,0.1,0,0.2-0.1l30.2-17.4l0,0l18.9-10.9l0,0l9.1-5.2c0.1-0.1,0.3-0.2,0.4-0.3l-13.2-7.6L105.8,101.6z"/>
			<polygon class="st0" points="103.4,97.4 103.4,56.8 68.3,36.5 68.3,36.5 68.3,36.5 33,56.8 33,97.4 68.3,117.7 68.3,117.7 
				68.3,117.7 			"/>
		</g>
	</g>
</g>
</svg>
