<?xml version="1.0" encoding="utf-8"?>
<!-- Generator: Adobe Illustrator 26.3.1, SVG Export Plug-In . SVG Version: 6.00 Build 0)  -->
<svg version="1.1" id="Camada_1" xmlns="http://www.w3.org/2000/svg" xmlns:xlink="http://www.w3.org/1999/xlink" x="0px" y="0px"
	 viewBox="0 0 24 24" style="enable-background:new 0 0 24 24;" xml:space="preserve">
<style type="text/css">
	.st0{fill-rule:evenodd;clip-rule:evenodd;fill:#FFFFFF;filter:url(#Adobe_OpacityMaskFilter);}
	.st1{mask:url(#mask0_00000078738856130472088890000002075767307153448628_);}
	.st2{fill:#FFFFFF;}
	.st3{opacity:0.25;}
	.st4{fill-rule:evenodd;clip-rule:evenodd;fill:#FFFFFF;}
</style>
<defs>
	<filter id="Adobe_OpacityMaskFilter" filterUnits="userSpaceOnUse" x="1.7" y="2.1" width="19.8" height="19.7">
		<feColorMatrix  type="matrix" values="1 0 0 0 0  0 1 0 0 0  0 0 1 0 0  0 0 0 1 0"/>
	</filter>
</defs>
<mask maskUnits="userSpaceOnUse" x="1.7" y="2.1" width="19.8" height="19.7" id="mask0_00000078738856130472088890000002075767307153448628_">
	<path class="st0" d="M15.7,21.8c0.3,0.1,0.7,0.1,1,0l4.1-2c0.4-0.2,0.7-0.6,0.7-1.1V5.3c0-0.5-0.3-0.9-0.7-1.1l-4.1-2
		c-0.4-0.2-0.9-0.2-1.3,0.1c-0.1,0-0.1,0.1-0.1,0.1L7.5,9.6L4.1,7C3.8,6.8,3.3,6.8,3,7.1l-1.1,1C1.6,8.4,1.6,9,1.9,9.3l3,2.7l-3,2.7
		c-0.4,0.3-0.4,0.9,0,1.2l1.1,1c0.3,0.3,0.7,0.3,1.1,0l3.4-2.6l7.8,7.1C15.4,21.6,15.6,21.7,15.7,21.8z M16.5,7.5L10.6,12l5.9,4.5
		V7.5z"/>
</mask>
<g class="st1">
	<path class="st2" d="M20.8,4.2l-4.1-2c-0.5-0.2-1-0.1-1.4,0.2L1.9,14.7c-0.4,0.3-0.4,0.9,0,1.2l1.1,1c0.3,0.3,0.7,0.3,1.1,0
		L20.2,4.7c0.5-0.4,1.3,0,1.3,0.7v0C21.5,4.9,21.2,4.4,20.8,4.2z"/>
	<g>
		<path class="st2" d="M20.8,19.8l-4.1,2c-0.5,0.2-1,0.1-1.4-0.2L1.9,9.3C1.6,9,1.6,8.4,1.9,8.1l1.1-1c0.3-0.3,0.7-0.3,1.1,0
			l16.1,12.2c0.5,0.4,1.3,0,1.3-0.7v0C21.5,19.1,21.2,19.6,20.8,19.8z"/>
	</g>
	<g>
		<path class="st2" d="M16.7,21.7c-0.5,0.2-1,0.1-1.4-0.2c0.5,0.5,1.2,0.1,1.2-0.5V3c0-0.6-0.8-1-1.2-0.5c0.4-0.4,0.9-0.5,1.4-0.2
			l4.1,2c0.4,0.2,0.7,0.6,0.7,1.1v13.3c0,0.5-0.3,0.9-0.7,1.1L16.7,21.7z"/>
	</g>
	<g class="st3">
		<path class="st4" d="M15.7,21.8c0.3,0.1,0.7,0.1,1,0l4.1-2c0.4-0.2,0.7-0.6,0.7-1.1V5.3c0-0.5-0.3-0.9-0.7-1.1l-4.1-2
			c-0.4-0.2-0.9-0.2-1.3,0.1c-0.1,0-0.1,0.1-0.1,0.1L7.5,9.6L4.1,7C3.8,6.8,3.3,6.8,3,7.1l-1.1,1C1.6,8.4,1.6,9,1.9,9.3l3,2.7
			l-3,2.7c-0.4,0.3-0.4,0.9,0,1.2l1.1,1c0.3,0.3,0.7,0.3,1.1,0l3.4-2.6l7.8,7.1C15.4,21.6,15.6,21.7,15.7,21.8z M16.5,7.5L10.6,12
			l5.9,4.5V7.5z"/>
	</g>
</g>
</svg>
