<?xml version="1.0" encoding="utf-8"?>
<!-- Generator: Adobe Illustrator 26.3.1, SVG Export Plug-In . SVG Version: 6.00 Build 0)  -->
<svg version="1.1" id="Camada_1" xmlns="http://www.w3.org/2000/svg" xmlns:xlink="http://www.w3.org/1999/xlink" x="0px" y="0px"
	 viewBox="0 0 24 24" style="enable-background:new 0 0 24 24;" xml:space="preserve">
<style type="text/css">
	.st0{fill:#FFFFFF;}
</style>
<path class="st0" d="M8.5,15.5c-0.2-0.2-0.4-0.4-0.5-0.6c-0.3-0.4-0.2-0.9,0.2-1.2c0.4-0.3,0.9-0.2,1.2,0.2c0.1,0.1,0.2,0.3,0.4,0.4
	c0.7,0.7,1.6,1,2.5,1c1,0,1.8-0.4,2.5-1l4.6-4.6c1.4-1.4,1.4-3.7,0-5c-1.4-1.4-3.7-1.4-5,0l-0.9,0.9c-0.3,0.3-0.9,0.3-1.2,0
	c-0.3-0.3-0.3-0.9,0-1.2l0.9-0.9c2-2,5.4-2,7.4,0c2,2,2,5.4,0,7.4l-4.6,4.6c-1,1-2.3,1.5-3.7,1.5S9.5,16.5,8.5,15.5L8.5,15.5z
	 M7.2,22.1c1.4,0,2.7-0.5,3.7-1.5l0.9-0.9c0.3-0.3,0.3-0.9,0-1.2c-0.3-0.3-0.9-0.3-1.2,0l-0.9,0.9c-0.7,0.7-1.6,1-2.5,1
	s-1.8-0.4-2.5-1s-1-1.6-1-2.5s0.4-1.8,1-2.5l4.6-4.6c0.7-0.7,1.6-1,2.5-1c1,0,1.8,0.4,2.5,1c0.1,0.1,0.3,0.3,0.4,0.4
	c0.3,0.4,0.8,0.5,1.2,0.2c0.4-0.3,0.5-0.8,0.2-1.2c-0.2-0.2-0.3-0.4-0.5-0.6c-1-1-2.3-1.5-3.7-1.5S9.1,7.5,8.1,8.5l-4.6,4.6
	c-1,1-1.5,2.3-1.5,3.7s0.5,2.7,1.5,3.7C4.5,21.5,5.8,22.1,7.2,22.1z"/>
</svg>
