<?xml version="1.0" encoding="utf-8"?>
<!-- Generator: Adobe Illustrator 26.3.1, SVG Export Plug-In . SVG Version: 6.00 Build 0)  -->
<svg version="1.1" id="Outline" xmlns="http://www.w3.org/2000/svg" xmlns:xlink="http://www.w3.org/1999/xlink" x="0px" y="0px"
	 viewBox="0 0 141 154" style="enable-background:new 0 0 141 154;" xml:space="preserve">
<style type="text/css">
	.st0{fill:#55F990;}
	.st1{fill:#4BE27E;}
	.st2{fill:#42DB71;}
</style>
<g>
	<g id="Layer_10_00000084521167575702934380000018258627389918762624_">
		<g>
			<path class="st0" d="M132.6,40.6L105.9,56L69.5,35V4.1c1.3,0,2.6,0.3,3.9,1l56.4,32.6C131,38.4,132,39.4,132.6,40.6L132.6,40.6z"
				/>
			<path class="st0" d="M33.1,56v42L6.4,113.4c-0.7-1.2-1-2.5-1-3.9v-65c0-1.5,0.3-2.8,1-4L33.1,56z"/>
			<path class="st0" d="M132.6,113.4c-0.6,1.2-1.6,2.2-2.8,2.9l-56.4,32.5c-1.2,0.7-2.6,1-3.9,1V119l36.4-21L132.6,113.4z"/>
		</g>
		<path class="st1" d="M105.9,56v42l-36.4,21L33.1,98V56l36.4-21L105.9,56z"/>
		<path class="st2" d="M69.5,4.1V35L33.1,56L6.4,40.6c0.7-1.2,1.7-2.2,2.9-2.8L65.6,5.2C66.7,4.5,68.1,4.1,69.5,4.1L69.5,4.1z"/>
		<path class="st2" d="M69.5,119.1v30.8c-1.4,0-2.8-0.3-4-1L9.3,116.4c-1.2-0.7-2.2-1.7-2.9-2.9L33.1,98L69.5,119.1z"/>
		<path class="st2" d="M133.7,44.5v65c0,1.4-0.3,2.7-1,3.9L105.9,98V56l26.7-15.5C133.3,41.7,133.7,43.1,133.7,44.5L133.7,44.5z"/>
	</g>
</g>
</svg>
